<svg width="124" height="76" viewBox="0 0 124 76" fill="none" xmlns="http://www.w3.org/2000/svg">
<g clip-path="url(#clip0)">
<path d="M111.9 53.6C112.1 53.5 112.2 53.4 112.3 53.4C113 53 113.6 53.2 113.9 53.9C114 54.1 114.9 55.5 115.1 55.6C115.5 55.9 115.8 56.3 116.1 56.7C116.4 57.3 117 57.7 117.1 58.4C117.1 58.5 117.3 58.6 117.4 58.7C117.6 59.2 117.9 59.7 117.8 60.3C117.8 60.6 117.9 61 118 61.3C118 61.5 118.2 61.6 118.4 61.5C118.6 61.4 118.8 61.4 118.9 61.2C119.2 60.9 119.6 60.8 119.9 60.8C120 60.8 120 60.8 120.1 60.8C120.4 60.8 120.7 60.4 121.1 60.5C121.4 60.6 121.7 60.5 122.1 60.6C122.2 60.6 122.4 60.6 122.5 60.6C122.9 60.7 123.3 60.8 123.5 61.3C123.6 61.5 123.7 61.6 123.9 61.7C123.9 61.9 123.9 62.1 123.9 62.3C123.9 62.5 123.9 62.7 123.7 62.8C123.6 62.9 123.5 63 123.5 63.1C123.3 63.6 123 63.9 122.5 64C122.1 64.1 121.9 64.5 121.6 64.8C121.5 64.9 121.5 65.2 121.6 65.5C121.8 65.9 122 66.4 122.2 66.8C122.5 67.3 122.7 67.9 122.6 68.5C122.6 68.7 122.5 68.9 122.6 69C122.8 69.6 122.5 70.1 122.1 70.5C122 70.6 121.9 70.7 121.9 70.8C121.4 70.8 121 70.9 120.6 70.9C119.8 70.6 119.1 70.3 118.4 70.1C118.2 70 118 70 117.9 69.9C117.7 69.5 117.3 69.5 116.9 69.5C116.7 69.9 116.3 70.2 116.2 70.6C116.1 71 115.8 71.3 115.7 71.7C115.5 72.2 115.3 72.6 114.8 72.8C114.7 72.9 114.6 73 114.5 73.1C114.2 73.4 114 73.7 113.7 74C113.6 74.1 113.4 74.1 113.3 74.2C113.1 74.3 112.9 74.3 112.7 74.4C112.5 74.5 112.4 74.8 112.2 74.9C111.5 75.1 110.9 75.3 110.2 75.5C110.1 75.5 110 75.5 109.9 75.5C109.6 75.3 109.3 75.2 108.9 75.5C108.9 75.5 108.7 75.5 108.6 75.5C108.5 75.5 108.4 75.4 108.4 75.4C107.9 75.3 107.3 75.4 106.9 75.2C106.4 75 106 74.9 105.5 74.9C105.4 74.9 105.2 74.9 105.1 74.8C104.7 74.3 104 74.4 103.5 74.2C103.1 74 102.5 73.9 102.2 73.5C102.1 73.4 102 73.4 101.9 73.4C101.7 73.5 101.5 73.4 101.4 73.3C101 72.8 100.3 72.8 99.7999 72.5C99.2999 72.2 98.7999 72 98.1999 71.9C97.5999 71.7 96.9999 71.4 96.3999 71.2C95.6999 71 94.9999 70.6 94.1999 70.6C94.0999 70.6 93.9999 70.6 93.9999 70.5C93.7999 70.3 93.4999 70.3 93.1999 70.2C92.9999 70.1 92.6999 70 92.4999 70C91.8999 69.7 91.1999 69.8 90.5999 69.4C90.4999 69.3 90.3999 69.3 90.2999 69.3C89.7999 69.3 89.3999 69.2 88.9999 68.9C88.8999 68.8 88.6999 68.8 88.4999 68.7C87.7999 68.7 87.1999 68.4 86.5999 68C86.3999 67.9 86.1999 67.8 85.9999 67.8C85.5999 67.7 85.1999 67.6 84.8999 67.3C84.7999 67.2 84.6999 67.2 84.4999 67.1C83.8999 67 83.2999 67 82.8999 66.6C82.7999 66.6 82.6999 66.5 82.6999 66.5C82.3999 66.5 82.0999 66.4 81.8999 66.2C81.5999 65.9 81.1999 65.8 80.8999 65.7C80.5999 65.6 80.2999 65.6 79.9999 65.3C79.8999 65.2 79.7999 65.2 79.7999 65.2C79.1999 65.4 78.8999 64.9 78.4999 64.7C78.3999 64.7 78.1999 64.6 78.0999 64.6C77.9999 64.6 77.7999 64.6 77.7999 64.5C77.1999 63.9 76.2999 63.9 75.5999 63.5C75.0999 63.2 74.5999 62.8 73.9999 62.6C73.6999 62.5 73.3999 62.3 73.0999 62.3C72.7999 62.3 72.4999 62 72.1999 61.9C71.7999 61.6 71.3999 61.3 70.7999 61.3C70.6999 61.3 70.6999 61.3 70.5999 61.2C69.9999 60.7 69.2999 60.5 68.6999 60.2C68.2999 60 68.0999 59.7 67.6999 59.6C66.9999 59.4 66.2999 59.1 65.7999 58.6C65.6999 58.5 65.4999 58.4 65.2999 58.4C65.0999 58.3 64.8999 58.2 64.6999 58.2C64.1999 58 63.7999 57.6 63.2999 57.4C62.7999 57.2 62.4999 56.8 61.9999 56.6C61.1999 56.3 60.5999 55.7 59.7999 55.5C59.5999 55.5 59.2999 55.3 59.1999 55.1C58.9999 54.7 58.5999 54.6 58.2999 54.5C57.7999 54.4 57.4999 54 57.0999 53.9C56.7999 53.5 56.2999 53.3 55.7999 53.2C55.6999 53.2 55.6999 53.2 55.5999 53.1C55.0999 52.6 54.2999 52.4 53.6999 52C53.1999 51.7 52.6999 51.6 52.1999 51.2C51.7999 50.9 51.2999 50.6 50.7999 50.3C50.5999 50.2 50.3999 50.1 50.1999 50C49.8999 50 49.4999 49.8 49.3999 49.4C49.2999 49.2 49.0999 49.3 48.9999 49.3C48.3999 48.8 47.5999 48.6 46.8999 48.1C46.0999 47.6 45.2999 47.1 44.4999 46.6C44.3999 46.5 44.2999 46.5 44.1999 46.5C43.9999 46.4 43.7999 46.4 43.5999 46.3C43.3999 46.1 43.1999 46 42.8999 45.8C42.6999 45.7 42.4999 45.4 42.1999 45.5C41.9999 45.1 41.5999 45.1 41.1999 45C40.9999 45 40.7999 44.8 40.5999 44.7C40.0999 44.4 39.4999 44.2 39.0999 43.7C38.9999 43.6 38.7999 43.5 38.6999 43.5C38.3999 43.5 38.0999 43.5 37.8999 43.1C37.2999 43 36.8999 42.5 36.3999 42.4C36.0999 42.3 35.6999 42.3 35.3999 41.9C35.2999 41.8 35.0999 41.8 34.9999 41.7C34.5999 42 34.1999 42 33.9999 41.6C33.9999 41.5 33.7999 41.5 33.7999 41.5C33.0999 41.3 32.4999 41.1 31.9999 40.7C31.8999 40.6 31.7999 40.6 31.6999 40.5C30.7999 40.2 29.9999 39.8 29.1999 39.2C28.3999 39 27.8999 38.3 27.0999 38C26.8999 37.9 26.6999 37.8 26.5999 37.6C26.2999 37.3 25.9999 37.1 25.5999 37.1C25.4999 37.1 25.3999 37 25.2999 36.9C24.9999 36.5 24.4999 36.4 24.1999 36C23.9999 35.8 23.7999 35.7 23.5999 35.6C23.3999 35.5 23.0999 35.3 22.9999 35.2C22.8999 35.1 22.7999 34.9 22.4999 34.9C22.2999 34.8 22.0999 34.7 21.9999 34.5C21.8999 34.3 21.6999 34.2 21.3999 34.1C21.1999 34 20.9999 34 20.8999 33.8C20.4999 33.1 19.6999 32.9 19.0999 32.4C18.8999 32.3 18.6999 32.1 18.4999 32C18.0999 31.6 17.5999 31.2 17.0999 31C16.7999 30.8 16.5999 30.4 16.1999 30.3C15.8999 30.2 15.5999 30 15.3999 29.6C15.3999 29.5 15.2999 29.5 15.1999 29.4C14.4999 29 13.9999 28.3 13.3999 27.7C13.2999 27.6 13.1999 27.5 13.0999 27.4C12.7999 27.2 12.3999 27 12.1999 26.7C11.9999 26.4 11.4999 26.3 11.3999 25.9C10.9999 25.7 10.7999 25.3 10.3999 25C10.1999 24.8 9.9999 24.6 9.7999 24.4C9.6999 24.3 9.5999 24.2 9.5999 24.1C9.3999 23.6 8.8999 23.6 8.6999 23.2C8.4999 23 8.3999 22.6 7.9999 22.3C7.7999 22.1 7.6999 21.8 7.3999 21.5C7.0999 21.2 7.0999 20.7 6.6999 20.5C6.6999 19.9 6.2999 19.5 6.1999 19C6.0999 18.4 5.8999 18 5.6999 17.5C5.6999 17.4 5.5999 17.3 5.5999 17.2C5.6999 16.6 5.4999 16 5.3999 15.3C5.2999 14.7 5.1999 14.1 5.4999 13.6C5.5999 13.3 5.4999 12.9 5.7999 12.6C5.6999 12.1 5.9999 11.8 6.0999 11.4C6.0999 11.3 6.0999 11.2 5.9999 11.1C5.6999 11.1 5.4999 11.1 5.2999 11.1C5.0999 11.1 4.9999 11 4.7999 10.9C4.5999 10.7 4.3999 10.6 4.0999 10.7C4.0999 10.7 3.9999 10.7 3.8999 10.7C3.4999 10.2 2.7999 10.1 2.3999 9.7C2.4999 9.6 2.3999 9.5 2.2999 9.5C1.7999 9.4 1.4999 9 1.1999 8.7C0.999902 8.5 0.799902 8.2 0.599902 8C0.499902 7.9 0.399902 7.8 0.399902 7.7C0.399902 7.4 0.199902 7.2 0.0999023 7C-9.76548e-05 6.5 -9.76548e-05 6.1 0.0999023 5.7C0.0999023 5.6 0.199902 5.5 0.199902 5.4C0.399902 4.3 1.1999 4 2.1999 3.9C2.3999 3.9 2.5999 3.8 2.8999 3.9C3.0999 4 3.3999 3.8 3.6999 3.8C3.6999 3.6 3.6999 3.4 3.5999 3.3C3.3999 3 3.5999 2.6 3.4999 2.3C3.1999 1.6 3.2999 1 3.7999 0.7C4.1999 0.3 4.6999 0.1 5.1999 0C5.3999 0 5.5999 0.1 5.7999 0.2C5.9999 0.4 6.1999 0.5 6.4999 0.6C6.8999 0.7 7.2999 0.9 7.3999 1.4C7.3999 1.5 7.4999 1.6 7.5999 1.6C8.2999 1.9 8.5999 2.5 8.8999 3.1C8.9999 3.2 9.0999 3.4 9.1999 3.5C9.4999 4 9.5999 4.5 9.4999 5C9.4999 5.5 9.4999 6 9.3999 6.6C9.3999 6.7 9.4999 6.7 9.4999 6.8H9.5999C9.9999 6.6 9.9999 6.2 10.3999 6.1C10.6999 6 10.9999 5.7 11.1999 5.5C11.2999 5.4 11.4999 5.4 11.5999 5.4C11.7999 5.4 11.9999 5.4 12.0999 5.2C12.0999 5.1 12.1999 5.1 12.2999 5C12.6999 4.9 12.9999 4.9 13.3999 4.7C13.6999 4.5 14.0999 4.5 14.4999 4.5C14.7999 4.5 15.1999 4.3 15.4999 4.4C15.7999 4.4 16.0999 4.5 16.4999 4.4C16.8999 4.3 17.1999 4.2 17.5999 4.5C17.6999 4.5 17.7999 4.5 17.8999 4.4C18.0999 4.3 18.3999 4.3 18.5999 4.5C18.8999 4.8 19.0999 4.7 19.3999 4.7C19.6999 4.7 19.9999 4.6 20.1999 4.9C20.7999 4.9 21.1999 5.3 21.7999 5.3C21.8999 5.3 21.9999 5.3 22.0999 5.4C22.2999 5.5 22.4999 5.6 22.6999 5.7C22.8999 5.8 23.0999 5.7 23.2999 5.8C23.7999 6.1 24.3999 6.2 24.8999 6.3C24.9999 6.3 25.1999 6.4 25.2999 6.4C25.4999 6.5 25.5999 6.8 25.9999 6.7C26.1999 6.7 26.4999 6.9 26.6999 7C27.2999 7.3 27.9999 7.7 28.6999 7.8C28.7999 7.8 28.8999 7.8 28.8999 7.9C29.1999 8.3 29.6999 8.3 30.0999 8.4C30.4999 8.6 30.9999 8.6 31.2999 9C31.3999 9.1 31.3999 9.1 31.4999 9.1C31.9999 9.3 32.5999 9.2 32.8999 9.7C33.3999 9.8 33.7999 10.1 34.2999 10.2C34.3999 10.2 34.4999 10.3 34.5999 10.3C34.9999 10.6 35.4999 10.8 35.8999 10.9C36.3999 11 36.7999 11.4 37.3999 11.6C37.7999 11.7 38.0999 11.8 38.4999 12.1C38.7999 12.4 39.1999 12.4 39.5999 12.6C39.7999 12.7 39.9999 12.8 40.1999 12.8C40.3999 12.8 40.3999 12.8 40.6999 13.3C41.2999 13.2 41.6999 13.6 42.1999 13.8C42.3999 13.9 42.6999 14 42.8999 14.2C43.0999 14.4 43.1999 14.4 43.3999 14.4C43.6999 14.5 43.8999 14.5 44.0999 14.7C44.4999 15.1 45.0999 15.2 45.5999 15.5C45.8999 15.6 46.1999 15.8 46.4999 16C46.7999 16.1 46.9999 16.4 47.2999 16.4C47.5999 16.4 47.7999 16.6 47.9999 16.7C48.3999 16.9 48.7999 17.1 49.1999 17.4C49.4999 17.7 49.9999 17.8 50.3999 18C50.9999 18.2 51.4999 18.4 51.9999 18.9C52.4999 18.9 52.9999 19.3 53.3999 19.6C54.1999 20.1 54.9999 20.4 55.5999 21.1C55.6999 21.2 55.7999 21.2 55.8999 21.3C56.2999 21.5 56.6999 21.6 56.9999 21.8C57.3999 22 57.7999 22.1 58.0999 22.5C58.1999 22.6 58.2999 22.7 58.4999 22.7C59.0999 22.9 59.4999 23.3 60.0999 23.5C60.1999 23.5 60.1999 23.6 60.2999 23.6C60.5999 23.7 60.8999 24 61.0999 24.2C61.3999 24.4 61.6999 24.5 62.0999 24.6C62.1999 24.6 62.1999 24.7 62.2999 24.8C62.4999 24.9 62.6999 25.1 62.8999 25.2C63.4999 25.3 63.8999 25.5 64.3999 25.9C64.5999 26.1 64.8999 26.2 65.1999 26.4C65.3999 26.6 65.7999 26.6 66.0999 26.7C66.6999 26.9 67.2999 27.3 67.8999 27.6C68.4999 27.9 69.0999 28.1 69.6999 28.5C70.2999 28.8 70.8999 29.2 71.5999 29.4C71.6999 29.4 71.7999 29.5 71.7999 29.5C72.1999 29.8 72.5999 29.9 73.0999 30.1C73.4999 30.2 73.8999 30.4 74.1999 30.6C74.4999 30.9 74.8999 30.9 75.1999 31.1C75.6999 31.3 76.2999 31.4 76.6999 31.9C76.7999 32 76.8999 32 76.9999 32C77.6999 32 78.2999 32.6 78.8999 32.8C78.9999 32.9 79.0999 33 79.2999 33C79.8999 33 80.1999 33.5 80.7999 33.5C80.8999 33.5 80.9999 33.5 80.9999 33.6C81.2999 34 81.6999 34.1 82.1999 34.3C82.3999 34.4 82.4999 34.5 82.7999 34.5C82.8999 34.5 83.0999 34.6 83.1999 34.7C83.4999 35 83.9999 35 84.1999 35.5C84.1999 35.5 84.1999 35.5 84.2999 35.5C84.8999 35.6 85.2999 36.1 85.7999 36.4C86.0999 36.7 86.4999 36.9 86.8999 37C87.4999 37.3 88.6999 38.1 89.1999 38.6C89.4999 38.9 89.7999 39.1 90.1999 39.3C90.8999 39.7 91.6999 40.2 92.2999 40.8C92.6999 40.9 93.0999 41.2 93.3999 41.5C93.5999 41.6 93.7999 41.7 93.8999 41.9C93.9999 42 94.0999 42.1 94.1999 42.2C94.6999 42.5 95.2999 42.9 95.8999 43.1C96.2999 43.3 96.6999 43.5 97.0999 43.8C97.3999 44.1 97.8999 44.3 98.2999 44.5C98.3999 44.6 98.5999 44.6 98.6999 44.7C98.9999 44.9 99.2999 45.3 99.6999 45.3C99.8999 45.6 100.3 45.7 100.7 45.8C100.8 45.8 100.9 45.9 101 46C101.2 46.1 101.4 46.3 101.7 46.4C103 46.9 103.4 47.1 104.6 48C105.1 48.1 105.4 48.7 106 48.7C106.2 48.7 106.3 48.9 106.5 49C106.9 49.3 107.2 49.6 107.7 49.8C108.1 50.2 108.7 50.3 109 50.8L109.1 50.9C109.4 51.1 110 51.1 110.1 51.6C110.4 51.8 110.8 52.1 111.1 52.2C111.4 52.3 111.6 52.6 111.8 52.8C111.6 53.2 111.8 53.4 111.9 53.6ZM33.8999 12.3C33.8999 12.4 33.7999 12.4 33.7999 12.5C33.9999 12.7 34.1999 13.1 34.4999 13.2C35.1999 13.5 35.5999 14.1 36.1999 14.5C36.2999 14.6 36.2999 14.7 36.3999 14.9C35.6999 14.7 34.9999 14.8 34.3999 14.6C34.0999 14.5 33.6999 14.6 33.3999 14.4C32.9999 14 32.2999 14 31.9999 13.4C31.5999 13.3 31.3999 13.1 31.1999 12.8C31.0999 12.7 30.9999 12.6 30.8999 12.5C30.6999 12.4 30.5999 12.3 30.4999 12.2C30.3999 12 30.1999 11.8 30.0999 11.7C30.0999 11.3 30.0999 10.9 30.0999 10.6C29.7999 10.5 29.4999 10.5 29.3999 10.4C29.0999 10 28.6999 10 28.2999 9.9C27.9999 9.8 27.6999 9.7 27.3999 9.5C26.9999 9.3 26.6999 8.9 26.1999 9C26.0999 9 25.9999 8.9 25.8999 8.8C25.6999 8.6 25.4999 8.6 25.2999 8.5C24.6999 8.3 23.9999 8.1 23.3999 7.7C22.6999 7.3 21.6999 7.3 20.9999 6.9C20.8999 6.8 20.6999 6.8 20.5999 6.8C20.2999 6.8 20.0999 6.8 19.7999 6.7C19.0999 6.4 18.2999 6.4 17.4999 6.4C16.5999 6.4 15.5999 6.3 14.6999 6.6C14.1999 6.5 13.6999 6.8 13.1999 7C12.3999 7.3 11.6999 7.6 11.0999 8.3C10.8999 8.5 10.5999 8.7 10.3999 8.8C10.0999 9 9.7999 9.4 9.6999 9.7C9.6999 9.8 9.5999 9.9 9.4999 10C8.8999 10.2 8.7999 10.7 8.5999 11.2C8.3999 11.6 8.2999 12 8.0999 12.3C7.7999 12.7 7.6999 13.3 7.5999 13.8C7.4999 14.2 7.4999 14.6 7.5999 15C7.7999 15.7 7.6999 16.4 7.7999 17.1C7.8999 17.4 7.7999 17.7 8.0999 18C7.9999 17.9 7.9999 18 8.0999 18.1C8.0999 18.9 8.5999 19.6 8.9999 20.3C9.2999 20.9 9.6999 21.5 10.2999 21.9C10.3999 21.9 10.3999 22.1 10.3999 22.1C10.5999 22.3 10.6999 22.5 10.8999 22.7C11.2999 23.1 11.7999 23.5 12.0999 24C12.1999 24.1 12.2999 24.2 12.3999 24.3C13.0999 24.7 13.5999 25.2 13.9999 25.8C14.0999 25.9 14.1999 26.1 14.3999 26.1C14.8999 26.3 15.1999 26.7 15.4999 27.1C15.5999 27.3 15.7999 27.4 15.9999 27.5C16.5999 27.6 16.7999 28.4 17.3999 28.5C17.4999 28.5 17.5999 28.7 17.6999 28.8C17.6999 28.8 17.6999 28.8 17.6999 28.9C17.7999 29.2 17.9999 29.4 18.3999 29.4C18.5999 29.5 18.8999 29.5 18.9999 29.8C19.0999 30 19.1999 30.1 19.3999 30.2C19.5999 30.3 19.7999 30.4 19.8999 30.5C20.2999 31 20.9999 31.1 21.2999 31.7C21.9999 32 22.4999 32.5 22.9999 33.1C23.0999 33.2 23.2999 33.3 23.3999 33.3C23.7999 33.2 23.9999 33.5 24.1999 33.7C24.3999 34 24.5999 34.4 25.0999 34.3L25.1999 34.4C25.3999 34.8 25.7999 34.9 26.0999 35C26.2999 35.1 26.4999 35.2 26.5999 35.3C26.9999 35.7 27.4999 35.9 27.9999 36.2C28.9999 36.7 29.9999 37.2 30.8999 37.8C31.0999 38 31.3999 38.2 31.6999 38.2C31.7999 38.2 31.9999 38.3 32.0999 38.4C32.3999 38.7 32.6999 38.9 33.1999 39C33.3999 39 33.6999 39.1 33.7999 39.2C34.1999 39.6 34.7999 39.7 35.2999 39.9C35.3999 40 35.5999 40 35.6999 40.1C35.9999 40.4 36.3999 40.5 36.7999 40.6C36.8999 40.6 37.0999 40.7 37.1999 40.8C37.4999 41.1 37.8999 41.2 38.1999 41.4C38.5999 41.6 38.8999 41.8 39.3999 42C39.7999 42.1 40.0999 42.3 40.3999 42.5C40.7999 42.8 41.3999 42.8 41.6999 43.3H41.7999C42.0999 43.3 42.2999 43.5 42.4999 43.6C42.6999 43.7 42.7999 43.9 42.9999 43.9C43.3999 44 43.7999 44.2 44.1999 44.5C44.5999 44.8 45.0999 44.8 45.3999 45.2C45.3999 45.3 45.5999 45.3 45.6999 45.3C45.7999 45.3 45.9999 45.3 46.0999 45.4C46.4999 45.9 47.1999 46 47.5999 46.4C47.7999 46.6 48.0999 46.8 48.2999 46.9C48.8999 47.1 49.4999 47.4 49.9999 47.8C50.4999 47.9 50.7999 48.5 51.3999 48.5C51.7999 48.9 52.3999 48.9 52.6999 49.4C53.0999 49.5 53.4999 49.8 53.7999 50C54.0999 50.3 54.6999 50.3 54.8999 50.7C55.5999 50.9 56.1999 51.5 56.8999 51.8C57.1999 51.9 57.4999 52.1 57.6999 52.3C58.1999 52.7 58.6999 52.9 59.2999 53.2C59.5999 53.3 59.7999 53.4 60.0999 53.6C60.4999 53.9 60.8999 54.2 61.3999 54.5C61.5999 54.6 61.7999 54.8 61.9999 54.8C62.3999 54.9 62.6999 55.1 62.9999 55.3C63.2999 55.5 63.6999 55.8 63.9999 55.9C64.2999 56 64.4999 56.1 64.7999 56.3C65.0999 56.5 65.5999 56.7 65.9999 56.8C66.2999 56.9 66.4999 56.9 66.5999 57.2C66.7999 57.5 66.9999 57.6 67.2999 57.6C67.6999 57.6 67.9999 57.8 68.2999 58.1C68.3999 58.2 68.4999 58.3 68.5999 58.3C68.8999 58.3 69.0999 58.5 69.2999 58.6C69.5999 58.8 69.8999 59 70.2999 59.1C70.4999 59.1 70.6999 59.2 70.8999 59.3C71.6999 59.7 72.4999 60 73.2999 60.5C73.6999 60.8 74.1999 61 74.6999 61.2C75.5999 61.5 76.3999 61.8 77.1999 62.4C77.6999 62.8 78.3999 62.8 78.8999 63.2C78.9999 63.3 79.1999 63.2 79.3999 63.3C79.5999 63.3 79.7999 63.4 79.8999 63.5C80.1999 63.9 80.7999 63.9 81.1999 64.2C81.9999 64.2 82.5999 64.7 83.2999 65C83.3999 65.1 83.4999 65.1 83.5999 65.1C83.8999 65 84.1999 65.2 84.3999 65.4C84.5999 65.6 84.8999 65.7 85.0999 65.6C85.3999 65.5 85.5999 65.7 85.7999 65.8C86.0999 66 86.3999 66.3 86.7999 66.1C86.7999 66.1 86.8999 66.1 86.9999 66.2C87.3999 66.5 87.8999 66.6 88.2999 66.8C88.7999 66.9 89.1999 67.2 89.7999 67.2C90.3999 67.6 91.1999 67.4 91.7999 67.9C92.2999 67.9 92.6999 68.3 93.2999 68.3C93.7999 68.3 94.1999 68.6 94.6999 68.7C95.1999 68.8 95.6999 68.8 95.9999 69.2H96.0999C96.6999 69.2 97.1999 69.2 97.6999 69.6C97.9999 69.5 98.0999 69.7 98.2999 69.8C98.4999 69.9 98.7999 69.9 98.8999 70C99.3999 70.3 99.8999 70.4 100.4 70.6C101.1 70.8 101.7 71.3 102.4 71.5C102.5 71.5 102.6 71.6 102.7 71.7C102.8 71.8 102.9 71.9 103 71.9C103.5 71.9 103.8 72.1 104.2 72.4C104.8 72.4 105.2 72.7 105.6 73C105.7 73.1 105.9 73.1 106.1 73.1C106.5 73.2 106.9 73.2 107.2 73.3C107.5 73.4 108 73.3 108.3 73.6C108.4 73.7 108.5 73.6 108.6 73.6C108.8 73.6 109 73.5 109.1 73.6C109.7 73.8 110.2 73.7 110.8 73.5C111.5 73.3 112.5 72.8 113 72.3C113.2 72.1 113.4 71.9 113.6 71.7C113.8 71.5 113.9 71.3 114.1 71.1C114.3 70.8 114.3 70.5 114.5 70.1C114.7 69.8 114.8 69.4 115 69.1C115.2 68.5 115.5 67.8 115.7 67.2C115.7 67.1 115.8 66.9 115.8 66.8C115.8 66.6 115.8 66.4 115.9 66.2C116.1 65.8 116.2 65.3 116.3 64.9C116.4 64.5 116.3 64.1 116.4 63.7C116.5 62.7 116.5 61.7 116.2 60.7C116.3 60.3 115.9 60.1 115.8 59.7C115.8 59.5 115.7 59.2 115.7 59C115.7 58.7 115.3 58.8 115.2 58.5C115.2 58.4 115.1 58.3 115.1 58.3C115 57.9 114.8 57.6 114.5 57.4C114.3 57.2 114.1 57.1 114.1 56.8C114.1 56.7 113.9 56.6 113.8 56.5C112.9 56 112 55.4 111.1 54.9C110.6 54.6 110 54.3 109.6 53.8C109.5 53.7 109.5 53.6 109.4 53.6C108.9 53.5 108.6 53.1 108.3 52.8C108 52.6 107.7 52.2 107.2 52.1C107.1 52.1 107 51.9 106.8 51.9C106.1 51.6 105.7 51 105 50.8C104.9 50.8 104.8 50.7 104.7 50.6C104.3 50.3 103.9 50 103.4 49.9C103 49.7 102.6 49.6 102.3 49.3C102.3 49.2 102.1 49.2 102.1 49.2C101.8 49.1 101.3 49 101.1 48.8C100.8 48.5 100.5 48.4 100.1 48.3C99.9999 48.3 99.9999 48.1 99.8999 48.1C99.7999 48 99.6999 47.9 99.5999 47.9C98.8999 47.9 98.5999 47.3 98.0999 47.1C97.8999 47 97.7999 46.8 97.5999 46.7C97.3999 46.7 97.1999 46.4 96.8999 46.3C96.4999 46.3 96.1999 46 95.8999 45.8C95.7999 45.7 95.6999 45.6 95.5999 45.6C94.9999 45.5 94.5999 45.2 94.1999 44.8C93.8999 44.6 93.6999 44.3 93.3999 44.2C92.8999 44 92.4999 43.6 91.9999 43.4C91.6999 43.2 91.2999 43.1 91.0999 42.8C90.8999 42.5 90.5999 42.4 90.3999 42.2C89.9999 41.9 89.4999 41.7 89.1999 41.3C89.0999 41.2 88.9999 41.1 88.8999 41.1C88.5999 41.1 88.4999 40.9 88.2999 40.8C87.9999 40.5 87.6999 40.3 87.3999 40C86.4999 39.4 85.6999 38.8 84.7999 38.3C84.6999 38.3 84.5999 38.3 84.5999 38.2C83.8999 37.6 83.0999 37.3 82.2999 36.8C81.8999 36.6 81.4999 36.5 81.1999 36.1C81.1999 36 80.9999 36 80.9999 36C80.6999 36.1 80.4999 36 80.3999 35.8C80.1999 35.6 79.8999 35.5 79.5999 35.4C78.9999 35.1 78.4999 35 77.9999 34.6C77.8999 34.5 77.7999 34.5 77.7999 34.5C77.1999 34.5 76.7999 34.1 76.2999 33.8C76.0999 33.7 75.8999 33.5 75.7999 33.5C75.2999 33.5 74.9999 33.2 74.5999 33C73.9999 32.7 73.2999 32.3 72.5999 32.1C72.2999 32 72.0999 31.8 71.8999 31.7C71.6999 31.6 71.2999 31.6 71.0999 31.4C70.8999 31.2 70.6999 31.1 70.3999 31.1C70.1999 31.1 69.9999 31 69.8999 30.9C69.5999 30.6 69.2999 30.5 68.9999 30.4C68.5999 30.2 68.1999 30.1 67.9999 29.8C67.8999 29.7 67.6999 29.6 67.5999 29.6C67.1999 29.7 66.9999 29.4 66.6999 29.3C66.1999 29.1 65.7999 28.7 65.2999 28.6C64.6999 28.4 64.2999 28 63.6999 27.8C63.3999 27.7 63.1999 27.6 62.8999 27.4C62.3999 27 61.8999 26.6 61.1999 26.5C61.0999 26.5 61.0999 26.5 60.9999 26.4C59.9999 25.8 59.0999 25.2 58.0999 24.7C57.8999 24.6 57.6999 24.4 57.4999 24.2C57.2999 24 57.1999 23.9 56.8999 23.9C56.6999 23.9 56.5999 23.8 56.3999 23.7C56.0999 23.5 55.6999 23.3 55.3999 23.1C54.8999 22.8 54.3999 22.5 53.8999 22.2C53.7999 21.9 53.4999 21.9 53.2999 21.8C53.0999 21.7 52.8999 21.5 52.5999 21.4C52.1999 21.3 51.7999 21.1 51.5999 20.7C51.1999 20.6 50.7999 20.5 50.3999 20.2C49.9999 20.1 49.8999 20 49.6999 20C49.3999 20 49.0999 19.9 48.8999 19.7C48.5999 19.5 48.3999 19.3 47.9999 19.2C47.7999 19.2 47.4999 19 47.2999 18.9C46.9999 18.8 46.7999 18.6 46.4999 18.5C45.9999 18.2 45.3999 17.9 44.8999 17.7C44.3999 17.5 43.9999 17.2 43.5999 17C43.1999 16.8 42.5999 16.8 42.2999 16.3C42.2999 16.3 42.1999 16.3 42.0999 16.3C41.8999 16.3 41.7999 16.3 41.6999 16.2C41.3999 16 41.0999 15.7 40.6999 15.7C40.1999 15.7 40.0999 15.2 39.6999 15H39.5999C39.1999 14.9 38.8999 14.5 38.4999 14.6C38.2999 14.2 37.6999 14.3 37.3999 13.9C37.2999 13.8 37.1999 13.8 37.0999 13.8C36.7999 13.9 36.5999 13.7 36.3999 13.5C36.2999 13.4 36.0999 13.3 35.8999 13.3C35.1999 13.2 34.6999 12.9 34.0999 12.5C34.1999 12.3 33.9999 12.3 33.8999 12.3ZM2.0999 6.2C2.0999 6.6 2.1999 6.9 2.4999 7.1C2.5999 7.2 2.6999 7.3 2.7999 7.4C2.9999 7.9 3.5999 7.9 3.7999 8.3C3.9999 8.3 4.2999 8.4 4.4999 8.6C4.6999 8.8 4.9999 9 5.2999 9.1C5.7999 9.3 5.9999 9.8 6.2999 10.2C6.3999 10.3 6.2999 10.5 6.4999 10.5C6.7999 10.2 7.0999 9.9 7.3999 9.6C7.4999 9.5 7.5999 9.3 7.6999 9.1C7.7999 8.7 7.9999 8.3 8.3999 8C8.4999 7.9 8.6999 7.6 8.9999 7.3C9.0999 7.2 9.1999 7 9.0999 6.9C8.8999 6.4 8.7999 6 8.4999 5.6C7.7999 4.7 6.9999 3.9 6.2999 3C6.0999 2.8 5.8999 2.7 5.6999 2.8C5.6999 2.9 5.5999 3 5.5999 3C5.6999 3.5 5.6999 3.9 5.8999 4.4C5.9999 4.8 5.9999 5.1 5.8999 5.5C5.5999 5.8 5.3999 6.2 4.9999 6.2C4.6999 6.1 4.4999 6 4.1999 6C3.6999 6 3.2999 6 2.7999 5.9C2.4999 5.8 2.2999 5.9 2.0999 6.2ZM121.1 62.8C120.8 62.7 120.5 62.8 120.2 62.9C119.8 63.1 119.5 63.4 119 63.4C118.7 63.6 118.2 63.5 118 64C118.1 64.4 118.1 64.8 117.9 65.2C117.8 65.4 117.8 65.6 117.8 65.8C117.8 66.2 117.8 66.6 117.5 66.9C117.6 67.3 117.7 67.5 118 67.7C118.3 67.9 118.6 68 118.8 68.2C119 68.5 119.3 68.4 119.5 68.6C119.7 68.8 120.1 68.9 120.3 69C120.5 68.9 120.6 68.8 120.7 68.7C120.8 68.4 120.7 68.1 120.6 67.8C120.5 67.5 120.3 67.1 120.2 66.8C120.1 66.3 120 65.9 119.6 65.6C119.6 65.3 119.8 65 119.7 64.7C119.6 64.2 120.1 64 120.2 63.5C120.2 63.3 120.5 63.3 120.7 63.2C120.8 63.1 121.1 63.1 121.1 62.8ZM33.4999 12.5C33.3999 11.9 33.3999 11.9 32.8999 12C33.0999 12.1 33.1999 12.3 33.4999 12.5Z" fill="#D2AF49"/>
<path d="M111.1 60.1001C110.6 60.1001 110.1 60.1001 109.7 60.1001C109.3 60.1001 108.8 60.1001 108.4 60.2001C108 60.3001 107.6 60.0001 107.1 60.1001C106.7 60.2001 106.3 60.1001 105.7 60.2001C105.8 60.3001 105.8 60.5001 105.9 60.5001C106.2 60.7001 106.6 60.9001 106.9 61.0001C107.4 61.2001 107.9 61.4001 108.4 61.6001C109 61.8001 109.6 62.0001 110.2 62.0001C110.6 62.1001 110.9 62.1001 111.1 62.4001C111.2 62.5001 111.4 62.5001 111.5 62.6001C111.6 62.9001 111.8 63.1001 111.9 63.3001C111.8 63.5001 111.8 63.7001 111.7 63.9001C111.5 64.0001 111.2 64.1001 110.9 64.2001C110.3 63.8001 109.7 63.6001 109 63.6001C108.7 63.6001 108.5 63.4001 108.3 63.4001C108.1 63.3001 108 63.3001 107.8 63.2001C107.5 63.1001 107.1 63.0001 106.8 62.9001C106.4 62.7001 106 62.5001 105.5 62.5001C105.3 62.5001 105.1 62.4001 105 62.3001C104.8 62.0001 104.4 61.9001 104.1 61.8001C103.5 61.5001 103.1 60.9001 102.6 60.5001C102.3 60.3001 102.2 60.0001 102.1 59.7001C102 59.5001 101.9 59.3001 101.7 59.1001C101.8 58.4001 101.8 58.4001 102.3 57.9001C102.6 57.9001 102.9 57.9001 103.2 57.9001C103.8 57.8001 104.3 58.0001 104.8 58.1001C105.5 58.2001 106.2 58.4001 106.9 58.6001C107 58.6001 107 58.6001 107.1 58.6001C107.3 58.6001 107.5 58.2001 107.8 58.5001C108 58.7001 108.3 58.6001 108.5 58.7001C108.7 58.8001 109 58.9001 109.2 59.0001C109.8 59.0001 110.7 59.6001 111.1 60.1001Z" fill="#D2AF49"/>
<path d="M74.7999 39.0999C75.5999 38.8999 76.2999 38.9999 76.7999 39.5999C76.8999 39.8999 76.7999 40.2 76.6999 40.5C76.3999 40.9 75.7999 40.7 75.4999 41C75.3999 41 75.2999 41 75.1999 41C74.5999 40.8 73.9999 40.6 73.3999 40.5H73.2999C72.7999 39.9 72.0999 40.1 71.3999 39.9C71.2999 39.9 71.1999 39.7999 71.0999 39.7999C70.3999 39.7999 69.7999 39.5999 69.1999 39.2999C68.0999 39.3999 67.2999 38.5999 66.3999 38.0999C65.9999 37.8999 65.7999 37.6999 65.6999 37.2999C65.6999 37.0999 65.4999 37 65.3999 36.9C65.3999 36.8 65.4999 36.6 65.4999 36.4C65.4999 36.2 65.4999 36.1 65.5999 35.9C66.0999 35.3 66.7999 35.1999 67.4999 35.0999C67.6999 35.0999 67.7999 35 67.9999 35C68.5999 34.7 68.5999 34.7 69.3999 34.7C69.6999 34.7 70.4999 34.9 70.7999 35C70.9999 35.1 71.2999 35.1999 71.4999 35.2999C71.6999 35.3999 71.7999 35.4999 71.9999 35.5999C71.8999 35.7999 71.7999 35.7999 71.5999 35.7999C71.1999 35.7999 70.7999 35.9 70.3999 36C69.7999 36.2 69.0999 36.3999 68.3999 36.5999C68.1999 36.5999 68.0999 36.7 68.0999 36.9C68.0999 37.1 68.1999 37.2 68.3999 37.2C68.7999 37.2 69.1999 37.3999 69.4999 37.5999C69.5999 37.5999 69.5999 37.7 69.6999 37.7C70.4999 37.7 71.2999 38.1999 72.0999 38.0999C72.1999 38.0999 72.1999 38.0999 72.2999 38.0999C72.8999 38.5999 73.6999 38.4999 74.2999 38.7999C74.4999 38.8999 74.5999 38.9999 74.7999 39.0999Z" fill="#D2AF49"/>
<path d="M82.2998 43.9999C82.2998 43.7999 82.2998 43.6999 82.2998 43.4999C82.2998 43.0999 82.5998 42.7999 82.9998 42.9999C83.4998 43.1999 84.0998 43.3999 84.5998 43.5999C84.6998 43.5999 86.0998 44.6999 86.0998 44.6999C86.1998 44.9999 86.2998 45.2999 86.3998 45.5999C86.3998 45.7999 86.3998 45.9999 86.3998 46.0999C86.4998 46.2999 86.4998 46.4999 86.7998 46.4999C86.9998 46.5999 87.2998 46.6999 87.4998 46.7999C88.0998 47.1999 88.2998 47.2999 89.0998 47.3999C88.7998 46.7999 88.2998 46.3999 87.8998 45.7999C87.9998 45.5999 88.0998 45.6999 88.2998 45.6999C88.8998 45.8999 89.3998 45.9999 89.8998 46.2999C90.4998 46.5999 90.9998 46.9999 91.1998 47.6999C90.9998 48.2999 90.4998 48.6999 89.8998 48.9999C89.7998 49.0999 89.5998 49.0999 89.4998 49.0999C89.1998 49.0999 88.8998 49.0999 88.5998 49.0999C88.1998 49.0999 87.7998 48.9999 87.4998 48.6999C87.0998 48.3999 86.5998 48.2999 86.1998 48.0999C86.0998 48.0999 85.8998 47.9999 85.7998 47.8999C85.5998 47.4999 85.0998 47.2999 84.8998 46.8999C84.7998 46.6999 84.6998 46.5999 84.6998 46.2999C84.6998 45.5999 84.3998 44.9999 83.7998 44.7999C83.1998 44.7999 82.6998 44.3999 82.2998 43.9999Z" fill="#D2AF49"/>
<path d="M23.1998 15.3C23.3998 15.2 23.4998 15.1 23.6998 15C23.8998 14.9 24.0998 15 24.2998 15.1C24.5998 15.3 24.9998 15.4 25.3998 15.6C25.5998 15.7 25.8998 15.8 25.9998 15.9C26.2998 16.2 26.5998 16.5 27.0998 16.6C27.1998 16.6 27.2998 16.8 27.3998 16.8C27.8998 17.3 28.3998 17.9 28.9998 18.2C29.0998 18.3 29.1998 18.3 29.2998 18.4C29.3998 18.4 29.4998 18.4 29.4998 18.4C29.5998 18.4 29.5998 18.3 29.5998 18.2C29.5998 18.1 29.5998 17.9 29.4998 17.8C28.8998 17.2 28.6998 16.4 28.0998 15.8C27.8998 15.6 27.8998 15.4 27.6998 15.2C27.8998 15 28.0998 15.1 28.1998 15.2C28.7998 15.4 29.3998 15.6 29.7998 16.1C29.7998 16.2 29.8998 16.2 29.9998 16.2C30.3998 16.2 30.5998 16.4 30.6998 16.6C30.9998 17.1 31.2998 17.6 31.2998 18.2C31.2998 18.8 31.0998 19.3 30.5998 19.7C30.4998 19.8 30.3998 19.8 30.3998 19.9C30.1998 20.2 29.8998 20.3 29.4998 20.3C29.0998 20.3 28.5998 20.3 28.2998 19.9L28.1998 19.8C27.8998 19.7 27.5998 19.7 27.3998 19.3C27.2998 19 26.8998 18.8 26.5998 18.6C26.2998 18.4 26.1998 18 25.7998 18C25.5998 17.6 25.1998 17.5 24.8998 17.4C24.6998 17.3 24.4998 17.1 24.1998 17C24.0998 16.9 23.9998 16.8 23.7998 16.8C23.2998 16.5 23.0998 16 23.1998 15.3Z" fill="#D2AF49"/>
<path d="M24.5 14.7C24.2 14.5 24 14.4 23.8 14.3C23.8 14.3 23.6 14.3 23.6 14.2C23.5 13.7 23 13.6 22.7 13.4C22.4 13.1 22.1 12.9 21.7 12.7C21.2 12.4 20.7 12 20.5 11.4C20.4 11.2 20.2 11 20 10.7C20.2 10.2 20.5 9.70003 20.7 9.10003C21.1 9.00003 21.3 9.00002 21.6 8.90002C21.9 8.90002 22.2 8.90002 22.4 9.00002C22.9 9.10002 23.4 9.20002 23.7 9.70002C23.8 9.80002 23.9 9.80002 24 9.90002C24.5 10.2 25.5 11.3 26 11.9L25.9 12C25.6 11.9 25.2 11.9 24.9 11.8C24.4 11.6 23.9 11.4 23.4 11.3C23.3 11.3 23.1 11.2 23 11.3C23.1 11.4 23.1 11.4 23.2 11.5C23.3 11.6 23.5 11.6 23.6 11.7C23.7 11.7 23.8 11.8 23.8 11.9C24.2 12.7 25 13 25.4 13.7C25.6 14 25.4 14.5 25.1 14.6C24.8 14.6 24.6 14.6 24.5 14.7Z" fill="#D2AF49"/>
<path d="M38.8001 17.5999C38.7001 17.8999 38.7001 18.0999 38.9001 18.1999C39.3001 18.3999 39.7001 18.5999 40.1001 18.7999C40.5001 18.9999 40.8001 19.2999 41.3001 19.2999C41.9001 19.6999 42.5001 19.8999 43.1001 20.1999C43.3001 20.2999 43.4001 20.2999 43.6001 20.3999C44.6001 20.6999 45.3001 21.2999 45.8001 22.2999C45.9001 22.3999 45.9001 22.4999 45.9001 22.5999C45.9001 22.8999 45.8001 23.0999 45.6001 23.1999C45.4001 23.2999 45.1001 23.3999 44.9001 23.1999C44.3001 22.6999 43.7001 22.3999 43.0001 22.1999C42.8001 22.0999 42.6001 21.8999 42.3001 21.7999C41.4001 21.2999 40.4001 21.0999 39.5001 20.4999C39.2001 20.2999 38.9001 20.1999 38.6001 20.0999C38.3001 19.9999 38.1001 19.6999 37.8001 19.4999C37.4001 19.1999 37.2001 18.8999 37.0001 18.4999C36.8001 18.1999 36.9001 17.9999 37.1001 17.6999C37.3001 17.3999 37.5001 17.1999 37.9001 17.2999C38.2001 17.3999 38.4001 17.4999 38.8001 17.5999Z" fill="#D2AF49"/>
<path d="M42.6001 26.7C43.2001 26.6 43.8001 26.3 44.2001 27.1C44.2001 27.2 44.0001 27.4 44.1001 27.5C44.1001 28 43.9001 28.2 43.6001 28.4C43.2001 28.6 42.8001 28.6 42.4001 28.4C41.7001 28.1 41.1001 27.8 40.5001 27.3C40.3001 27.1 40.1001 26.9 39.8001 26.8C39.3001 26.3 38.6001 26 38.2001 25.5C38.0001 25.3 37.8001 25.1 37.7001 24.8C37.6001 24.7 37.6001 24.5 37.6001 24.3C37.6001 23.9 37.8001 23.5 38.0001 23.1C38.7001 23.1 39.3001 23.2 39.9001 23.6C39.9001 23.6 40.0001 23.6 40.1001 23.7C40.5001 24 40.8001 24.4 41.2001 24.7C41.0001 24.8 40.9001 24.9 40.7001 25C40.9001 25.3 41.1001 25.6 41.3001 25.7C41.7001 26 42.1001 26.4 42.6001 26.7Z" fill="#D2AF49"/>
<path d="M74.2001 45.7001C73.8001 46.0001 73.4001 45.9001 73.0001 45.9001C72.7001 45.9001 72.2001 45.9001 72.0001 45.5001C71.6001 45.5001 71.3001 45.2001 71.0001 45.0001C70.7001 44.8001 70.4001 44.7001 70.1001 44.6001C69.7001 44.4001 69.4001 44.2001 69.1001 44.0001C68.8001 43.8001 68.4001 43.8001 68.2001 43.6001C67.9001 43.3001 67.6001 43.5001 67.3001 43.4001C66.7001 43.2001 66.4001 42.9001 66.3001 42.4001C66.2001 41.9001 66.6001 41.4001 67.1001 41.5001C67.5001 41.6001 67.9001 41.6001 68.3001 41.8001C68.7001 42.0001 69.0001 42.1001 69.4001 42.3001C70.0001 42.6001 70.5001 42.9001 71.0001 43.3001C71.1001 43.4001 71.3001 43.4001 71.5001 43.5001C71.6001 43.5001 71.7001 43.5001 71.7001 43.6001C72.3001 44.2001 73.1001 44.4001 73.8001 44.7001C74.0001 44.8001 74.3001 45.1001 74.2001 45.7001Z" fill="#D2AF49"/>
<path d="M55.7998 27.9C55.7998 28.2 55.7998 28.6 55.5998 28.9C54.9998 29.1 54.3998 29.1 53.7998 28.8C53.6998 28.8 53.5998 28.7 53.5998 28.7C53.0998 28.8 52.7998 28.5 52.3998 28.3C52.1998 28.2 51.9998 28.1 51.7998 28.2C51.6998 28.2 51.5998 28.2 51.5998 28.1C51.3998 27.8 51.0998 27.8 50.8998 27.7C50.5998 27.6 50.2998 27.5 50.0998 27.2C49.9998 27.1 49.7998 27 49.6998 26.9C49.0998 26.5 49.0998 26.5 48.6998 25.9C48.4998 25.6 48.5998 25.2 48.8998 25.1C49.1998 25 49.3998 25 49.6998 25.1C50.1998 25.3 50.7998 25.6 51.2998 25.8C51.3998 25.8 51.4998 25.9 51.5998 26C51.8998 26.4 52.3998 26.5 52.7998 26.6C53.2998 26.7 53.7998 26.8 54.2998 27C54.4998 27 54.5998 27.1 54.7998 27.2C55.0998 27.5 55.4998 27.7 55.7998 27.9Z" fill="#D2AF49"/>
<path d="M54.9998 24.7C54.9998 24.8 54.8998 25 54.7998 25.2C54.4998 25.3 54.2998 25.3 53.9998 25.4C53.8998 25.4 53.6998 25.3999 53.5998 25.2999C53.2998 25.0999 52.8998 24.9999 52.4998 24.7999C52.1998 24.6999 51.8998 24.6 51.5998 24.4C51.0998 24.1999 50.6998 23.9 50.3998 23.6C49.9998 23.3 49.5998 23 49.2998 22.6C48.9998 22.2 48.5998 22.1 48.1998 21.7C48.0998 21.6 47.9998 21.4999 47.7998 21.2999C47.8998 21.2999 47.8998 21.2 47.8998 21.2C48.7998 21.3 49.7998 21.4 50.6998 21.7C50.8998 21.8 51.1998 21.9 51.3998 22.1C51.5998 22.2 51.7998 22.5 52.1998 22.5H52.2998C53.1998 23.3 54.3998 23.5 54.9998 24.7Z" fill="#D2AF49"/>
<path d="M103.6 55.1C103.2 55.3 102.9 55.3 102.7 55.2C102.5 55.1 102.3 55 102.2 54.9C101.7 54.6 101.2 54.3 100.7 54.1C100.2 53.9 99.8 53.5 99.3 53.3C99.2 53.3 99.2 53.2 99.1 53.1C98.7 52.6 98.3 52 97.7 51.7C97.6 51.7 97.6 51.6 97.5 51.4C97.6 51.4 97.8 51.3 97.9 51.4C98.6 51.5 99.3 51.5 99.9 51.9C100.1 52 100.4 52 100.6 52.1C101 52.4 101.5 52.5 101.9 52.8C102 52.9 102.1 52.9 102.1 52.9C102.7 52.9 103 53.4 103.5 53.5C103.6 53.5 103.8 53.8 103.8 53.9C103.6 54.4 103.6 54.8 103.6 55.1Z" fill="#D2AF49"/>
<path d="M78.7997 38.2C78.8997 38.2 79.0997 38.2 79.1997 38.2C80.5997 38.5 81.8997 38.9 83.1997 39.4C83.5997 39.6 83.9997 39.7999 84.3997 40.0999C84.6997 40.2999 84.7997 40.7 84.6997 41C84.6997 41.1 84.5997 41.2 84.5997 41.2C84.2997 41.4 83.9997 41.6 83.5997 41.5C83.4997 41.5 83.4997 41.5 83.3997 41.5C83.1997 41 82.4997 41.1999 82.1997 40.7999C82.0997 40.6999 81.8997 40.6999 81.6997 40.5999C81.5997 40.4999 81.3997 40.3999 81.2997 40.2999C81.1997 40.0999 81.0997 40 80.7997 40H80.6997C80.0997 39.4 79.2997 38.9 78.6997 38.2C78.7997 38.3 78.7997 38.2 78.7997 38.2Z" fill="#D2AF49"/>
<path d="M62.3001 28.3C61.5001 28.4 60.8001 28 60.1001 27.9C59.4001 27.8 58.8001 27.4 58.1001 27.2C58.1001 26.9 57.9001 26.5 58.1001 26.1C58.7001 26 59.2001 25.8 59.7001 26.4C60.2001 26.6 60.6001 26.9 61.0001 27.3C61.3001 27.6 61.6001 27.7 61.9001 28C62.1001 28 62.2001 28.2 62.3001 28.3Z" fill="#D2AF49"/>
<path d="M81.7999 46.5C81.5999 46.9 81.1999 47 80.7999 47.1C80.4999 47.2 80.1999 47 79.9999 46.8C79.3999 46.2 78.7999 45.6 78.0999 45C77.9999 44.9 77.9999 44.9 77.8999 44.7C77.9999 44.7 78.0999 44.6 78.1999 44.6C78.6999 44.8 79.1999 45 79.6999 45.1C79.9999 45.2 80.2999 45.5 80.6999 45.2C81.1999 45.8 81.4999 46.1 81.7999 46.5Z" fill="#D2AF49"/>
<path d="M106.5 65C106 64.9 105.8 64.9001 105.6 64.8001C104.9 64.6001 104.2 64.6001 103.6 64.4001C103.2 64.3001 102.9 64.1 102.7 63.8C102.6 63.3 102.9 63 103.2 62.8C103.6 62.9 104 62.9 104.3 63.3C104.4 63.4 104.5 63.4 104.7 63.5C105 63.6 105.2 63.8 105.5 64C105.7 64.4 106 64.7 106.5 65Z" fill="#D2AF49"/>
<path d="M94.7001 53.3C94.1001 53.3 93.5001 53.2 93.1001 52.7C92.8001 52.3 92.4001 52.1 92.1001 51.8C92.0001 51.7 91.8001 51.6 91.6001 51.4C92.0001 51.2 92.3001 51.4 92.6001 51.5C92.9001 51.5 93.2001 51.6 93.5001 51.7C93.8001 51.8 94.1001 52 94.5001 52.3C94.7001 52.5 94.9001 52.9 94.7001 53.3Z" fill="#D2AF49"/>
<path d="M34.2998 20.9C35.0998 21.2 35.8998 21.5 36.6998 21.9C36.7998 22.1 36.8998 22.4 36.9998 22.7C36.4998 23.2 36.3998 23.2 35.8998 22.8C35.2998 22.3 34.6998 21.7 34.2998 20.9Z" fill="#D2AF49"/>
<path d="M68.0998 31.7999C68.1998 31.9999 68.3998 32.2999 68.4998 32.5999C68.3998 32.6999 68.2998 32.6999 68.0998 32.7999C67.9998 32.8999 67.7998 32.8999 67.6998 32.9999C67.1998 32.6999 66.5998 32.4999 66.1998 31.9999C65.9998 31.7999 65.6998 31.6999 65.2998 31.4999C66.3998 31.2999 67.1998 31.4999 68.0998 31.7999Z" fill="#D2AF49"/>
<path d="M95.9998 58.4C95.2998 58.3 94.5998 58.2 93.9998 58.1C93.7998 57.9 93.4998 57.7 93.2998 57.5C93.6998 56.9 93.7998 56.9 94.3998 57.1C94.5998 57.2 94.7998 57.3 94.9998 57.4C95.3998 57.7 95.7998 58 96.1998 58.3C95.9998 58.3 95.9998 58.4 95.9998 58.4Z" fill="#D2AF49"/>
<path d="M48.6001 30.6C49.3001 30.8 49.9001 30.9 50.4001 31.2C50.7001 31.3 50.9001 31.5 51.1001 31.7C51.4001 31.9 51.3001 32.3 51.0001 32.4C50.7001 32.5 50.5001 32.5 50.2001 32.3C49.6001 31.8 49.1001 31.3 48.6001 30.6Z" fill="#D2AF49"/>
<path d="M15.5999 10.2C14.8999 10.3 14.2999 10.4 13.7999 10.5C13.3999 10.6 12.8999 10.2 12.8999 9.89995C12.8999 9.79995 12.9999 9.59995 13.0999 9.59995C13.4999 9.39995 13.9999 9.39995 14.3999 9.59995C14.6999 9.69995 15.0999 9.89995 15.5999 10.2Z" fill="#D2AF49"/>
<path d="M77 36.2C77.7 36.3 78.4 36.1999 78.8 36.7999C78.7 36.8999 78.7 37 78.6 37C78.4 37 78.2 37.1 78.1 37C77.7 36.7 77.4 36.4 77 36.2Z" fill="#D2AF49"/>
<path d="M59.1997 33.2C59.9997 33.1 60.3997 33.3 60.6997 33.9C60.3997 34.1 60.0997 34.1 59.8997 33.9C59.6997 33.7 59.3997 33.5 59.1997 33.2Z" fill="#D2AF49"/>
<path d="M33.5 17.1C33.9 17.1 34.2 17.2 34.4 17.2C34.5 17.2 34.6 17.3 34.6 17.7C34.1 17.9 33.9 17.5 33.5 17.1Z" fill="#D2AF49"/>
</g>
<defs>
<clipPath id="clip0">
<rect width="123.9" height="75.6" fill="white"/>
</clipPath>
</defs>
</svg>
