<svg width="92" height="91" viewBox="0 0 92 91" fill="none" xmlns="http://www.w3.org/2000/svg">
<path d="M30.3738 29.9683C29.8686 29.3167 29.2901 29.2434 28.7226 28.9469C28.5615 28.5808 28.5322 28.2659 28.3198 28.0316C28.3198 28.0316 28.2795 27.9401 28.2393 27.8485C28.3418 27.5849 28.0891 27.2591 28.1916 26.9955C28.2941 26.7318 28.3564 26.3767 28.5907 26.1643C28.5907 26.1643 28.6822 26.1241 28.6419 26.0325C28.7152 25.4541 29.1728 25.2527 29.5902 24.9598C29.733 24.7877 29.8758 24.6156 30.0588 24.535C30.2016 24.363 30.4762 24.2421 30.6592 24.1616C30.8423 24.081 31.0254 24.0005 31.1682 23.8284C31.5343 23.6673 31.9004 23.5062 32.2153 23.4769C32.6217 23.4073 32.9365 23.378 33.3027 23.2169C33.3027 23.2169 33.3942 23.1766 33.4857 23.1363C33.4564 22.8215 33.5186 22.4663 33.4893 22.1515C33.3612 21.1153 33.6687 20.3245 34.1593 19.4531C34.2618 19.1895 34.8622 18.816 35.2283 18.6549C35.4114 18.5744 35.5029 18.5341 35.6457 18.362C35.7372 18.3217 35.8398 18.0581 35.9716 18.1094C36.5098 18.091 36.7551 17.6553 37.0809 17.4027C37.0809 17.4027 37.0809 17.4027 37.1724 17.3624C37.447 17.2416 37.6813 17.0292 37.7838 16.7656C37.9779 16.4617 38.1207 16.2896 38.1829 15.9345L38.2342 15.8027C38.6222 15.1949 38.7064 14.3931 39.0945 13.7853C39.1457 13.6535 39.197 13.5217 39.3398 13.3496C39.4935 12.9542 39.7791 12.61 39.9731 12.3061C40.1159 12.1341 40.2587 11.962 40.2697 11.7386L40.3209 11.6068C40.7383 11.3139 40.8115 10.7354 41.3607 10.4938C41.6353 10.373 41.9099 10.2521 42.0527 10.08C42.2357 9.99948 42.3785 9.8274 42.5616 9.74684C42.6531 9.70657 42.8362 9.62601 42.9277 9.58574C43.7002 9.35506 44.6046 9.17563 45.4064 9.25982C45.6297 9.27079 45.9446 9.24149 46.0654 9.51609C46.1057 9.60762 46.2887 9.52706 46.5121 9.53804C46.7244 9.77236 46.9368 10.0067 47.2919 10.0689C47.4237 10.1202 47.5043 10.3032 47.5446 10.3947C47.746 10.8524 48.0389 11.2698 48.3318 11.6872C48.3721 11.7787 48.4123 11.8702 48.4526 11.9617C48.5332 12.1448 48.5734 12.2363 48.654 12.4194C48.6943 12.5109 48.7748 12.694 48.7748 12.694C48.7126 13.0491 48.8737 13.4152 49.0861 13.6496C49.3387 13.9754 49.4595 14.25 49.3058 14.6454C49.6097 14.8395 49.6097 14.8395 49.7708 15.2056C49.811 15.2971 49.811 15.2971 49.8513 15.3886C49.8513 15.3886 49.8513 15.3886 49.9831 15.4399C50.0747 15.3996 50.1259 15.2678 50.0856 15.1763C50.1588 14.5978 50.5359 14.2134 50.5176 13.6752L50.5689 13.5433C50.8947 13.2907 51.0997 12.7635 51.5171 12.4706C51.5171 12.4706 51.5171 12.4706 51.6086 12.4303C52.0882 11.7822 52.729 11.5003 53.3697 11.2184C53.8273 11.017 54.2447 10.7241 54.7316 10.8376C54.8635 10.8888 55.0465 10.8083 55.138 10.768C55.4529 10.7387 55.819 10.5776 56.1229 10.7716C56.1229 10.7716 56.2145 10.7313 56.306 10.6911C56.5293 10.702 56.8442 10.6727 56.976 10.724C57.4629 10.8375 57.9096 10.8594 58.3563 10.8814C58.5796 10.8924 58.8432 10.9949 59.0373 10.691C59.0373 10.691 59.1288 10.6507 59.2606 10.702C59.8794 10.8667 60.4688 10.7166 61.0766 11.1046C61.2084 11.1559 61.472 11.2584 61.6038 11.3097C62.0908 11.4231 62.435 11.7087 62.8707 11.954C63.3064 12.1993 63.6395 12.7082 64.0752 12.9535L64.207 13.0047C64.4487 13.5539 64.8332 13.931 65.0748 14.4802C65.1956 14.7548 65.2762 14.9379 65.397 15.2124C65.5984 15.6701 65.9828 16.0472 66.5613 16.1204C67.2204 16.3767 67.9709 16.5927 68.5787 16.9807C68.8423 17.0833 69.095 17.4091 69.3073 17.6434C69.3879 17.8265 69.56 17.9693 69.732 18.112C69.7723 18.2036 69.9041 18.2548 69.9444 18.3464C70.003 18.9761 70.6511 19.4557 70.6181 20.1257C70.5669 20.2575 70.739 20.4003 70.7792 20.4918C70.8598 20.6749 70.8891 20.9898 70.9696 21.1728C71.0392 21.5792 71.1088 21.9856 71.3614 22.3115C71.6141 22.6373 71.7239 23.1352 71.885 23.5014C71.9253 23.5929 71.9656 23.6844 71.9656 23.6844C71.8118 24.0798 72.0132 24.5375 71.9912 24.9842C72.0315 25.0757 71.94 25.116 71.9803 25.2075C71.7459 25.4199 71.735 25.6432 71.7643 25.9581C71.8045 26.0496 71.6618 26.2217 71.6618 26.2217C71.314 26.921 70.9662 27.6203 70.5268 28.3599C70.384 28.532 70.3731 28.7553 70.19 28.8359C70.0985 28.8761 70.0472 29.0079 70.0472 29.0079C69.8935 29.4034 69.6591 29.6157 69.293 29.7768C69.1905 30.0404 69.088 30.3041 68.9855 30.5677C69.1576 30.7105 69.2381 30.8935 69.4102 31.0363C69.6629 31.3621 69.8752 31.5965 69.8533 32.0431C69.8423 32.2665 69.9228 32.4495 70.0949 32.5923L70.1755 32.7754C70.073 33.039 70.2853 33.2733 70.2744 33.4966C70.2817 34.2582 70.7064 34.7268 71.2227 35.1552C71.435 35.3895 71.6071 35.5323 71.8195 35.7666C71.9916 35.9094 72.2039 36.1437 72.4675 36.2462C72.7311 36.3487 72.9032 36.4915 72.9838 36.6745C73.2364 37.0004 73.5806 37.2859 73.8332 37.6118C73.9247 37.5715 74.0566 37.6228 74.1481 37.5825C74.4337 37.2383 74.8291 37.3921 75.0634 37.1797C75.1549 37.1395 75.3783 37.1504 75.4698 37.1102C75.6931 37.1211 75.8762 37.0406 76.0995 37.0516C76.191 37.0113 76.2826 36.971 76.4144 37.0223C77.0331 37.187 77.7032 37.2199 78.3622 37.4762C78.5343 37.619 78.6551 37.8936 78.9297 37.7727C79.153 37.7837 79.3251 37.9265 79.4972 38.0693C80.2368 38.5086 80.8336 39.12 81.0643 39.8925C81.2766 40.1269 81.3059 40.4417 81.3352 40.7566C81.3243 40.9799 81.5366 41.2142 81.6172 41.3973C81.6977 41.5804 81.5952 41.844 81.5842 42.0673C81.7051 42.3419 81.7856 42.525 81.998 42.7593C82.2506 43.0851 82.5545 43.2792 82.8071 43.605C83.0598 43.9309 83.4552 44.0846 83.7078 44.4105C83.9202 44.6448 84.1326 44.8791 84.3449 45.1134C84.5975 45.4393 84.7184 45.7138 84.8795 46.08C84.96 46.263 84.9491 46.4864 85.2127 46.5889L85.2529 46.6804C85.1504 46.944 85.2713 47.2186 85.3921 47.4932C85.1578 47.7056 85.3701 47.9399 85.4507 48.1229C85.4397 48.3463 85.2969 48.5184 85.2457 48.6502C85.1944 48.782 85.1944 48.782 85.1432 48.9138C85.1505 49.6753 85.0993 49.8071 84.7624 50.2831C84.5794 50.3636 84.5684 50.587 84.5172 50.7188C84.4952 51.1655 84.433 51.5206 84.1877 51.9563C84.1364 52.0881 84.1254 52.3115 84.1657 52.403C84.3671 52.8606 84.3049 53.2158 84.1914 53.7027C84.1804 53.9261 84.1292 54.0579 84.25 54.3325C84.3708 54.6071 84.2683 54.8707 84.2573 55.094C84.1841 55.6725 83.9791 56.1997 83.8144 56.8185C83.5581 57.4775 83.2616 58.045 82.8735 58.6528C82.771 58.9164 82.5367 59.1288 82.3023 59.3411C82.0277 59.462 82.0168 59.6853 81.874 59.8574C81.4969 60.2418 81.1601 60.7178 80.6914 61.1425C80.4571 61.3549 80.2228 61.5672 80.0288 61.8711C79.9775 62.0029 79.7945 62.0835 79.7029 62.1238C79.6114 62.164 79.5199 62.2043 79.5199 62.2043C79.183 62.6803 78.5936 62.8304 78.0444 63.0721C77.4037 63.354 76.8252 63.2808 76.298 63.0758C75.9026 62.922 75.4156 62.8085 75.0605 62.7463C74.8445 63.4969 74.6285 64.2474 74.3722 64.9065C74.1672 65.4337 73.9622 65.9609 73.7974 66.5797C73.5924 67.1069 73.3471 67.5426 73.0103 68.0186C72.8273 68.0991 72.6845 68.2712 72.7138 68.5861C72.2451 69.0108 72.0291 69.7614 71.2969 70.0836C71.1138 70.1641 70.9711 70.3362 70.8283 70.5083C70.6855 70.6804 70.5427 70.8525 70.3999 71.0246C69.9716 71.5408 69.4334 71.5591 68.8439 71.7093C68.7524 71.7495 68.6206 71.6983 68.5693 71.8301C68.2435 72.0827 68.0201 72.0717 67.6247 71.918C67.4929 71.8667 67.3098 71.9473 67.178 71.896C66.4677 71.7716 65.8087 71.5153 65.2522 70.9954C65.1204 70.9442 65.0398 70.7611 64.9483 70.8014C64.4101 70.8197 64.0147 70.6659 63.568 70.644C63.1213 70.622 62.6344 70.5085 62.3305 70.3145C62.1987 70.2632 62.0669 70.212 62.0669 70.212C61.9351 70.1607 61.8435 70.201 61.8033 70.1095C61.6422 69.7434 61.2065 69.4981 60.9026 69.304C60.7305 69.1612 60.6499 68.9782 60.6096 68.8867C60.3973 68.6523 60.2765 68.3778 60.3387 68.0226C60.2984 67.9311 60.2581 67.8395 60.2179 67.748C59.9542 67.6455 59.9652 67.4222 59.9359 67.1073C59.9469 66.884 60.0494 66.6204 60.0201 66.3055C59.9798 66.214 60.0714 66.1737 60.1226 66.0419C60.1336 65.8185 60.3167 65.738 60.2764 65.6465C60.2068 65.2401 60.5327 64.9874 60.5034 64.6726C60.5143 64.4492 60.6571 64.2771 60.7084 64.1453C60.7596 64.0135 60.8109 63.8817 60.9024 63.8414C61.1367 63.6291 61.371 63.4167 61.3417 63.1018C61.4845 62.9298 61.5358 62.798 61.5467 62.5746C61.598 62.4428 61.6493 62.311 61.792 62.1389C61.5394 61.8131 61.3161 61.8021 61.0525 61.6996C60.3824 61.6667 59.7637 61.5019 59.1046 61.2457L58.9728 61.1944C58.6067 61.3555 58.2626 61.0699 57.8562 61.1395C57.6328 61.1285 57.3692 61.026 57.1459 61.015C56.6589 60.9016 56.172 60.7881 55.685 60.6746C55.3189 60.8357 54.9638 60.7735 54.6196 60.4879C54.6196 60.4879 54.4878 60.4366 54.3962 60.4769C53.4626 60.3415 52.6608 60.2573 51.7272 60.1219C51.5038 60.1109 51.1487 60.0487 50.8851 59.9461C50.6215 59.8436 50.3469 59.9645 49.9917 59.9022C49.6769 59.9315 49.373 59.7375 49.0581 59.7668C48.7432 59.7961 48.4284 59.8254 48.205 59.8144C47.8902 59.8437 47.6961 60.1476 47.3922 59.9536C47.1067 60.2977 46.6087 60.4076 46.2426 60.5687C46.1511 60.609 45.968 60.6895 45.8765 60.7298C45.6532 60.7188 45.4701 60.7994 45.2358 61.0117C45.1845 61.1435 45.0015 61.2241 44.8697 61.1728C44.4633 61.2424 44.1374 61.4951 43.7713 61.6562C43.6798 61.6964 43.4967 61.777 43.4052 61.8173C42.8157 61.9674 42.4386 62.3518 41.8894 62.5935C41.289 62.967 40.7801 63.3001 40.1394 63.5821C40.0479 63.6224 40.0479 63.6224 39.9563 63.6626C39.7733 63.7432 39.8428 64.1496 39.4877 64.0874C39.2644 64.0764 39.1619 64.34 39.0191 64.5121C38.8763 64.6842 38.5614 64.7135 38.2868 64.8343C38.1953 64.8746 38.1038 64.9148 38.0122 64.9551C37.6754 65.4311 37.1775 65.5409 36.7601 65.8339C36.5771 65.9144 36.3427 66.1268 36.1597 66.2073C35.9766 66.2879 35.7936 66.3684 35.7826 66.5918C35.7313 66.7236 35.5483 66.8041 35.3652 66.8847C34.9991 67.0458 34.7648 67.2581 34.4389 67.5108C34.4389 67.5108 34.4389 67.5108 34.3474 67.5511C34.1131 67.7634 33.8897 67.7524 33.6152 67.8733C33.4724 68.0454 33.3296 68.2174 33.055 68.3383C32.8719 68.4188 32.7291 68.5909 32.5864 68.763C32.1177 69.1877 31.477 69.4696 30.9571 70.0262C30.8144 70.1983 30.6313 70.2788 30.3567 70.3996C29.9906 70.5607 29.5732 70.8537 29.2876 71.1978L29.2364 71.3296C28.819 71.6225 28.4016 71.9155 27.9843 72.2084C27.7499 72.4207 27.4754 72.5416 27.241 72.7539C26.7321 73.0871 26.2635 73.5118 25.5825 73.7022C25.491 73.7425 25.3994 73.7828 25.2164 73.8633C25.0333 73.9439 24.8905 74.116 24.799 74.1562C24.788 74.3796 24.9198 74.4308 24.9601 74.5224C25.0004 74.6139 25.0407 74.7054 24.9894 74.8372C24.9784 75.0606 24.8357 75.2327 24.5611 75.3535C24.378 75.434 24.2865 75.4743 24.1034 75.5549C23.9716 75.5036 23.9313 75.4121 23.7995 75.3608C23.6275 75.218 23.3638 75.1155 23.3748 74.8922C22.9391 74.6469 22.9208 74.1087 22.5766 73.8231C22.4045 73.6804 22.4155 73.457 22.2434 73.3142C22.1226 73.0396 22.0421 72.8566 21.7784 72.7541C21.5148 72.6516 21.5258 72.4282 21.405 72.1536C21.3244 71.9706 21.2439 71.7875 21.2036 71.696C20.6873 71.2676 20.3542 70.7587 20.021 70.2498C19.9001 69.9752 19.728 69.8324 19.5157 69.5981C19.2631 69.2723 18.9592 69.0783 18.8896 68.6719C18.8493 68.5803 18.6772 68.4375 18.637 68.346C18.5051 68.2948 18.3733 68.2435 18.3331 68.152C18.0401 67.7346 17.6045 67.4893 17.4031 67.0317C17.1102 66.6143 16.8172 66.1969 16.6159 65.7393C16.495 65.4647 16.2827 65.2303 16.03 64.9045C15.9898 64.813 15.9898 64.813 15.9495 64.7214C16.1325 64.6409 16.3046 64.7837 16.4364 64.8349C16.5682 64.8862 16.7 64.9374 16.8319 64.9887C17.0039 65.1315 17.176 65.2743 17.3994 65.2852C17.9778 65.3584 18.3623 65.7355 18.7064 66.0211C18.9188 66.2554 19.0396 66.53 19.2923 66.8559C19.3838 66.8156 19.4241 66.9071 19.6474 66.9181C19.7682 67.1927 19.9293 67.5588 20.3248 67.7126C20.6287 67.9066 20.8813 68.2324 21.1339 68.5583C21.2145 68.7414 21.3866 68.8841 21.5989 69.1184C21.9834 69.4955 22.3166 70.0045 22.6095 70.4218C22.7193 70.9198 23.0635 71.2053 23.3161 71.5312C23.3967 71.7142 23.7518 71.7765 23.8324 71.9595C23.9935 72.3256 24.2059 72.56 24.3267 72.8345C24.4475 73.1091 24.6599 73.3435 24.9638 73.5375C25.015 73.4057 25.1065 73.3654 25.2493 73.1933C25.3921 73.0212 25.4946 72.7576 25.7289 72.5453C26.0145 72.2011 26.1683 71.8057 26.6259 71.6043C26.7797 71.2089 27.0543 71.088 27.4204 70.9269C27.7865 70.7658 28.0318 70.3301 28.3576 70.0775C28.8263 69.6528 29.3352 69.3196 29.8441 68.9864C30.4042 68.5214 30.9534 68.2797 31.4733 67.7232C31.7076 67.5109 31.7992 67.4706 32.2971 67.3607C32.4911 67.0568 32.5936 66.7932 33 66.7237C33.0916 66.6834 33.1428 66.5516 33.2343 66.5113C33.6517 66.2184 34.1606 65.8852 34.578 65.5923C34.9038 65.3396 35.3102 65.2701 35.464 64.8746C35.464 64.8746 35.464 64.8746 35.5555 64.8344C35.9619 64.7648 36.2072 64.3291 36.5733 64.168C36.9395 64.0069 37.2653 63.7542 37.5912 63.5016C37.7742 63.4211 37.917 63.249 37.9683 63.1172C38.4881 62.5606 39.1801 62.1469 39.8721 61.7332C40.1467 61.6123 40.381 61.4 40.6958 61.3707C40.7874 61.3304 40.7874 61.3304 40.8789 61.2901C41.0729 60.9862 41.4793 60.9167 41.7136 60.7043C41.8967 60.6237 42.1713 60.5029 42.3141 60.3308C42.3653 60.199 42.5484 60.1185 42.6802 60.1697C42.9951 60.1404 43.2294 59.9281 43.4637 59.7157C43.698 59.5033 43.8811 59.4228 44.1557 59.302C44.3387 59.2214 44.4303 59.1811 44.573 59.009C44.8074 58.7967 45.082 58.6759 45.3968 58.6466C45.7117 58.6173 46.0266 58.588 46.3927 58.4269C46.6673 58.306 47.0737 58.2364 47.3885 58.2071C47.8462 58.0058 48.2929 58.0277 48.7505 57.8263C48.842 57.7861 48.9738 57.8373 49.0654 57.797C49.1569 57.7568 49.1972 57.8483 49.2887 57.808C49.8269 57.7897 50.3651 57.7714 50.8521 57.8849C51.339 57.9983 51.9175 58.0715 52.3642 58.0935C52.496 58.1448 52.5875 58.1045 52.679 58.0642C52.8621 57.9836 53.1257 58.0862 53.3491 58.0971C53.4809 58.1484 53.7445 58.2509 53.9275 58.1703C54.2827 58.2326 54.6378 58.2948 55.0333 58.4486C55.4287 58.6023 55.8351 58.5328 56.1902 58.595C56.6772 58.7085 57.2154 58.6901 57.7426 58.8952C58.3614 59.0599 59.0716 59.1844 59.6501 59.2576C60.0968 59.2795 60.4519 59.3418 60.8474 59.4955C61.2428 59.6493 61.5576 59.62 61.9128 59.6822C61.964 59.5504 62.1068 59.3783 62.1984 59.338C61.997 58.8804 61.7041 58.463 61.2684 58.2177C61.056 57.9834 60.8436 57.7491 60.6313 57.5148C60.5507 57.3317 60.4189 57.2805 60.3787 57.1889C59.932 57.167 59.5768 57.1048 59.2217 57.0425C58.5517 57.0096 57.8414 56.8851 57.1714 56.8522C56.948 56.8412 56.7247 56.8302 56.5014 56.8193C56.0547 56.7973 55.5165 56.8156 55.0808 56.5703C54.949 56.5191 54.8575 56.5594 54.8575 56.5594C54.8575 56.5594 54.8575 56.5594 54.7659 56.5996C54.3595 56.6692 54.0154 56.3836 53.5687 56.3617C53.2538 56.391 52.8474 56.4606 52.452 56.3068C52.0566 56.153 51.5696 56.0396 51.123 56.0176C50.9911 55.9664 50.7678 55.9554 50.7275 55.8638C50.2516 55.527 49.6841 55.2305 49.0543 55.2891C48.9225 55.2378 48.831 55.2781 48.6076 55.2671C48.4758 55.2159 48.3038 55.0731 48.2122 55.1134C47.7546 55.3147 47.2786 54.9779 46.8209 55.1793C46.4145 55.2489 46.0997 55.2782 45.7738 55.5308C45.5395 55.7432 45.2759 55.6407 45.0416 55.853C44.8988 56.0251 44.5839 56.0544 44.3094 56.1752C43.9432 56.3363 43.4966 56.3144 43.1707 56.567C42.7753 56.4133 42.4385 56.8892 41.9515 56.7758C41.8197 56.7245 41.7685 56.8563 41.6769 56.8966C41.5854 56.9369 41.4939 56.9771 41.4023 57.0174C41.0069 56.8636 40.6408 57.0248 40.1941 57.0028C39.9708 56.9918 39.7987 56.849 39.6669 56.7978C39.5351 56.7465 39.4545 56.5635 39.2824 56.4207L39.2422 56.3292C38.9712 55.4651 39.0847 54.9782 39.7071 54.158C39.8499 53.9859 39.9524 53.7223 40.1464 53.4184C40.432 53.0743 40.7578 52.8216 41.0837 52.569C41.6841 52.1955 42.2846 51.8221 42.885 51.4486L42.9765 51.4083C43.1193 51.2362 43.1303 51.0129 42.9985 50.9616C42.9582 50.8701 42.8667 50.9104 42.8264 50.8189C42.5225 50.6248 42.2699 50.299 42.1088 49.9329C42.0282 49.7498 41.9476 49.5667 41.7756 49.4239C41.5925 49.5045 41.3692 49.4935 41.2776 49.5338C41.003 49.6546 40.7285 49.7755 40.3221 49.845C40.2305 49.8853 40.0987 49.8341 40.0475 49.9659C39.6301 50.2588 39.2237 50.3284 38.777 50.3064C38.2388 50.3247 37.7006 50.343 37.1331 50.0465C37.0013 49.9952 36.8695 49.944 36.778 49.9843C36.291 49.8708 36.1299 49.5047 35.8773 49.1788L35.837 49.0873C35.9505 48.6003 35.6173 48.0914 36.0456 47.5752C36.1372 47.5349 36.0969 47.4434 36.1884 47.4031C36.1701 46.8649 36.5472 46.4804 36.7925 46.0447C36.884 46.0045 36.8437 45.9129 36.895 45.7811C36.8657 45.4663 36.9682 45.2027 37.2025 44.9903C37.3453 44.8182 37.4881 44.6461 37.4991 44.4228C37.4588 44.3313 37.51 44.1994 37.5613 44.0676C37.7956 43.8553 37.8578 43.5001 38.0116 43.1047C38.0629 42.9729 38.2056 42.8008 38.2569 42.669C38.3484 42.6287 38.3997 42.4969 38.3997 42.4969C38.4839 41.6951 38.8719 41.0873 39.2197 40.388C39.5163 39.8205 39.681 39.2018 39.9373 38.5427C39.8055 38.4915 39.6737 38.4402 39.5419 38.389C39.1867 38.3267 38.9231 38.2242 38.579 37.9387C38.2751 37.7446 38.0114 37.6421 37.6563 37.5799L37.5648 37.6202C37.4 38.2389 37.1035 38.8064 36.8069 39.3739C36.5617 39.8096 36.3566 40.3369 36.1516 40.8641C36.0491 41.1277 36.0381 41.351 35.7635 41.4719C35.672 41.5121 35.7123 41.6037 35.6208 41.6439C35.4048 42.3945 34.8739 43.1744 34.5664 43.9652C34.4126 44.3606 34.2186 44.6645 33.9843 44.8769C33.933 45.0087 33.7902 45.1808 33.739 45.3126C33.4937 45.7483 33.3399 46.1437 33.0544 46.4879C32.82 46.7002 32.7175 46.9638 32.6553 47.319C32.5931 47.6741 32.1757 47.967 31.9817 48.2709C31.8389 48.443 31.6961 48.6151 31.6448 48.7469C31.4911 49.1423 31.3373 49.5377 30.9712 49.6989C30.8797 49.7391 30.8284 49.8709 30.7772 50.0027C30.5209 50.6618 30.012 50.995 29.7154 51.5625C29.6642 51.6943 29.4811 51.7748 29.4299 51.9066C29.0528 52.2911 28.7672 52.6352 28.4304 53.1112C28.2363 53.4151 27.9508 53.7593 27.7165 53.9716C27.2478 54.3964 26.911 54.8723 26.5742 55.3483C26.6035 55.6632 26.2886 55.6925 26.1458 55.8646C25.6259 56.4211 25.1463 57.0691 24.6265 57.6257C24.4837 57.7977 24.3409 57.9698 24.0663 58.0907C23.8832 58.1712 23.821 58.5264 23.5061 58.5557C23.5061 58.5557 23.4146 58.5959 23.3634 58.7277C22.924 59.4673 22.1808 60.0129 21.5694 60.6097C21.4779 60.65 21.3863 60.6902 21.3863 60.6902C21.2326 61.0857 20.8665 61.2468 20.5406 61.4994C20.4491 61.5397 20.3978 61.6715 20.3466 61.8033C20.2953 61.9351 20.2441 62.0669 20.0207 62.0559C19.7974 62.0449 19.6546 62.217 19.5521 62.4806C19.5008 62.6125 19.5411 62.704 19.4496 62.7443C18.9919 62.9456 18.8382 63.3411 18.5123 63.5937C18.278 63.8061 18.084 64.1099 17.6776 64.1795C17.4945 64.2601 17.3517 64.4322 17.2602 64.4724C16.9966 64.3699 16.6414 64.3077 16.4291 64.0734C16.462 63.4034 16.7073 62.9677 17.1759 62.543C17.5933 62.25 18.0619 61.8253 18.3072 61.3896C18.6331 61.137 18.9992 60.9759 19.2335 60.7635C19.4678 60.5512 19.5703 60.2875 19.9767 60.218C20.0683 60.1777 20.028 60.0862 20.0792 59.9544C20.2733 59.6505 20.4673 59.3466 20.8334 59.1855C20.925 59.1452 21.0678 58.9731 21.119 58.8413C21.4558 58.3653 21.7927 57.8894 22.3821 57.7392C22.5871 57.212 23.0558 56.7873 23.4329 56.4028C23.7477 56.3735 23.6781 55.9671 23.9527 55.8463C24.0955 55.6742 24.3701 55.5534 24.4726 55.2898C24.7179 54.8541 25.0035 54.5099 25.289 54.1658C25.4831 53.8619 25.7174 53.6495 25.9114 53.3456C26.1055 53.0417 26.4313 52.7891 26.6656 52.5767C26.8084 52.4046 27.1855 52.0202 27.2368 51.8884C27.3393 51.6248 27.5736 51.4124 27.8482 51.2916C28.1228 51.1708 28.174 51.039 28.2765 50.7753C28.4706 50.4715 28.5731 50.2078 28.7671 49.9039C28.8586 49.8637 28.8184 49.7721 28.9099 49.7319C29.4188 49.3987 29.6238 48.8714 29.9606 48.3955C30.2975 47.9195 30.5428 47.4838 30.8796 47.0078C31.0224 46.8357 31.0736 46.7039 31.2164 46.5319C31.2677 46.4001 31.4104 46.228 31.4617 46.0962C31.5642 45.8325 31.5752 45.6092 31.8095 45.3968C31.9523 45.2248 32.0951 45.0527 32.106 44.8293C32.1683 44.4742 32.3623 44.1703 32.6479 43.8261C32.9334 43.482 33.0872 43.0866 33.3325 42.6509C33.5778 42.2152 33.64 41.86 34.0171 41.4756C34.1087 41.4353 34.0684 41.3438 34.0281 41.2522C34.0794 41.1204 34.0391 41.0289 34.0903 40.8971C34.4674 40.5127 34.5406 39.9342 34.9177 39.5497C34.9507 38.8797 35.5108 38.4147 35.584 37.8362C35.7378 37.4408 35.9831 37.0051 36.1771 36.7012C36.2284 36.5694 36.3199 36.5291 36.3712 36.3973C36.1588 36.163 35.8037 36.1008 35.6828 35.8262L35.6426 35.7347C35.1959 35.7127 34.903 35.2953 34.5075 35.1416C34.2439 35.0391 34.0316 34.8048 33.6764 34.7425C33.5849 34.7828 33.5446 34.6913 33.5043 34.5997C33.2114 34.1824 32.5927 34.0176 32.2082 33.6405C32.168 33.549 32.0362 33.4977 32.0362 33.4977C31.9666 33.0913 31.5712 32.9376 31.3185 32.6117C31.2782 32.5202 31.1867 32.5605 31.1464 32.469C30.8645 31.8282 30.3995 31.2681 30.3922 30.5065C30.4837 30.4663 30.2311 30.1404 30.3738 29.9683ZM55.3401 35.8073C55.9479 36.1954 56.3726 36.664 56.563 37.345C56.6033 37.4366 56.6033 37.4366 56.6436 37.5281C56.9768 38.037 57.1269 38.6264 57.5114 39.0035C57.6212 39.5015 58.0166 39.6552 58.5036 39.7687C58.9905 39.8822 59.3457 39.9444 59.7924 39.9664C60.3306 39.9481 60.9896 40.2043 61.5681 40.2775C62.3699 40.3617 63.1205 40.5777 63.86 41.0171C63.9003 41.1086 63.9918 41.0683 64.0321 41.1598C64.6509 41.3246 65.0353 41.7017 65.5113 42.0385C65.6431 42.0898 65.6834 42.1813 65.6321 42.3131C65.6724 42.4046 65.753 42.5877 65.7932 42.6792C65.8738 42.8623 66.0861 43.0966 66.1667 43.2796C66.2766 43.7776 66.2033 44.3561 66.3132 44.854C66.1192 45.1579 66.229 45.6558 65.8116 45.9487L65.7604 46.0805C65.6579 46.3441 65.5956 46.6993 65.4931 46.9629C65.3906 47.2265 65.4199 47.5414 65.5408 47.816C65.6616 48.0906 65.8227 48.4567 66.1266 48.6507C66.1669 48.7422 66.2987 48.7935 66.2474 48.9253C66.1742 49.5038 66.6502 49.8406 66.577 50.4191C66.7893 50.6534 66.7784 50.8767 66.5843 51.1806C66.6026 51.7188 66.2365 51.8799 65.8704 52.0411C65.7789 52.0813 65.6471 52.0301 65.5958 52.1619C65.3102 52.506 64.8526 52.7074 64.6988 53.1028C64.5048 53.4067 64.0984 53.4763 63.9959 53.7399L63.9043 53.7802C63.681 53.7692 63.4064 53.8901 63.0915 53.9194C62.524 53.6228 61.8247 53.275 61.2572 52.9785C60.7996 53.1798 60.3419 53.3812 59.8843 53.5826C59.8733 53.806 59.9539 53.989 60.1259 54.1318C60.4298 54.3258 60.5909 54.692 60.7118 54.9665C60.9131 55.4242 61.1658 55.75 61.5099 56.0356C61.7223 56.2699 62.0262 56.464 62.2386 56.6983C62.136 56.9619 62.2569 57.2365 62.5608 57.4305L62.601 57.522C62.8134 57.7564 62.883 58.1628 63.2381 58.225C63.2381 58.225 63.2784 58.3165 63.3187 58.4081C63.2967 58.8547 63.5091 59.089 63.6702 59.4552C63.791 59.7298 63.78 59.9531 63.9009 60.2277C63.7068 60.5316 63.6849 60.9782 63.6629 61.4249C63.5092 61.8203 63.3554 62.2158 63.4653 62.7137C63.5055 62.8052 63.4543 62.937 63.403 63.0688C63.3518 63.2006 63.3005 63.3324 63.3005 63.3324C63.3811 63.5155 63.2383 63.6876 63.0955 63.8597C62.5646 64.6395 62.2974 65.5219 61.9386 66.4446C61.8764 66.7997 61.9057 67.1146 61.935 67.4294C62.0046 67.8358 62.2169 68.0702 62.4293 68.3045C62.4696 68.396 62.4696 68.396 62.6014 68.4472C62.9053 68.6413 63.2091 68.8353 63.5643 68.8976C63.8279 69.0001 64.0512 69.011 64.3149 69.1135C64.4467 69.1648 64.67 69.1758 64.8933 69.1868C65.4315 69.1684 65.8782 69.1904 66.2114 69.6993C66.2517 69.7908 66.3432 69.7506 66.3835 69.8421C66.6874 70.0361 67.0425 70.0983 67.3061 70.2009C67.9652 70.4571 68.6462 70.2667 69.2356 70.1166C69.3271 70.0763 69.4187 70.036 69.4187 70.036C69.4699 69.9042 69.5615 69.864 69.7445 69.7834C69.9788 69.571 70.2534 69.4502 70.3559 69.1866C70.6928 68.7106 71.0699 68.3262 71.447 67.9417C71.5385 67.9015 71.5897 67.7697 71.6813 67.7294C71.9668 67.3852 71.9485 66.847 72.3659 66.5541C72.3659 66.5541 72.3659 66.5541 72.3256 66.4626C72.256 66.0562 72.6734 65.7633 72.6441 65.4484C73.0725 64.9321 73.1969 64.2218 73.4532 63.5628C73.607 63.1674 73.7204 62.6804 73.8339 62.1935C73.7936 62.102 73.6728 61.8274 73.6838 61.604C73.3287 61.5418 73.1566 61.399 73.087 60.9926C73.0467 60.9011 72.9149 60.8498 72.8746 60.7583C72.8344 60.6668 72.7026 60.6155 72.6623 60.524C72.622 60.4325 72.5414 60.2494 72.5012 60.1579C72.3401 59.7917 71.9556 59.4146 72.0691 58.9277C72.0288 58.8362 71.9886 58.7446 71.9483 58.6531C71.908 58.5616 71.8677 58.47 71.8274 58.3785C71.7981 58.0636 71.8201 57.617 71.5675 57.2911L71.5272 57.1996C71.4576 56.7932 71.4796 56.3465 71.4503 56.0317C71.41 55.9401 71.4612 55.8083 71.421 55.7168C71.2196 55.2591 71.0585 54.893 71.2635 54.3658C71.3147 54.234 71.2342 54.0509 71.1939 53.9594C71.0438 53.3699 70.9339 52.872 70.9156 52.3338C70.8973 51.7956 70.879 51.2574 70.8204 50.6277L70.8716 50.4959C70.8826 50.2725 70.8533 49.9576 70.824 49.6428C70.835 49.4194 70.7544 49.2364 70.8569 48.9728C70.9082 48.841 70.8679 48.7494 70.8276 48.6579C70.7471 48.4748 70.7983 48.343 70.7178 48.16C70.6775 48.0684 70.597 47.8854 70.5567 47.7939C70.099 47.9952 69.6414 48.1966 69.1435 48.3065C68.554 48.4566 68.0561 48.5665 67.4666 48.7166C67.1517 48.7459 66.9284 48.7349 66.7673 48.3688C66.727 48.2772 66.5952 48.226 66.5549 48.1345C66.7197 47.5157 66.7709 47.3839 67.3604 47.2338C67.5837 47.2447 67.8583 47.1239 68.0414 47.0434C68.499 46.842 68.997 46.7321 69.4546 46.5307C69.872 46.2378 70.542 46.2708 70.8788 45.7948C70.8788 45.7948 70.9703 45.7545 71.0619 45.7142C71.2449 45.6337 71.4683 45.6447 71.6111 45.4726C71.8454 45.2602 72.12 45.1394 72.3946 45.0186C72.4861 44.9783 72.4861 44.9783 72.5776 44.938C72.9144 44.462 73.3428 43.9458 73.4673 43.2355C73.3867 43.0524 73.2659 42.7778 73.2768 42.5545C73.3391 42.1994 73.2695 41.793 73.1084 41.4268C73.0681 41.3353 73.0278 41.2438 73.0791 41.112C73.1926 40.625 73.0827 40.1271 73.0644 39.5889C73.0864 39.1422 72.7019 38.7651 72.7239 38.3184C72.6836 38.2269 72.6836 38.2269 72.5518 38.1757C71.9037 37.6961 71.3985 37.0444 70.6589 36.605C70.5271 36.5538 70.355 36.411 70.3147 36.3195C70.2342 36.1364 70.1536 35.9533 69.89 35.8508C69.6264 35.7483 69.6886 35.3932 69.5165 35.2504C69.2126 35.0564 69.1833 34.7415 69.154 34.4266C69.0845 34.0202 69.0552 33.7054 68.8941 33.3392C68.8135 33.1562 68.6927 32.8816 68.7036 32.6583C68.6634 32.5667 68.6743 32.3434 68.5425 32.2921C68.0775 31.732 67.521 31.2121 67.0048 30.7837C66.873 30.7325 66.7924 30.5494 66.7009 30.5897C66.2139 30.4762 65.7782 30.2309 65.3425 29.9856C64.8153 29.7806 64.3393 29.4438 63.9036 29.1985C63.5997 29.0045 63.4789 28.7299 63.175 28.5358C63.175 28.5358 63.1347 28.4443 63.0945 28.3528C63.0249 27.9464 62.6295 27.7926 62.4281 27.335C62.0839 27.0494 61.9228 26.6833 61.5787 26.3977C61.326 26.0719 61.0221 25.8778 60.667 25.8156C60.4436 25.8046 60.2716 25.6618 60.0995 25.519C59.8359 25.4165 59.6638 25.2738 59.4404 25.2628C58.9938 25.2408 58.5471 25.2189 58.2029 24.9333L58.0711 24.882C57.4926 24.8088 56.8739 24.6441 56.2954 24.5709C56.1636 24.5196 56.0721 24.5599 56.1233 24.4281C56.2148 24.3878 56.1746 24.2963 56.2661 24.256C56.9983 23.9338 57.7709 23.7031 58.5837 23.564C58.6752 23.5237 58.6752 23.5237 58.807 23.575C59.2939 23.6884 59.8322 23.6701 60.3594 23.8751C61.0184 24.1314 61.6774 24.3877 62.1022 24.8563C62.1424 24.9478 62.2743 24.9991 62.2743 24.9991C62.5891 24.9698 62.6697 25.1528 62.7905 25.4274C62.9113 25.702 63.0834 25.8448 63.2555 25.9876C63.3873 26.0389 63.3763 26.2622 63.5081 26.3134C63.7608 26.6393 63.9219 27.0054 64.1342 27.2397C64.3466 27.474 64.559 27.7084 64.9544 27.8621C65.3498 28.0159 65.5622 28.2502 65.9173 28.3124C66.0491 28.3637 66.1809 28.4149 66.2212 28.5065C66.6056 28.8836 67.0926 28.997 67.6198 29.2021C67.9054 28.8579 68.2312 28.6053 68.4253 28.3014C68.2422 28.3819 68.4253 28.3014 68.4765 28.1696C68.6706 27.8657 68.9049 27.6533 69.0989 27.3494C69.2417 27.1773 69.3442 26.9137 69.487 26.7416C69.5895 26.478 69.6005 26.2547 69.8348 26.0423C69.8055 25.7275 70.0801 25.6066 70.1826 25.343C70.2338 25.2112 70.2851 25.0794 70.2961 24.8561C70.2265 24.4497 70.2484 24.003 70.1789 23.5966C70.1496 23.2817 70.1203 22.9669 69.8567 22.8644C69.5528 22.6703 69.4319 22.3957 69.4942 22.0406C69.5051 21.8172 69.4649 21.7257 69.3843 21.5427C69.2232 21.1765 69.2452 20.7299 68.8607 20.3528C68.8204 20.2612 68.8204 20.2612 68.7802 20.1697C68.7216 19.54 68.3481 18.9395 67.8721 18.6027C67.528 18.3171 67.3669 17.951 66.8287 17.9693C66.6566 17.8266 66.3417 17.8558 66.2099 17.8046C65.9975 17.5703 65.6827 17.5996 65.4191 17.4971C65.1554 17.3946 64.8918 17.2921 64.6795 17.0577C64.5074 16.915 64.5184 16.6916 64.3463 16.5488C63.9106 16.3035 64.0131 16.0399 63.9325 15.8569L63.8923 15.7653C63.6286 15.6628 63.5993 15.348 63.5188 15.1649C63.4492 14.7585 63.1453 14.5645 63.116 14.2496C63.0977 13.7114 62.5998 13.8212 62.3874 13.5869C62.0433 13.3014 61.6991 13.0158 61.2634 12.7705C61.1316 12.7193 61.0913 12.6277 60.9595 12.5765C60.2492 12.452 59.5389 12.3275 58.7774 12.3349C58.0158 12.3422 57.2433 12.5729 56.544 12.2251C56.544 12.2251 56.544 12.2251 56.4525 12.2654C56.0461 12.335 55.5591 12.2215 55.1125 12.1995C54.8891 12.1886 54.7463 12.3606 54.5633 12.4412C54.0653 12.551 53.5564 12.8842 53.1391 13.1771C53.0475 13.2174 52.8645 13.298 52.7729 13.3382C52.5899 13.4188 52.4068 13.4994 52.3556 13.6312C52.3043 13.763 52.2128 13.8032 52.2128 13.8032C51.8979 13.8325 51.7551 14.0046 51.6526 14.2682C51.6014 14.4 51.3268 14.5209 51.2352 14.5612C51.0009 14.7735 50.7666 14.9859 50.5726 15.2898C50.4298 15.4618 50.2467 15.5424 50.2358 15.7657C50.3163 15.9488 50.3859 16.3552 50.741 16.4174C50.741 16.4174 50.8728 16.4687 50.8216 16.6005C50.8106 16.8238 50.9827 16.9666 51.2463 17.0691C51.5099 17.1716 51.7223 17.4059 51.8431 17.6805C51.8834 17.7721 52.0555 17.9148 52.0957 18.0064C52.1763 18.1894 52.3081 18.2407 52.3887 18.4238C52.5388 19.0132 52.7292 19.6942 52.8793 20.2837C52.9086 20.5985 53.121 20.8328 53.0587 21.188C53.3224 21.2905 53.2601 21.6456 53.3407 21.8287C53.3297 22.052 53.4505 22.3266 53.6226 22.4694C53.6629 22.5609 53.7947 22.6122 53.7434 22.744C53.7727 23.0589 54.0766 23.2529 54.289 23.4872C54.4098 23.7618 54.5307 24.0364 54.6515 24.311C54.6515 24.311 54.6515 24.311 54.6918 24.4025C54.9334 24.9517 55.2263 25.3691 55.3765 25.9585C55.5266 26.548 55.4534 27.1265 55.7353 27.7672C55.7756 27.8587 55.7756 27.8587 55.7243 27.9905C55.6109 28.4775 55.772 28.8436 55.9733 29.3013C56.0539 29.4843 56.2663 29.7186 56.1638 29.9822C56.0722 30.0225 56.1528 30.2056 56.2846 30.2568C56.7093 30.7255 56.7276 31.2637 56.8375 31.7616C56.918 31.9447 56.8155 32.2083 56.7643 32.3401C56.5593 32.8673 56.4458 33.3543 56.2408 33.8815C56.1382 34.1451 56.0357 34.4087 55.8014 34.6211C55.7099 34.6613 55.6586 34.7932 55.6074 34.925C55.4133 35.2288 55.4024 35.4522 55.3401 35.8073ZM34.2473 23.129C34.196 23.2608 34.1045 23.3011 34.1045 23.3011C33.5553 23.5427 33.1269 24.059 32.6583 24.4837C32.5155 24.6558 32.2409 24.7766 32.0981 24.9487C31.8638 25.1611 31.549 25.1904 31.4867 25.5455C31.4867 25.5455 31.3037 25.6261 31.2121 25.6663C30.9778 25.8787 30.7032 25.9995 30.4689 26.2119C30.3261 26.384 30.1834 26.5561 30.0406 26.7281C29.8978 26.9002 29.755 27.0723 29.6122 27.2444C29.733 27.519 29.8136 27.702 29.8942 27.8851C30.1578 27.9876 30.4726 27.9583 30.6447 28.1011C30.9083 28.2036 31.0401 28.2548 31.2122 28.3976C31.3843 28.5404 31.5967 28.7747 31.7687 28.9175C31.7468 29.3642 31.9994 29.69 31.8859 30.177C31.8859 30.177 31.9262 30.2685 31.9665 30.36C32.0764 30.858 32.329 31.1838 32.5304 31.6415C32.6512 31.9161 32.772 32.1907 33.0356 32.2932C33.3395 32.4872 33.5922 32.813 33.9876 32.9668C34.383 33.1206 34.6356 33.4464 35.0713 33.6917C35.8109 34.131 36.6018 34.4386 37.2389 35.1415C37.7258 35.255 37.9784 35.5808 38.2311 35.9067C38.4837 36.2325 38.7876 36.4266 39.0915 36.6206C39.3954 36.8146 39.7505 36.8769 39.9629 37.1112C40.329 36.9501 40.5304 37.4077 40.9368 37.3382C41.2517 37.3089 41.6983 37.3308 41.8997 37.7885C42.1414 38.3376 42.7199 38.4108 43.1043 38.7879C43.4082 38.982 43.7633 39.0442 44.0269 39.1467C44.1697 38.9746 44.221 38.8428 44.3638 38.6707C44.6493 38.3266 44.9752 38.0739 45.2607 37.7298L45.3523 37.6895C45.6781 37.4369 46.0442 37.2758 46.3298 36.9316C46.4213 36.8913 46.5129 36.851 46.5129 36.851C46.868 36.9133 47.1939 36.6606 47.4684 36.5398C48.241 36.3091 49.094 36.2615 49.8556 36.2542C49.9471 36.2139 49.9874 36.3054 49.9874 36.3054C50.1192 36.3567 50.2107 36.3164 50.2107 36.3164C50.8002 36.1663 51.5105 36.2907 52.1915 36.1003C52.6894 35.9905 53.147 35.7891 53.4839 35.3131C53.5351 35.1813 53.6266 35.141 53.6779 35.0092C53.7292 34.8774 53.9122 34.7969 53.8317 34.6138C53.8426 34.3905 53.9451 34.1268 54.0879 33.9548C54.3735 33.6106 54.4357 33.2555 54.5895 32.86C54.7542 32.2413 54.7872 31.5713 54.5052 30.9306C54.3038 30.4729 54.1025 30.0152 53.9926 29.5173C54.0036 29.294 54.0658 28.9388 53.7619 28.7448C53.7217 28.6533 53.7729 28.5215 53.7326 28.4299C53.6924 28.3384 53.7436 28.2066 53.7436 28.2066C53.674 27.8002 53.6045 27.3938 53.5349 26.9874C53.5568 26.5407 53.3042 26.2149 53.1431 25.8488C53.0625 25.6657 53.0735 25.4424 53.0332 25.3508C52.8209 25.1165 52.6488 24.9737 52.5682 24.7907C52.2753 24.3733 52.2058 23.9669 51.8213 23.5898L51.781 23.4983C51.792 23.2749 51.7115 23.0919 51.5797 23.0406C51.4588 22.766 51.2867 22.6232 51.3892 22.3596C51.4405 22.2278 51.3087 22.1766 51.2684 22.085C50.895 21.4846 50.7448 20.8951 50.6862 20.2654C50.6167 19.859 50.364 19.5332 50.386 19.0865C50.3457 18.995 50.3457 18.995 50.2139 18.9437C49.921 18.5263 49.3535 18.2298 49.0203 17.7209C48.6651 17.6587 48.5956 17.2523 48.3832 17.0179C48.2221 16.6518 48.1013 16.3772 47.7974 16.1832C47.7571 16.0917 47.585 15.9489 47.6765 15.9086C47.7388 15.5535 47.5667 15.4107 47.3946 15.2679C47.2225 15.1251 47.2335 14.9018 47.153 14.7187C47.1346 14.1805 46.7502 13.8034 46.7721 13.3567L46.7319 13.2652C46.5598 13.1224 46.5708 12.8991 46.4902 12.716C46.2485 12.1668 45.9666 11.5261 45.3588 11.138C45.3186 11.0465 45.227 11.0868 45.1867 10.9953C44.7694 11.2882 44.3739 11.1344 44.0188 11.0722C43.5612 11.2736 43.2866 11.3944 42.9607 11.647C42.6861 11.7679 42.32 11.929 42.0857 12.1413C41.9026 12.2219 41.7489 12.6173 41.5658 12.6979C41.1997 12.859 41.1375 13.2141 40.9434 13.518C40.8006 13.6901 40.7897 13.9134 40.6469 14.0855C40.5956 14.2173 40.4528 14.3894 40.4016 14.5212C40.2478 14.9166 40.1343 15.4036 39.9806 15.799C39.8158 16.4177 39.5596 17.0768 39.263 17.6443C38.9665 18.2118 38.4978 18.6365 38.161 19.1125C38.1098 19.2443 37.9267 19.3248 37.8352 19.3651C37.286 19.6068 36.8174 20.0315 36.2682 20.2732C35.6275 20.5551 35.2906 21.0311 34.822 21.4558C34.7305 21.4961 34.7708 21.5876 34.7708 21.5876C34.8513 21.7706 34.6683 21.8512 34.617 21.983C34.4742 22.1551 34.3314 22.3272 34.1887 22.4993C33.9946 22.8032 33.8006 23.107 33.8299 23.4219C33.9836 23.0265 34.1154 23.0777 34.2473 23.129ZM53.5645 38.2275C53.2606 38.0334 52.997 37.9309 52.7846 37.6966C52.4807 37.5026 52.2574 37.4916 51.9828 37.6124C51.7485 37.8248 51.5252 37.8138 51.3018 37.8028C51.0785 37.7919 50.9467 37.7406 50.7636 37.8212C50.5806 37.9017 50.3169 37.7992 50.0936 37.7882C49.5151 37.715 48.9366 37.6418 48.3875 37.8835C48.0213 38.0446 47.7065 38.0739 47.3404 38.235C47.0658 38.3558 46.8424 38.3448 46.7802 38.7C46.7289 38.8318 46.5862 39.0039 46.4544 38.9526C46.1395 38.9819 46.1285 39.2052 45.8942 39.4176C45.6599 39.63 45.5574 39.8936 45.2828 40.0144C45.1913 40.0547 45.14 40.1865 44.9972 40.3586C44.946 40.4904 44.8947 40.6222 44.7116 40.7027C44.3858 40.9554 44.232 41.3508 44.1295 41.6144C44.0783 41.7462 44.027 41.878 43.8842 42.0501C43.7817 42.3137 43.5474 42.5261 43.4852 42.8812C43.3827 43.1448 43.0568 43.3975 43.1264 43.8039C43.1667 43.8954 43.0752 43.9357 43.0239 44.0675C42.7383 44.4117 42.5846 44.8071 42.3393 45.2428C42.2368 45.5064 42.1343 45.77 42.1636 46.0849C42.2954 46.1361 42.4675 46.2789 42.5993 46.3302C42.8483 47.6409 42.8483 47.6409 43.2217 48.2413C43.2108 48.4647 43.1485 48.8198 43.2291 49.0029C43.3902 49.369 43.6428 49.6948 43.8039 50.0609C44.0675 50.1635 44.0566 50.3868 44.1774 50.6614C44.2579 50.8444 44.3385 51.0275 44.3788 51.119C44.6717 51.5364 44.9646 51.9538 45.2575 52.3712C45.3381 52.5542 45.3783 52.6458 45.5504 52.7885C45.631 52.9716 45.9056 52.8508 46.0777 52.9935C46.1179 53.0851 46.2095 53.0448 46.2497 53.1363C46.6342 53.5134 47.1211 53.6269 47.5678 53.6489C47.9229 53.7111 48.2378 53.6818 48.5014 53.7843C48.6332 53.8356 48.8566 53.8465 49.0799 53.8575C49.3545 53.7367 49.5778 53.7477 49.7902 53.982C49.8305 54.0735 50.0135 53.993 50.0135 53.993C50.1966 53.9124 50.3687 54.0552 50.592 54.0662C50.8154 54.0771 50.9984 53.9966 51.0899 53.9563C51.5366 53.9783 51.932 54.132 52.3897 53.9307C52.4812 53.8904 52.613 53.9416 52.613 53.9416C53.1915 54.0148 53.781 53.8647 54.3704 53.7146C54.5535 53.634 54.6963 53.4619 54.8281 53.5132C55.2747 53.5352 55.6116 53.0592 56.0985 53.1727C56.2413 53.0006 56.4244 52.92 56.4756 52.7882C56.7099 52.5759 57.0761 52.4148 57.4422 52.2536C57.768 52.001 58.266 51.8912 58.5112 51.4555C58.5625 51.3237 58.7456 51.2431 58.8371 51.2028C59.2947 51.0014 59.7524 50.8001 60.21 50.5987C60.4737 50.7012 60.8288 50.7634 61.0924 50.8659C61.356 50.9684 61.4878 51.0197 61.6709 50.9391C61.854 50.8586 62.037 50.778 62.2604 50.789C62.8498 50.6389 63.3477 50.529 63.8127 51.0892C63.9958 51.0086 64.0873 50.9684 64.2704 50.8878C64.6365 50.7267 64.6878 50.5949 64.6182 50.1885C64.5376 50.0054 64.5486 49.7821 64.4681 49.599C64.4278 49.5075 64.3875 49.416 64.3472 49.3244C64.0836 49.2219 64.0946 48.9986 64.014 48.8155C63.8932 48.5409 63.9957 48.2773 63.6918 48.0833C63.6516 47.9918 63.7028 47.86 63.6625 47.7684C63.6223 47.6769 63.6735 47.5451 63.6735 47.5451C63.4611 47.3108 63.6955 47.0984 63.6149 46.9154C63.5856 46.6005 63.7284 46.4284 63.8712 46.2563C64.0652 45.9524 64.219 45.557 64.2409 45.1103C64.2519 44.887 64.3141 44.5319 64.4166 44.2682C64.4276 44.0449 64.4789 43.9131 64.3068 43.7703C64.0944 43.536 64.0139 43.3529 63.71 43.1589C63.3658 42.8733 62.9301 42.628 62.4432 42.5146C61.9562 42.4011 61.5608 42.2473 61.0739 42.1338L60.942 42.0826C60.6272 42.1119 60.272 42.0496 59.9169 41.9874C59.5617 41.9252 59.1151 41.9032 58.7599 41.841C58.4048 41.7788 58.0496 41.7165 57.7458 41.5225C57.5334 41.2882 57.2185 41.3175 56.9037 41.3468C56.8231 41.1637 56.7828 41.0722 56.651 41.0209C56.5192 40.9697 56.3874 40.9184 56.2556 40.8672C55.9627 40.4498 55.6698 40.0324 55.5087 39.6663C55.4281 39.4832 55.2963 39.432 55.2158 39.2489C55.0656 38.6595 54.6812 38.2824 54.4395 37.7332C54.359 37.5501 54.2272 37.4989 54.0038 37.4879C54.1759 37.6307 53.8501 37.8833 53.5645 38.2275ZM77.8979 61.4977C78.2237 61.2451 78.4581 61.0327 78.6924 60.8204C78.7839 60.7801 78.967 60.6995 78.9267 60.608C79.1317 60.0808 79.6809 59.8391 79.9774 59.2716C80.069 59.2314 80.1605 59.1911 80.252 59.1508C80.5266 59.03 80.6694 58.8579 80.7719 58.5943C81.0062 58.3819 81.16 57.9865 81.3943 57.7741C81.9142 57.2176 82.262 56.5183 82.4377 55.6762C82.3974 55.5847 82.4487 55.4529 82.5402 55.4126C82.8148 55.2918 82.7855 54.9769 82.7049 54.7938C82.6354 54.3874 82.6573 53.9408 82.7708 53.4538C82.7818 53.2305 82.8843 52.9669 82.8037 52.7838C82.6024 52.3261 82.8074 51.7989 82.8293 51.3522C82.8 51.0374 82.9025 50.7738 83.0966 50.4699C83.2906 50.166 83.2613 49.8511 83.4554 49.5472C83.5066 49.4154 83.5981 49.3751 83.5981 49.3751C83.7006 49.1115 83.8032 48.8479 83.9057 48.5843C83.7446 48.2182 83.8983 47.8228 83.869 47.5079C83.7885 47.3248 83.6164 47.182 83.5358 46.999C83.426 46.5011 83.0415 46.124 82.7486 45.7066C82.3239 45.238 81.8992 44.7693 81.4745 44.3007C81.1706 44.1067 80.9179 43.7808 80.6653 43.455C80.2003 42.8948 79.9586 42.3456 79.8488 41.8477C79.8085 41.7562 79.9 41.7159 79.8598 41.6244C79.8817 41.1777 79.7206 40.8116 79.5595 40.4454C79.4387 40.1709 79.186 39.845 78.9737 39.6107C78.8016 39.4679 78.5892 39.2336 78.4172 39.0908C78.051 39.2519 77.8899 38.8858 77.7178 38.743C77.4433 38.8638 77.1796 38.7613 76.916 38.6588C76.5206 38.5051 76.1655 38.4428 75.8103 38.3806C75.7298 38.1975 75.6382 38.2378 75.5467 38.2781C75.0707 37.9413 74.5728 38.0511 74.0859 37.9376C74.0236 38.2928 74.0017 38.7395 74.214 38.9738C74.2543 39.0653 74.3349 39.2484 74.2836 39.3802C74.4154 39.4314 74.3642 39.5632 74.4044 39.6548C74.3825 40.1014 74.5436 40.4676 74.4301 40.9545C74.3679 41.3096 74.4374 41.716 74.507 42.1224C74.6278 42.397 74.6169 42.6204 74.6059 42.8437C74.5839 43.2904 74.562 43.7371 74.4998 44.0922C74.4485 44.224 74.3972 44.3558 74.346 44.4876C74.152 44.7915 74.0494 45.0551 73.8151 45.2675C73.8444 45.5824 73.6614 45.6629 73.5698 45.7032C73.3868 45.7837 73.244 45.9558 73.1525 45.9961C72.8266 46.2487 72.5411 46.5929 72.1749 46.754C72.0834 46.7943 71.9919 46.8346 71.9003 46.8748C71.8894 47.0982 72.0102 47.3728 72.0505 47.4643C72.0285 47.911 72.0066 48.3576 72.0761 48.764C72.1054 49.0789 72.0029 49.3425 72.1238 49.6171C72.1933 50.0235 72.2226 50.3384 72.0286 50.6423C72.0176 50.8656 71.9664 50.9974 72.0872 51.272C72.1275 51.3635 72.1568 51.6784 72.1055 51.8102C72.0945 52.0335 72.0433 52.1654 72.1238 52.3484C72.2044 52.5315 72.1934 52.7548 72.274 52.9379C72.2923 53.4761 72.3106 54.0143 72.4607 54.6037C72.5413 54.7868 72.4388 55.0504 72.5596 55.325C72.6292 55.7314 72.8306 56.1891 72.8086 56.6357C72.8086 56.6357 72.8086 56.6357 72.8489 56.7273C73.1015 57.0531 73.0796 57.4998 73.1491 57.9062C73.2297 58.0892 73.2187 58.3126 73.3505 58.3638C73.5629 58.5981 73.6837 58.8727 73.8045 59.1473C74.0059 59.605 74.3501 59.8905 74.6027 60.2164C74.8554 60.5422 75.1593 60.7363 75.5547 60.89C76.1112 61.4099 76.719 61.798 77.4512 61.4758C77.6746 61.4868 77.8064 61.538 77.8979 61.4977ZM41.314 39.685C41.1199 39.9889 41.0174 40.2525 40.8234 40.5564C40.6293 40.8603 40.5671 41.2154 40.4646 41.479C40.4134 41.6109 40.3621 41.7427 40.2706 41.7829C39.9118 42.7056 39.2894 43.5257 38.9709 44.5399C38.9196 44.6717 38.9196 44.6717 38.8281 44.712C38.5023 44.9646 38.44 45.3198 38.4693 45.6346C38.5096 45.7262 38.4181 45.7664 38.4584 45.858C37.9275 46.6378 37.7518 47.4799 37.393 48.4026C37.2905 48.6662 37.4113 48.9408 37.6347 48.9518C38.0813 48.9737 38.4658 49.3508 38.8429 48.9664C38.9344 48.9261 39.0259 48.8858 39.1578 48.9371C39.3811 48.948 39.6044 48.959 39.8387 48.7467C39.9815 48.5746 40.2561 48.4538 40.4795 48.4647C40.6113 48.516 40.754 48.3439 40.9371 48.2634C41.3032 48.1022 41.3142 47.8789 41.2446 47.4725C41.1641 47.2894 41.0835 47.1064 41.0945 46.8831C41.0652 46.5682 41.2592 46.2643 41.2299 45.9494C41.2006 45.6346 41.2629 45.2794 41.2336 44.9645C41.175 44.3348 41.5118 43.8588 41.6253 43.3719C41.7278 43.1083 41.79 42.7531 41.9328 42.581C42.0866 42.1856 42.2806 41.8817 42.4746 41.5778C42.6687 41.274 42.8627 40.9701 42.7529 40.4721C42.3172 40.2268 41.984 39.7179 41.314 39.685ZM59.013 55.8233C58.8628 55.2339 58.6615 54.7762 58.5919 54.3698C58.5516 54.2783 58.5516 54.2783 58.4198 54.227C57.7278 54.6408 56.9041 55.0033 56.1315 55.234C56.1315 55.234 56.1315 55.234 56.04 55.2742L55.9887 55.406L56.029 55.4976C56.0693 55.5891 56.1608 55.5488 56.2524 55.5085C56.9224 55.5415 57.6327 55.6659 58.3429 55.7904C58.515 55.9332 58.6981 55.8526 59.013 55.8233ZM42.4055 54.8279C42.4055 54.8279 42.4457 54.9195 42.5373 54.8792C43.1157 54.9524 43.4526 54.4764 43.9505 54.3666C44.1336 54.286 44.3166 54.2055 44.3679 54.0737C44.3679 54.0737 44.3679 54.0737 44.4191 53.9419C44.258 53.5757 44.0457 53.3414 43.6502 53.1877C43.5587 53.2279 43.4159 53.4 43.3244 53.4403C43.1194 53.9675 42.8741 54.4032 42.4055 54.8279C42.4567 54.6961 42.497 54.7877 42.4055 54.8279Z" fill="#D2AF49"/>
<path d="M40.2601 58.394C40.2894 58.7089 40.3187 59.0237 40.348 59.3386C39.9306 59.6315 39.5535 60.0159 39.0959 60.2173C38.9128 60.2979 38.8103 60.5615 38.5357 60.6823C38.3527 60.7629 38.2099 60.935 38.0671 61.107L38.0158 61.2389C37.701 61.2682 37.5582 61.4402 37.3642 61.7441L37.3129 61.8759C36.8662 61.854 36.7125 62.2494 36.4379 62.3702C36.2548 62.4508 36.0205 62.6631 35.9692 62.7949C35.6031 62.9561 35.3578 63.3917 34.9002 63.5931C34.4938 63.6627 34.2485 64.0984 33.8311 64.3913C33.7396 64.4316 33.6883 64.5634 33.5968 64.6037C33.5053 64.644 33.4137 64.6842 33.3222 64.7245C32.9964 64.9771 32.9341 65.3323 32.4362 65.4421C32.0298 65.5117 31.876 65.9071 31.5502 66.1598C31.2244 66.4124 30.807 66.7053 30.5214 67.0495C30.1956 67.3021 29.8697 67.5548 29.6757 67.8587C29.6757 67.8587 29.6757 67.8587 29.5842 67.8989C29.2986 68.2431 28.7604 68.2614 28.5663 68.5653C28.2808 68.9095 28.0867 69.2134 27.7206 69.3745C27.6291 69.4147 27.5376 69.455 27.446 69.4953C27.3032 69.6674 27.0689 69.8797 26.8456 69.8688C26.377 70.2935 25.6154 70.3008 25.0553 70.7658C24.9637 70.8061 24.9637 70.8061 24.7807 70.8867C24.7916 70.6633 24.8832 70.623 24.8429 70.5315C25.1797 70.0555 25.4653 69.7114 25.8021 69.2354C25.9961 68.9315 26.2817 68.5873 26.7394 68.386C27.014 68.2651 27.1274 67.7782 27.4423 67.7489C27.5448 67.4853 27.9 67.5475 28.0427 67.3754C28.1855 67.2033 28.3686 67.1228 28.6029 66.9104C28.786 66.8299 28.8372 66.6981 28.98 66.526C29.2143 66.3136 29.3974 66.2331 29.672 66.1122C29.9466 65.9914 30.0491 65.7278 30.3237 65.607C30.741 65.314 31.2499 64.9809 31.5868 64.5049C31.7295 64.3328 32.0041 64.212 32.1872 64.1314C32.33 63.9593 32.4728 63.7872 32.7876 63.758C32.8792 63.7177 32.9304 63.5859 32.9304 63.5859C33.1647 63.3735 33.3075 63.2014 33.5821 63.0806C33.8567 62.9598 34.2631 62.8902 34.3766 62.4032C34.3766 62.4032 34.4681 62.363 34.5596 62.3227C34.9367 61.9382 35.4347 61.8284 35.68 61.3927C35.7312 61.2609 35.8227 61.2206 35.9143 61.1803C36.0973 61.0998 36.3719 60.9789 36.4744 60.7153C36.5257 60.5835 36.6172 60.5433 36.7088 60.503C37.1664 60.3016 37.5435 59.9172 37.9206 59.5327C38.0634 59.3606 38.2464 59.2801 38.338 59.2398C38.6126 59.119 38.8872 58.9981 38.9897 58.7345C39.1837 58.4306 39.4986 58.4013 39.8647 58.2402C39.9965 58.2915 40.1283 58.3427 40.2601 58.394Z" fill="#D2AF49"/>
<path d="M28.1156 64.0658C28.4707 64.1281 28.8368 63.967 29.1407 64.161C29.2616 64.4356 29.2506 64.6589 28.976 64.7798C28.7417 64.9921 28.5989 65.1642 28.4049 65.4681C28.09 65.4974 27.8959 65.8013 27.6616 66.0136C27.0612 66.3871 26.5926 66.8118 25.9519 67.0938C25.7578 67.3977 25.3514 67.4672 25.0768 67.5881C24.8022 67.7089 24.4764 67.9615 24.2018 68.0824C24.2018 68.0824 24.2018 68.0824 24.07 68.0311C24.1835 67.5442 24.6411 67.3428 24.7949 66.9473C25.0402 66.5117 25.3258 66.1675 25.7431 65.8746C26.0287 65.5304 26.4461 65.2375 26.7719 64.9849C27.2405 64.5601 27.6982 64.3588 28.1156 64.0658Z" fill="#D2AF49"/>
</svg>
