<svg xmlns="http://www.w3.org/2000/svg" width="78" height="147" fill="none" viewBox="0 0 78 147"><g clip-path="url(#clip0)"><path fill="#D2AF49" d="M56.49 126.664C56.644 126.827 56.6732 126.922 56.7981 126.989C56.6944 127.334 56.6198 127.775 56.8322 128.128C56.8614 128.224 56.8242 128.444 56.8826 128.636C56.8453 128.856 56.7789 128.981 56.8372 129.172C56.8956 129.364 56.9248 129.459 56.9832 129.651C57.1664 129.908 56.9671 130.283 57.1211 130.445C57.3043 130.703 57.1714 130.952 57.1633 131.268C57.1261 131.489 57.1845 131.68 57.2428 131.872C57.3012 132.063 57.264 132.283 57.3223 132.475C57.3807 132.666 57.3143 132.791 57.2478 132.916C57.3727 132.982 57.4019 133.078 57.5559 133.24C57.3565 133.614 57.5025 134.092 57.6193 134.475C57.6776 134.666 57.736 134.858 57.6988 135.078C57.6988 135.078 57.6615 135.299 57.7571 135.269C58.0652 135.594 57.9907 136.035 58.0118 136.446C58.0037 136.762 58.3118 137.087 58.2081 137.432C58.3832 138.006 58.3671 138.638 58.3218 139.175C58.3056 139.807 58.2895 140.439 58.2734 141.071C58.3026 141.167 58.2361 141.292 58.1696 141.417C57.7448 140.71 57.4448 140.07 57.1448 139.429C57.1156 139.334 57.0865 139.238 57.0865 139.238C56.712 139.039 56.8157 138.693 56.7281 138.406C56.6697 138.215 56.8026 137.965 56.5237 137.737C56.3989 137.67 56.5026 137.325 56.4442 137.134C56.2902 136.972 56.2983 136.656 56.3355 136.435C56.3063 136.34 56.2772 136.244 56.248 136.148C56.1765 135.229 55.9138 134.368 55.6219 133.412C55.5051 133.029 55.4548 132.522 55.338 132.139C55.2001 131.345 54.9666 130.58 54.8579 129.881C54.8287 129.785 54.7995 129.69 54.7703 129.594C54.7119 129.403 54.5287 129.145 54.566 128.925C54.6405 128.484 54.4573 128.226 54.3405 127.843C54.2237 127.461 54.1362 127.174 53.9238 126.82L53.8946 126.725C53.8815 125.997 53.4859 125.386 53.3772 124.687C53.202 124.113 52.902 123.473 52.7269 122.899L52.6977 122.803C52.7722 122.362 52.589 122.105 52.3766 121.751C52.2598 121.369 52.0766 121.111 51.9598 120.728C51.9306 120.633 51.7766 120.471 51.8431 120.346C51.7344 119.647 51.3679 119.132 51.1636 118.462C51.0176 117.984 50.776 117.535 50.63 117.057C50.5133 116.674 50.3009 116.321 50.1176 116.063C50.0885 115.967 49.9636 115.901 49.9344 115.805C49.9798 115.269 49.5761 114.974 49.3345 114.525C49.0928 114.076 48.822 113.531 48.6761 113.053C48.6469 112.957 48.5885 112.766 48.5593 112.67C48.2805 112.442 48.068 112.088 48.0761 111.772C48.0469 111.676 47.9221 111.61 47.8929 111.514C47.5848 111.19 47.3724 110.837 47.2557 110.454C47.1681 110.167 47.1097 109.976 46.86 109.843C46.7352 109.777 46.6476 109.49 46.6184 109.394C46.4725 108.916 46.0396 108.525 45.9893 108.018C45.6147 107.818 45.5644 107.311 45.3812 107.053C45.044 106.633 44.7732 106.089 44.5316 105.64C44.3191 105.286 44.2024 104.904 43.9235 104.675C43.7987 104.609 43.8651 104.484 43.7403 104.417C43.7111 104.322 43.6819 104.226 43.5571 104.16C43.0285 103.798 42.8534 103.224 42.4869 102.709C42.2745 102.355 42.1286 101.877 41.7249 101.582C41.6 101.516 41.6665 101.391 41.5417 101.324C41.4249 100.942 41.2125 100.589 40.9336 100.36C40.8088 100.294 40.7796 100.198 40.7504 100.102C40.7293 99.6904 40.4212 99.3663 40.2088 99.0129C40.0256 98.7551 39.8424 98.4974 39.7256 98.1148C39.5132 97.7614 39.33 97.5037 39.1175 97.1503C38.8095 96.8261 38.5679 96.3771 38.3263 95.9281C38.2679 95.7368 38.1431 95.6703 37.989 95.5082C37.9598 95.4126 37.8642 95.4418 37.835 95.3461C37.8511 94.7139 37.2561 94.4772 37.0145 94.0282C36.9562 93.8369 36.7065 93.704 36.6189 93.4171C36.5313 93.1302 36.2817 92.9973 36.0984 92.7395C36.0693 92.6439 35.9736 92.6731 35.9444 92.5774C35.7904 92.4153 35.9233 92.1656 35.6444 91.9371C35.4904 91.775 35.3364 91.6129 35.1531 91.3552C35.0948 91.1639 34.9699 91.0974 34.9115 90.9061C34.8824 90.8105 34.824 90.6192 34.6991 90.5527C34.3246 90.3534 34.2079 89.9708 33.929 89.7423C33.8042 89.6758 33.7458 89.4845 33.6874 89.2932C33.629 89.1019 33.5706 88.9107 33.4458 88.8442C33.1669 88.6157 32.9545 88.2623 32.7421 87.9089C32.5589 87.6511 32.3465 87.2978 32.1632 87.04C32.1049 86.8487 31.8844 86.8115 31.8552 86.7158C31.6428 86.3624 31.3347 86.0383 31.218 85.6557C31.1888 85.56 31.1596 85.4644 31.0347 85.3979C31.0055 85.3023 30.9472 85.111 30.8888 84.9197C30.8596 84.8241 30.8304 84.7284 30.8304 84.7284C30.331 84.4626 30.2807 83.9552 29.9727 83.631C29.7894 83.3733 29.6062 83.1155 29.4895 82.7329C29.4603 82.6373 29.3354 82.5709 29.3354 82.5709C29.3062 82.4752 29.1814 82.4088 29.1522 82.3131C29.0435 81.6144 28.4193 81.2821 28.3398 80.6791C28.2522 80.3922 28.0982 80.2301 27.915 79.9723C27.1529 78.8457 26.5821 77.6607 26.1735 76.3217C26.0275 75.8435 25.8151 75.4901 25.6691 75.0119C25.5815 74.7249 25.494 74.438 25.4064 74.1511C25.4145 73.8349 25.2977 73.4524 25.2101 73.1654C25.1225 72.8785 25.035 72.5916 24.9474 72.3046C24.8598 72.0177 24.8971 71.7972 24.8095 71.5103C24.6635 71.0321 24.6132 70.5247 24.5629 70.0172C24.5337 69.9216 24.4753 69.7303 24.5418 69.6055C24.5499 69.2893 24.5579 68.9732 24.4412 68.5906C24.3828 68.3994 24.42 68.1789 24.3616 67.9876C24.407 67.451 24.4523 66.9144 24.2772 66.3405C24.248 66.2449 24.2188 66.1492 24.3144 66.12C24.4765 65.966 24.5138 65.7455 24.4262 65.4586C24.3678 65.2673 24.4051 65.0468 24.4131 64.7307C24.392 64.3189 24.4665 63.878 24.4454 63.4662C24.1957 63.3333 24.1746 62.9215 24.2783 62.5762C24.3237 62.0396 24.369 61.503 24.5392 61.0328C24.5764 60.8124 24.5472 60.7167 24.518 60.6211L24.4888 60.5254C24.6882 60.1509 24.6671 59.7392 24.7708 59.3938C24.8745 59.0485 24.8826 58.7324 24.9863 58.3871C25.0527 58.2622 25.0235 58.1666 25.09 58.0418C25.1937 57.6964 25.3266 57.4468 25.3055 57.035C25.2471 56.8437 25.3136 56.7189 25.4756 56.5649C25.6377 56.4108 25.5794 56.2195 25.6166 55.9991C25.5874 55.9034 25.5582 55.8078 25.6247 55.6829C25.7576 55.4333 25.7949 55.2128 25.9278 54.9631C25.965 54.7426 26.0023 54.5221 26.0103 54.206C26.0476 53.9855 26.1141 53.8607 26.1513 53.6402C26.2178 53.5154 26.1594 53.3241 26.2258 53.1993C26.3879 53.0452 26.3296 52.8539 26.3668 52.6335C26.4413 52.1925 26.5159 51.7515 26.6196 51.4062C26.8189 51.0317 26.7978 50.6199 26.8723 50.179C26.8804 49.8629 26.8885 49.5467 27.2127 49.2387C27.3083 49.2095 27.2499 49.0182 27.2499 49.0182C27.2872 48.7977 27.3244 48.5772 27.4573 48.3276C27.561 47.9822 27.8561 47.5785 27.7393 47.196C27.7101 47.1003 27.7765 46.9755 27.843 46.8506C27.9095 46.7258 28.0715 46.5718 28.0132 46.3805C28.0212 46.0644 28.2498 45.7855 28.4783 45.5066C28.7361 45.3234 28.7441 45.0073 28.877 44.7576C29.0099 44.508 29.0472 44.2875 29.459 44.2663C29.6503 44.208 29.8124 44.0539 29.8496 43.8335C29.6956 43.6714 29.5416 43.5093 29.3211 43.472C28.8509 43.3018 28.4472 43.0068 27.9771 42.8367C27.8522 42.7702 27.6982 42.6081 27.5442 42.446C27.2653 42.2175 27.0156 42.0846 26.8324 41.8268C26.6784 41.6647 26.5536 41.5983 26.4952 41.407C26.2828 41.0536 26.0039 40.8251 25.6294 40.6257C25.5046 40.5593 25.3797 40.4928 25.3505 40.3972C25.1965 40.2351 25.1381 40.0438 24.8884 39.9109C24.668 39.8736 24.5804 39.5867 24.3599 39.5494C24.1102 39.4165 24.0227 39.1296 23.773 38.9967C23.619 38.8346 23.4649 38.6725 23.2153 38.5396C23.1861 38.4439 23.0612 38.3775 23.0612 38.3775C22.5911 38.2073 22.283 37.8831 21.975 37.5589C21.9458 37.4633 21.8501 37.4925 21.8209 37.3968C21.4253 36.7857 20.8011 36.4534 20.2726 36.092C20.1477 36.0255 20.1186 35.9299 20.1186 35.9299C19.9645 35.7678 19.8105 35.6057 19.6857 35.5392C19.2155 35.3691 18.8783 34.9492 18.5702 34.625C18.2913 34.3965 17.9833 34.0723 17.6088 33.8729C17.2635 33.7692 17.1175 33.291 16.743 33.0917C16.4641 32.8631 16.1853 32.6346 15.9064 32.406C15.6567 32.2731 15.4443 31.9197 15.1282 31.9117C15.0325 31.9408 14.8785 31.7787 14.8493 31.6831C14.6369 31.3297 14.3872 31.1968 13.9463 31.1223C13.2637 30.5987 12.6234 30.8987 11.9247 31.0074C11.829 31.0366 11.7334 31.0658 11.667 31.1907C11.085 31.6819 10.7316 31.8943 10.2534 32.0403C9.96648 32.1279 9.80438 32.2819 9.55471 32.149C9.42987 32.0825 9.33423 32.1117 9.23858 32.1409C8.8852 32.3533 8.60633 32.1248 8.26102 32.0211C8.01134 31.8882 7.63684 31.6888 7.38716 31.5559C6.98346 31.2609 6.67541 30.9367 6.33816 30.5169C6.18413 30.3548 6.09655 30.0679 5.84688 29.935C5.84688 29.935 5.72205 29.8685 5.7885 29.7437C5.76737 29.3319 5.23884 28.9704 5.409 28.5003L5.37981 28.4046C5.04256 27.9848 5.08789 27.4482 5.03757 26.9408C4.95807 26.3377 4.9742 25.7055 5.01953 25.1689C5.10212 24.4118 5.18471 23.6547 5.51697 23.0305C5.51697 23.0305 5.58342 22.9057 5.55423 22.81C5.40827 22.3318 5.79892 21.8989 5.77779 21.4872C5.81506 21.2667 5.75667 21.0754 5.69829 20.8841C5.6399 20.6928 5.61071 20.5972 5.64797 20.3767C5.59766 19.8693 5.57653 19.4575 5.07719 19.1917C4.82751 19.0588 4.73994 18.7719 4.74801 18.4557C4.75608 18.1396 4.47721 17.9111 4.61012 17.6614C4.64738 17.4409 4.78028 17.1912 4.78835 16.8751C4.82561 16.6546 4.98771 16.5006 5.02497 16.2801C5.00384 15.8683 5.48206 15.7224 5.46094 15.3106C5.71868 15.1274 6.10126 15.0106 6.38819 14.9231C6.86641 14.7771 6.93287 14.6523 6.78691 14.174C6.67014 13.7915 6.67821 13.4753 6.78192 13.13C6.78999 12.8139 6.79806 12.4978 6.80612 12.1816C6.81419 11.8655 6.85145 11.645 7.01355 11.491C7.20484 11.4326 7.27129 11.3078 7.36693 11.2786C7.52903 11.1246 7.56629 10.9041 7.88242 10.9122C8.22773 11.0159 8.61031 10.8991 8.88917 11.1277C8.88917 11.1277 8.88917 11.1277 8.91837 11.2233C9.15997 11.6723 9.57174 11.6512 9.98351 11.6301C10.2121 11.3512 10.1537 11.1599 9.99965 10.9978C9.84562 10.8357 9.69159 10.6736 9.53756 10.5115C9.50837 10.4159 9.38353 10.3494 9.35434 10.2538C9.45805 9.90848 9.20838 9.77558 8.92952 9.54703C9.03323 9.20171 9.07049 8.98123 9.1742 8.63591C9.30711 8.38624 9.4692 8.23221 9.66049 8.17383C9.94742 8.08625 10.3592 8.06513 10.6089 8.19803C10.9834 8.39739 11.3579 8.59675 11.5411 8.85449C11.6659 8.92094 11.82 9.08304 11.9448 9.14949C12.0988 9.31159 12.3485 9.44449 12.5317 9.70223C12.9354 9.99723 13.3391 10.2922 13.7428 10.5872C13.8677 10.6537 13.9925 10.7201 14.1465 10.8822C14.1757 10.9779 14.3006 11.0443 14.4254 11.1108C14.6751 11.2437 14.9912 11.2518 15.1744 11.5095C15.2036 11.6051 15.2992 11.576 15.3949 11.5468C15.8067 11.5256 16.0855 11.7542 16.3352 11.8871C16.5849 12.02 16.9302 12.1237 17.2755 12.2274C17.3128 12.0069 17.3792 11.8821 17.35 11.7865C17.2916 11.5952 17.2624 11.4995 17.2041 11.3082C17.2413 11.0878 17.1537 10.8008 16.9997 10.6387C16.883 10.2562 16.8618 9.84438 16.8699 9.52826C16.9444 9.08729 16.9897 8.55069 17.0351 8.01408C17.176 7.44829 17.1922 6.81604 17.7077 6.4496C17.8033 6.42041 17.7741 6.32476 17.7449 6.22912C17.8778 5.97944 18.1064 5.70058 18.3933 5.613C18.489 5.58381 18.6511 5.42978 18.7467 5.40059C19.5702 5.35834 20.128 5.81544 20.8186 6.02287C20.9142 5.99368 20.9434 6.08932 20.9726 6.18496C21.0602 6.4719 21.2807 6.50916 21.4347 6.67125C21.5887 6.83335 21.7136 6.8998 21.7428 6.99545C21.8223 7.5985 22.3589 7.64383 22.7334 7.84319C22.9992 7.34385 23.419 7.0066 23.9637 6.7358C24.0594 6.70661 24.0594 6.70661 24.1258 6.58177C24.2587 6.3321 24.4792 6.36936 24.7953 6.37743C24.891 6.34824 25.0158 6.41469 25.1114 6.3855C25.2655 6.54759 25.353 6.83453 25.7648 6.8134C25.9188 6.9755 25.9772 7.16679 26.2269 7.29969C26.7051 7.15373 27.0877 7.03697 27.5579 7.20713C27.7119 7.36923 27.7411 7.46487 27.8951 7.62697C28.0491 7.78906 28.2032 7.95116 28.2323 8.04681C28.2243 8.36293 28.4448 8.40019 28.6944 8.53309C28.8857 8.47471 29.077 8.41633 29.2391 8.2623C29.3056 8.13746 29.4677 7.98343 29.6881 8.02069C29.8794 7.96231 30.1372 7.77909 30.262 7.84554C30.6073 7.94926 31.0191 7.92813 31.298 8.15668C31.4228 8.22313 31.5476 8.28959 31.6725 8.35604C32.4295 8.43863 32.9581 8.80008 33.4866 9.16153C33.9195 9.55218 34.1611 10.0012 34.3363 10.5751C34.4822 11.0533 34.5406 11.2446 35.048 11.1943C35.4598 11.1731 35.7095 11.3061 36.1212 11.2849C36.4082 11.1974 36.7827 11.3967 37.2236 11.4712C37.4441 11.5085 37.7602 11.5166 37.9807 11.5538C38.7378 11.6364 39.5533 11.9103 40.0446 12.4922C40.3234 12.7208 40.411 13.0077 40.4321 13.4195C40.3949 13.6399 40.4532 13.8312 40.6073 13.9933C40.7905 14.2511 40.8489 14.4424 40.9365 14.7293C40.9576 15.1411 41.2656 15.4653 41.3532 15.7522C41.624 16.2969 41.8283 16.9664 41.8122 17.5986C41.7458 17.7235 41.8041 17.9147 41.929 17.9812C42.083 18.1433 42.1706 18.4302 42.1333 18.6507C42.1253 18.9668 42.1836 19.1581 42.2712 19.4451C42.5712 20.0854 42.7464 20.6592 42.7594 21.3871C42.7513 21.7033 42.6184 21.9529 42.4855 22.2026C42.3526 22.4523 42.0657 22.5399 41.7788 22.6274C41.4626 22.6194 41.0801 22.7361 40.8304 22.6032C40.6099 22.566 40.3602 22.4331 40.2062 22.271C39.9273 22.0424 39.6485 21.8139 39.3696 21.5853C39.0827 21.6729 38.8914 21.7313 38.7001 21.7897C38.5088 21.848 38.2883 21.8108 38.1554 22.0605C38.2722 22.443 38.389 22.8256 38.094 23.2293L38.0275 23.3541C38.2027 23.928 37.966 24.523 37.8251 25.0888C37.7878 25.3093 37.7214 25.4341 37.7797 25.6254C37.8089 25.7211 37.676 25.9707 37.7052 26.0664C37.7928 26.3533 37.6599 26.603 37.5562 26.9483C37.4525 27.2936 37.3488 27.6389 37.3699 28.0507C37.4283 28.242 37.3618 28.3668 37.3246 28.5873C37.2873 28.8078 37.1836 29.1531 37.2712 29.44C37.3587 29.727 37.2258 29.9766 37.0929 30.2263C36.8936 30.6008 36.9147 31.0126 36.9358 31.4244C36.8613 31.8653 36.9116 32.3727 36.6166 32.7764C36.521 32.8056 36.5502 32.9013 36.5793 32.9969C36.7626 33.2546 36.6297 33.5043 36.5259 33.8496C36.5551 33.9453 36.4595 33.9745 36.4887 34.0701C36.5974 34.7688 36.2359 35.2974 36.2198 35.9296C35.9913 36.2085 36.2993 36.5327 36.0708 36.8115C35.9379 37.0612 35.9298 37.3773 35.9217 37.6935C35.8472 38.1344 35.7727 38.5754 35.6025 39.0455C35.5361 39.1704 35.4696 39.2952 35.528 39.4865C35.5119 40.1187 35.3417 40.5889 35.2299 41.2503C35.1262 41.5956 35.0225 41.941 34.7939 42.2198C34.6902 42.5651 34.5573 42.8148 34.4244 43.0645C34.5784 43.2266 34.6741 43.1974 34.7697 43.1682C34.961 43.1098 35.2479 43.0222 35.4976 43.1551C35.6225 43.2216 35.7181 43.1924 35.8137 43.1632C36.1007 43.0756 36.292 43.0173 36.5708 43.2458C36.5708 43.2458 36.6957 43.3123 36.7913 43.2831C37.1739 43.1663 37.5484 43.3657 37.8645 43.3737C38.4011 43.4191 38.9669 43.56 39.4371 43.7302C40.1277 43.9376 40.8183 44.145 41.3761 44.6021C41.4053 44.6978 41.6257 44.735 41.7214 44.7059C42.0375 44.7139 42.1624 44.7804 42.3456 45.0381C42.4704 45.1046 42.5952 45.171 42.7201 45.2375C43.0654 45.3412 43.3443 45.5697 43.6231 45.7983C43.6523 45.8939 43.7772 45.9604 43.902 46.0268C44.6802 46.5212 45.2671 47.0739 45.9497 47.5975C46.2205 48.1422 46.8155 48.3788 47.2484 48.7694C47.7396 49.3514 48.4222 49.8749 48.7222 50.5152C48.7514 50.6109 48.9054 50.773 49.0302 50.8394C49.5004 51.0096 49.6464 51.4878 49.9836 51.9076C50.1376 52.0697 50.196 52.261 50.3792 52.5188C50.6873 52.843 50.8997 53.1963 51.1413 53.6454C51.3829 54.0944 51.6537 54.6391 51.991 55.0589C52.0202 55.1546 52.145 55.221 52.1742 55.3167C52.2326 55.5079 52.2618 55.6036 52.4158 55.7657C52.8195 56.0607 53.0319 56.4141 53.0822 56.9215C53.1406 57.1128 53.2282 57.3997 53.3822 57.5618C53.6238 58.0108 53.9319 58.335 53.9157 58.9673C53.9449 59.0629 53.9741 59.1586 54.0033 59.2542C54.2822 59.4828 54.3989 59.8653 54.3909 60.1815C54.5076 60.564 54.72 60.9174 54.866 61.3956C55.0704 62.0651 55.2747 62.7347 55.3834 63.4334C55.4418 63.6246 55.3753 63.7495 55.4337 63.9408C55.5797 64.419 55.6964 64.8016 55.8424 65.2798C55.9592 65.6624 55.8846 66.1033 56.0014 66.4859C56.0598 66.6772 56.0225 66.8977 56.1766 67.0598C56.3598 67.3175 56.4474 67.6044 56.3145 67.8541C56.2772 68.0746 56.2399 68.2951 56.4232 68.5528C56.5399 68.9354 56.6567 69.318 56.6486 69.6341C56.6406 69.9502 56.8238 70.208 56.6244 70.5825L56.6536 70.6781C56.8952 71.1272 56.7542 71.6929 56.8046 72.2004C56.8921 72.4873 56.9133 72.8991 56.9052 73.2152C56.8015 73.5605 56.9847 73.8182 56.9766 74.1344C57.0058 74.23 56.9686 74.4505 56.9978 74.5461C56.9816 75.1784 57.0611 75.7814 56.9493 76.4429C56.9413 76.759 56.9624 77.1708 56.9543 77.4869C56.9755 77.8987 56.9966 78.3104 56.9885 78.6266C56.9804 78.9427 56.9432 79.1632 57.0308 79.4501C57.0811 79.9575 57.1314 80.4649 56.9612 80.9351C56.8948 81.0599 56.9532 81.2512 56.9823 81.3469C57.2239 81.7959 57.1494 82.2368 57.0749 82.6778C57.0588 83.3101 56.9178 83.8759 57.093 84.4497L57.1221 84.5454C56.9228 84.9199 57.1352 85.2733 57.0315 85.6186C56.965 85.7434 57.0234 85.9347 56.957 86.0595C56.9862 86.1552 56.9197 86.28 56.8533 86.4049C56.9911 87.1992 56.8129 87.9855 56.9508 88.7798C56.8098 89.3456 56.9558 89.8238 56.9105 90.3605C56.8651 90.8971 56.9154 91.4045 56.8409 91.8454C56.7745 91.9703 56.8037 92.0659 56.8329 92.1616C57.0745 92.6106 56.8751 92.9851 56.8006 93.4261C56.7341 93.5509 56.7633 93.6465 56.8217 93.8378L56.8509 93.9335C56.864 94.6614 56.7522 95.3228 56.7652 96.0507C56.7652 96.0507 56.7652 96.0507 56.7944 96.1463C56.9323 96.9407 56.6292 97.6605 56.7671 98.4549C56.8547 98.7418 56.751 99.0871 56.6181 99.3368C56.5808 99.5573 56.4187 99.7113 56.6976 99.9398C56.6976 99.9398 56.7268 100.035 56.756 100.131C56.6523 100.476 56.769 100.859 56.8566 101.146C57.0982 101.595 56.9945 101.94 56.7952 102.315C56.5958 102.689 56.6461 103.197 56.4468 103.571C56.4468 103.571 56.3803 103.696 56.4759 103.667C56.7548 103.895 56.5555 104.27 56.5182 104.49C56.4437 104.931 56.3692 105.372 56.5816 105.726C56.6108 105.821 56.6399 105.917 56.5735 106.042C56.3077 106.541 56.4536 107.019 56.4083 107.556C56.4002 107.872 56.4214 108.284 56.4133 108.6C56.4052 108.916 56.3015 109.261 56.3891 109.548C56.381 109.865 56.4978 110.247 56.3649 110.497C56.3941 110.592 56.4233 110.688 56.4525 110.784C56.5109 110.975 56.4444 111.1 56.4071 111.32C56.3034 111.666 56.2954 111.982 56.3829 112.269C56.5581 112.843 56.5419 113.475 56.401 114.041C56.3637 114.261 56.2973 114.386 56.3557 114.577C56.4432 114.864 56.5308 115.151 56.3023 115.43C56.3234 115.842 56.3153 116.158 56.4321 116.54C56.4824 117.048 56.6283 117.526 56.4874 118.092C56.4209 118.217 56.4793 118.408 56.5377 118.599C56.7128 119.173 56.7632 119.681 56.6222 120.246C56.5557 120.371 56.5849 120.467 56.6141 120.562C56.7147 121.577 56.7862 122.496 56.8868 123.511C56.916 123.607 56.9452 123.703 56.9744 123.798C57.0036 123.894 57.062 124.085 56.9955 124.21C56.9583 124.43 56.921 124.651 57.075 124.813C57.1042 124.909 57.0378 125.034 57.067 125.129C57.0589 125.445 56.9844 125.886 57.1968 126.24C56.8223 126.04 56.7186 126.386 56.49 126.664ZM24.2766 34.138C24.335 34.3293 24.3934 34.5206 24.5474 34.6827C24.5474 34.6827 24.643 34.6535 24.6722 34.7492C24.7387 34.6243 24.6803 34.433 24.6511 34.3374C24.5635 34.0505 24.4679 34.0796 24.2766 34.138C24.2182 33.9467 24.1598 33.7555 24.1014 33.5642C24.0722 33.4685 24.0139 33.2772 23.889 33.2108C23.6102 32.9822 23.5226 32.6953 23.3394 32.4376C23.3102 32.3419 23.281 32.2463 23.2226 32.055C22.7978 31.3482 22.3729 30.6414 21.9481 29.9347C21.9189 29.839 21.8897 29.7434 21.7649 29.6769C21.5525 29.3235 21.5022 28.8161 21.0985 28.5211C20.9736 28.4547 20.9153 28.2634 20.8861 28.1677C20.8569 28.0721 20.7985 27.8808 20.7028 27.91C20.2991 27.615 20.278 27.2032 20.0656 26.8498C19.8532 26.4965 19.4787 26.2971 19.4284 25.7897L19.3992 25.694C19.0539 25.5903 19.0992 25.0537 18.7247 24.8544C18.7327 24.5382 18.3874 24.4345 18.2999 24.1476C18.0502 24.0147 17.867 23.757 17.7794 23.47C17.7794 23.47 17.7794 23.47 17.7502 23.3744C17.3465 23.0794 16.9428 22.7844 16.377 22.6434C15.8112 22.5024 15.3702 22.4279 14.8336 22.3826C14.7088 22.3161 14.5175 22.3745 14.4802 22.595C14.7883 22.9192 15.1256 23.339 15.4336 23.6632C15.5584 23.7297 15.6168 23.921 15.8081 23.8626C16.0286 23.8998 16.087 24.0911 16.241 24.2532C16.4826 24.7022 16.7907 25.0264 17.1944 25.3214C17.3484 25.4835 17.6273 25.7121 17.6856 25.9034C17.8981 26.2568 18.2061 26.581 18.485 26.8095C18.639 26.9716 18.793 27.1337 18.8514 27.325C19.0638 27.6784 19.3719 28.0026 19.5843 28.3559C19.6719 28.6429 20.0172 28.7466 20.1048 29.0335C20.4209 29.0416 20.4793 29.2329 20.5377 29.4242C20.5669 29.5198 20.6917 29.5863 20.8457 29.7484C20.9706 29.8148 20.9333 30.0353 21.0873 30.1974C21.2414 30.3595 21.491 30.4924 21.5494 30.6837C21.637 30.9706 21.9531 30.9787 21.945 31.2948C21.945 31.2948 22.0034 31.4861 22.0991 31.4569C22.4736 31.6563 22.5612 31.9432 22.7736 32.2966C22.8611 32.5835 23.0152 32.7456 23.2648 32.8785C23.3897 32.945 23.4481 33.1363 23.6021 33.2984C23.7481 33.7766 23.8729 33.843 24.2766 34.138ZM30.9451 40.5716C31.2985 40.3592 31.2985 40.3592 31.3066 40.043C31.3147 39.7269 31.2271 39.44 31.36 39.1903C31.4637 38.845 31.1848 38.6164 31.2221 38.396C31.1929 38.3003 31.1929 38.3003 31.2594 38.1755C31.4295 37.7053 31.1879 37.2563 31.3581 36.7861C31.3289 36.6905 31.2997 36.5949 31.2705 36.4992C31.0873 36.2415 31.2866 35.867 31.1699 35.4844C31.1407 35.3887 31.1779 35.1683 31.2444 35.0434C31.2817 34.8229 31.2233 34.6317 31.1649 34.4404C31.1438 34.0286 31.0934 33.5212 31.168 33.0802C31.2425 32.6393 31.2214 32.2275 31.009 31.8741C30.9506 31.6828 30.8922 31.4915 30.9294 31.2711C31.0996 30.8009 30.7624 30.3811 30.8369 29.9401C30.4704 29.4246 30.8027 28.8004 30.5319 28.2558C30.6648 28.0061 30.548 27.6235 30.4605 27.3366C30.4685 27.0205 30.2853 26.7627 30.4182 26.513C30.389 26.4174 30.3598 26.3218 30.3306 26.2261C30.1474 25.9684 30.1263 25.5566 30.1344 25.2405C30.1132 24.8287 30.217 24.4834 30.0045 24.13C29.8213 23.8723 30.1163 23.4686 29.8375 23.24L29.8083 23.1444C29.9412 22.8947 29.7871 22.7326 29.8244 22.5121C29.7741 22.0047 29.4368 21.5849 29.5778 21.0191C29.5486 20.9234 29.5194 20.8278 29.4902 20.7321C29.461 20.6365 29.4319 20.5409 29.4027 20.4452C29.3815 20.0334 29.1319 19.9005 28.8822 19.7676C28.6617 19.7304 28.5077 19.5683 28.2872 19.531C28.0003 19.6186 27.8382 19.7726 27.5804 19.9558C27.1898 20.3887 26.7035 20.8508 26.1296 21.026C25.9383 21.0843 25.7471 21.1427 25.5558 21.2011C25.3937 21.3551 25.2688 21.2887 25.0484 21.2514C24.7322 21.2434 24.4161 21.2353 24.1372 21.0067C24.0124 20.9403 23.7919 20.903 23.6671 20.8366C23.3218 20.7329 22.91 20.754 22.469 20.6795C21.9989 20.5093 21.6455 20.7217 21.2257 21.059C21.122 21.4043 20.7686 21.6167 20.6065 21.7707C20.2823 22.0788 20.0537 22.3576 19.6711 22.4744C19.3842 22.562 19.347 22.7825 19.5302 23.0402C19.5594 23.1359 19.6842 23.2023 19.7134 23.298C20.0215 23.6221 20.2339 23.9755 20.4463 24.3289C20.8127 24.8444 21.0835 25.3891 21.5456 25.8754C21.8828 26.2952 22.1536 26.8399 22.4244 27.3845C22.4828 27.5758 22.7909 27.9 22.9741 28.1578C23.0989 28.2242 23.1573 28.4155 23.1865 28.5112C23.2157 28.6068 23.2741 28.7981 23.2741 28.7981C23.5238 28.931 23.5821 29.1223 23.5741 29.4384C23.9113 29.8582 24.1529 30.3073 24.4237 30.8519C24.6734 30.9848 24.7318 31.1761 24.8194 31.4631C24.8777 31.6544 24.9653 31.9413 25.1193 32.1034C25.4566 32.5232 25.823 33.0387 25.969 33.5169C26.1814 33.8703 26.3938 34.2237 26.5106 34.6063C26.6274 34.9889 26.7149 35.2758 27.023 35.6C27.1478 35.6664 27.1106 35.8869 27.1398 35.9826C27.1689 36.0782 27.2273 36.2695 27.323 36.2403C27.5726 36.3732 27.6602 36.6601 27.623 36.8806C27.6522 36.9763 27.6813 37.0719 27.7105 37.1675C27.9894 37.3961 28.077 37.683 28.2602 37.9408C28.2602 37.9408 28.385 38.0072 28.5099 38.0737C28.4223 37.7867 28.2683 37.6246 28.1807 37.3377C28.1223 37.1464 28.1304 36.8303 28.072 36.639L28.0428 36.5434C27.8304 36.19 27.8093 35.7782 27.7881 35.3664C27.4801 35.0423 27.3925 34.7553 27.2757 34.3727C27.2174 34.1815 27.1882 34.0858 27.2254 33.8653C27.1459 33.2623 27.0664 32.6592 26.7 32.1437C26.6416 31.9524 26.6124 31.8568 26.554 31.6655C26.4372 31.2829 26.3497 30.996 26.3285 30.5842C25.8957 30.1936 26.1031 29.503 25.7658 29.0831C25.6118 28.921 25.6491 28.7005 25.6863 28.4801C25.341 28.3763 25.6652 28.0683 25.5112 27.9062C25.2988 27.5528 25.182 27.1702 25.036 26.692C24.8236 26.3386 24.8689 25.802 24.5609 25.4778C24.5317 25.3822 24.5025 25.2865 24.4441 25.0952C24.4522 24.7791 24.269 24.5214 24.0857 24.2636C23.7193 23.7482 23.5442 23.1743 23.0821 22.688C22.928 22.5259 22.7448 22.2682 22.8777 22.0185C23.518 21.7185 24.0547 21.7638 24.4875 22.1545C24.9788 22.7364 25.4701 23.3183 25.608 24.1127C25.6372 24.2083 25.6956 24.3996 25.7248 24.4953C26.0539 25.2312 26.5744 25.9088 26.521 26.7615C26.5502 26.8572 26.5502 26.8572 26.5794 26.9528C26.9458 27.4683 27.121 28.0422 27.2961 28.616C27.3253 28.7117 27.3545 28.8073 27.4129 28.9986C27.5881 29.5725 27.6968 30.2712 27.8719 30.8451C28.0471 31.4189 28.3179 31.9636 28.3974 32.5666C28.4557 32.7579 28.4849 32.8536 28.639 33.0157C28.6682 33.1113 28.793 33.1778 28.6974 33.207C28.6893 33.5231 28.8433 33.6852 28.9309 33.9721C29.0185 34.2591 29.0104 34.5752 29.0688 34.7665C29.2812 35.1199 29.2731 35.436 29.3899 35.8186C29.4775 36.1055 29.6607 36.3632 29.557 36.7085C29.4905 36.8334 29.6154 36.8998 29.6445 36.9955C29.7986 37.1576 29.8278 37.2532 29.7905 37.4737C29.7241 37.5985 29.8781 37.7606 29.9073 37.8563C29.9657 38.0476 30.0532 38.3345 30.1116 38.5258C30.17 38.7171 30.2284 38.9084 30.2868 39.0997C30.3743 39.3866 30.5576 39.6443 30.616 39.8356C30.9532 40.2555 30.9159 40.4759 30.9451 40.5716C30.9743 40.6672 30.9743 40.6672 31.0035 40.7629C30.9743 40.6672 30.9743 40.6672 30.9451 40.5716ZM54.4555 99.7877C54.1686 99.8753 54.0065 100.029 53.778 100.308C53.3873 100.741 52.9967 101.174 52.4228 101.349C52.1359 101.437 51.8781 101.62 51.716 101.774C51.6204 101.803 51.5539 101.928 51.4583 101.957C51.1422 101.949 50.9136 102.228 50.6559 102.411C50.4062 102.278 50.2814 102.212 50.0317 102.079C49.9733 101.888 49.9441 101.792 50.0106 101.667C49.9814 101.572 50.0478 101.447 50.1143 101.322C50.4969 101.205 50.7546 101.022 50.9831 100.743C51.0496 100.618 51.1452 100.589 51.2409 100.56C51.557 100.568 51.7191 100.414 51.852 100.164C52.1762 99.8561 52.5296 99.6437 52.9786 99.4021C53.332 99.1896 53.7146 99.0729 54.1636 98.8313C54.517 98.6189 54.812 98.2152 54.6952 97.8326C54.6369 97.6413 54.6077 97.5456 54.5493 97.3544C54.5865 97.1339 54.653 97.009 54.6902 96.7886C54.7275 96.5681 54.7648 96.3476 54.802 96.1271C54.8474 95.5905 54.797 95.0831 54.7175 94.48C54.6883 94.3844 54.6592 94.2888 54.7548 94.2596C54.8877 94.0099 54.8293 93.8186 54.7709 93.6273C54.7125 93.436 54.779 93.3112 54.7206 93.1199C54.7287 92.8038 54.7076 92.392 54.5616 91.9138C54.3039 92.097 54.1418 92.251 53.884 92.4343C53.7219 92.5883 53.5598 92.7423 53.3685 92.8007C52.5369 93.1591 51.801 93.4882 50.911 93.6553C50.6241 93.7429 50.462 93.8969 50.175 93.9845C49.8881 94.0721 49.6676 94.0348 49.4099 94.218C49.1521 94.4013 48.7404 94.4224 48.4534 94.51C47.6883 94.7435 47.0933 94.5069 46.6685 93.8001C46.6101 93.6088 46.6473 93.3883 46.8386 93.33C47.0964 93.1467 47.2876 93.0884 47.5746 93.0008C48.0528 92.8548 48.6559 92.7753 49.1341 92.6294C49.421 92.5418 49.7371 92.5498 49.8992 92.3958C50.606 91.971 51.4295 91.9287 52.0407 91.5331C52.1363 91.5039 52.232 91.4747 52.3276 91.4455C52.6437 91.4536 53.0555 91.4325 53.4381 91.3157C53.8207 91.199 54.1368 91.207 54.5485 91.1859C54.7106 91.0319 54.7771 90.907 54.9392 90.753C54.7932 90.2748 54.764 90.1791 54.7721 89.863C54.8386 89.7382 54.7802 89.5469 54.8466 89.422C54.8044 88.5985 54.887 87.8414 54.8447 87.0179C54.7863 86.8266 54.8528 86.7018 54.8901 86.4813C54.8609 86.3856 54.9273 86.2608 54.8981 86.1652C54.3907 86.2155 54.133 86.3987 53.7796 86.6111C53.5883 86.6695 53.4262 86.8235 53.2349 86.8819C53.0436 86.9403 52.8523 86.9987 52.6902 87.1527C52.5281 87.3067 52.3368 87.3651 52.1164 87.3278C51.5798 87.2825 51.0059 87.4577 50.4028 87.5372C50.0867 87.5291 49.7998 87.6167 49.5501 87.4838L49.6166 87.3589C50.3233 86.9341 50.9053 86.4428 51.612 86.018C51.8698 85.8348 52.0611 85.7764 52.348 85.6888C52.6349 85.6013 53.0175 85.4845 53.2752 85.3013C53.533 85.1181 53.7535 85.1553 54.0112 84.9721C54.269 84.7889 54.4602 84.7305 54.6807 84.7678C54.7844 84.4224 54.9173 84.1728 54.9254 83.8566C54.867 83.6654 55.0291 83.5113 54.9999 83.4157C54.9415 83.2244 54.9124 83.1287 54.9496 82.9083C55.0825 82.6586 54.8993 82.4008 54.5832 82.3928C54.3627 82.3555 54.1714 82.4139 54.0093 82.5679C53.9429 82.6928 53.8472 82.722 53.7516 82.7512C53.3982 82.9636 53.0156 83.0803 52.7287 83.1679C52.3753 83.3803 51.9343 83.3058 51.6101 83.6139C51.0071 83.6934 50.4251 84.1846 49.8221 84.2641C49.6892 84.5138 49.3439 84.4101 49.1526 84.4685C48.5203 84.4524 47.8881 84.4362 47.3223 84.2952C47.2266 84.3244 47.1018 84.258 46.977 84.1915C47.0726 84.1623 47.1391 84.0375 47.2347 84.0083C47.9415 83.5835 48.6482 83.1587 49.3842 82.8295C49.5755 82.7711 49.7376 82.6171 49.9289 82.5587C50.4363 82.5084 50.8561 82.1711 51.3635 82.1208C51.5548 82.0624 51.7461 82.004 51.9082 81.85C52.3945 81.3879 53.0932 81.2792 53.7335 80.9792C54.1161 80.8625 54.4695 80.6501 54.8521 80.5333C54.8893 80.3128 54.8309 80.1215 54.8682 79.901C54.9055 79.6806 54.8179 79.3936 54.98 79.2396C54.98 79.2396 54.9508 79.144 54.9216 79.0483C54.8924 78.9527 54.834 78.7614 54.8048 78.6657C54.7837 78.254 54.7334 77.7466 54.7123 77.3348C54.6992 76.6069 54.7818 75.8498 54.6439 75.0555C54.6439 75.0555 54.6147 74.9598 54.7104 74.9306C54.7184 74.6145 54.7557 74.394 54.6681 74.1071C54.5222 73.6289 54.7215 73.2544 54.6712 72.7469C54.8705 72.3724 54.5917 72.1439 54.4377 71.9818C54.1799 72.165 53.8265 72.3774 53.6936 72.6271C53.5607 72.8768 53.3402 72.8395 53.1198 72.8022C52.9949 72.7358 52.8701 72.6693 52.7453 72.6029C52.849 72.2576 53.0775 71.9787 53.3644 71.8911C53.8135 71.6495 54.3209 71.5992 54.7115 71.1663C54.4991 70.8129 54.6028 70.4676 54.4861 70.085C54.4569 69.9894 54.4277 69.8937 54.4941 69.7689C54.6935 69.3944 54.4811 69.041 54.5556 68.6001C54.173 68.7168 53.7613 68.738 53.5992 68.892C53.3414 69.0752 53.0837 69.2584 52.7011 69.3752C52.6055 69.4044 52.5098 69.4336 52.539 69.5292C52.2893 69.3963 52.1272 69.5503 51.8111 69.5423C51.3913 69.8795 50.8839 69.9298 50.4348 70.1714C50.1771 70.3547 49.8902 70.4422 49.574 70.4342C49.3827 70.4925 49.1915 70.5509 49.0002 70.6093C48.7424 70.7925 48.3307 70.8137 47.9481 70.9304C47.6611 71.018 47.345 71.0099 47.0873 71.1932C46.8003 71.2807 46.5134 71.3683 46.1681 71.2646C45.5067 71.1528 44.9409 71.0118 44.2794 70.9001C44.1838 70.9293 44.0589 70.8628 44.1254 70.738C44.221 70.7088 44.221 70.7088 44.2875 70.5839C44.6701 70.4672 45.0526 70.3504 45.406 70.138C45.7594 69.9256 46.1712 69.9044 46.3997 69.6256L46.4954 69.5964C46.7159 69.6337 46.9363 69.6709 47.1941 69.4877C47.3562 69.3337 47.7307 69.533 47.8344 69.1877L47.93 69.1585C48.1797 69.2914 48.3418 69.1374 48.6287 69.0498C48.82 68.9914 49.1361 68.9995 49.2691 68.7498C49.2691 68.7498 49.3355 68.625 49.4603 68.6914C49.7765 68.6995 50.0342 68.5163 50.1963 68.3623C50.4832 68.2747 50.8366 68.0623 51.1527 68.0703C51.344 68.012 51.5353 67.9536 51.6974 67.7996C52.0508 67.5871 52.4042 67.3747 52.7576 67.1623C53.1402 67.0455 53.3979 66.8623 53.7221 66.5543C53.9798 66.371 54.0171 66.1506 53.9587 65.9593C53.8711 65.6723 53.8792 65.3562 53.8208 65.1649C53.7916 65.0693 53.7916 65.0693 53.7624 64.9736C53.5792 64.7159 53.4624 64.3333 53.4705 64.0172C53.4283 63.1937 53.0991 62.4577 52.932 61.5677C52.9028 61.4721 52.6823 61.4348 52.5867 61.464C52.2625 61.7721 51.9383 62.0801 51.6433 62.4838C51.4439 62.8583 51.0906 63.0707 50.6415 63.3123C50.3838 63.4956 50.0012 63.6123 49.7435 63.7955C49.6478 63.8247 49.4857 63.9788 49.3901 64.008C48.9783 64.0291 48.779 64.4036 48.3964 64.5204C48.3007 64.5495 48.2343 64.6744 48.1386 64.7036C47.5648 64.8787 47.0785 65.3408 46.5046 65.516C46.0556 65.7576 45.5482 65.8079 45.0488 65.5421C45.0861 65.3216 45.0277 65.1303 45.0358 64.8142C45.2935 64.631 45.5221 64.3521 45.7798 64.1689C46.1996 63.8316 46.7443 63.5608 47.1933 63.3192C47.289 63.29 47.3846 63.2608 47.4803 63.2317C47.6716 63.1733 47.8629 63.1149 47.9293 62.99C47.9958 62.8652 48.187 62.8068 48.3783 62.7484C48.474 62.7193 48.5696 62.6901 48.6361 62.5652C48.8646 62.2864 49.1516 62.1988 49.4385 62.1112C49.6298 62.0528 49.7254 62.0236 49.8875 61.8696C50.0204 61.6199 50.3074 61.5324 50.5943 61.4448C51.1973 61.3653 51.7128 60.9988 52.2867 60.8237C52.3823 60.7945 52.4488 60.6697 52.4488 60.6697C52.332 60.2871 52.3109 59.8753 52.032 59.6468C51.8196 59.2934 51.732 59.0064 51.7401 58.6903L51.7109 58.5947C51.5569 58.4326 51.5942 58.2121 51.4693 58.1456C51.3153 57.9835 51.4482 57.7339 51.1985 57.601C50.9489 57.4681 51.1774 57.1892 51.0526 57.1227C51.0234 57.0271 50.8985 56.9606 50.8693 56.865C50.5451 57.1731 50.0961 57.4147 49.7135 57.5314C49.7135 57.5314 49.6179 57.5606 49.6471 57.6563C49.2564 58.0892 48.7118 58.36 48.1671 58.6308C47.5268 58.9307 46.9157 59.3264 46.2753 59.6264C46.0841 59.6847 45.922 59.8388 45.7599 59.9928C45.5021 60.176 45.3481 60.0139 45.0612 60.1015C45.0612 60.1015 45.0612 60.1015 44.9655 60.1307C44.3625 60.2102 43.855 60.2605 43.252 60.34C43.1563 60.3692 42.9651 60.4276 42.9067 60.2363C43.393 59.7742 43.9084 59.4078 44.5196 59.0122C44.6817 58.8581 44.8729 58.7997 44.9394 58.6749C45.1971 58.4917 45.9704 57.942 46.3529 57.8253C46.5442 57.7669 46.7647 57.8041 46.8684 57.4588C46.8392 57.3632 47.1262 57.2756 47.2218 57.2464C47.4423 57.2837 47.6044 57.1296 47.8621 56.9464C48.0242 56.7924 48.3403 56.8005 48.5024 56.6464C48.8266 56.3384 49.18 56.126 49.6291 55.8844C50.0116 55.7676 50.1818 55.2974 49.8737 54.9732C49.6905 54.7155 49.6029 54.4286 49.4197 54.1708C49.2365 53.9131 48.9576 53.6845 48.7744 53.4268C48.6496 53.3603 48.5912 53.1691 48.562 53.0734C48.3496 52.72 48.0707 52.4915 47.8583 52.1381C47.667 52.1965 47.5714 52.2257 47.4757 52.2549C47.3428 52.5045 47.0559 52.5921 46.8938 52.7461C46.474 53.0834 46.0249 53.325 45.5095 53.6914C45.0896 54.0287 44.7362 54.2411 44.258 54.387C43.8754 54.5038 43.655 54.4666 43.3761 54.238C43.4134 54.0175 43.4506 53.797 43.4214 53.7014C43.3922 53.6058 43.4879 53.5766 43.4587 53.4809C43.6872 53.2021 43.8866 52.8275 44.24 52.6151C44.4021 52.4611 44.6598 52.2779 44.8219 52.1239C45.3082 51.6618 45.6988 51.2289 46.2435 50.9581C46.3392 50.9289 46.3764 50.7084 46.4721 50.6792C46.4429 50.5836 46.4429 50.5836 46.4429 50.5836C46.164 50.355 46.0764 50.0681 45.8932 49.8104C45.71 49.5526 45.4311 49.3241 45.1814 49.1912C44.9318 49.0583 44.7486 48.8005 44.5945 48.6384C44.1616 48.2478 43.5666 48.0112 43.2959 47.4665C43.2667 47.3708 43.1418 47.3044 43.0462 47.3336C42.4804 47.1926 42.0767 46.8976 41.7102 46.3821C41.5854 46.3157 41.4314 46.1536 41.3065 46.0871C40.8656 46.0126 40.5283 45.5928 40.1166 45.6139L39.9917 45.5474C39.8085 45.2897 39.588 45.2524 39.2427 45.1487C39.0222 45.1115 38.8682 44.9494 38.6769 45.0077C38.4564 44.9705 38.2068 44.8376 37.9863 44.8003C37.5453 44.7258 37.1044 44.6513 36.7298 44.4519C36.605 44.3855 36.5094 44.4147 36.4137 44.4439C36.156 44.6271 35.8107 44.5234 35.4945 44.5153C34.9871 44.5656 34.4878 44.2998 34.0388 44.5414C33.9431 44.5706 33.9431 44.5706 33.8183 44.5041C33.6934 44.4377 33.5021 44.4961 33.4065 44.5253C32.8034 44.6048 32.0755 44.6178 31.4725 44.6973C31.1564 44.6893 30.7446 44.7104 30.4285 44.7023C30.2664 44.8564 30.2291 45.0768 30.1627 45.2017C30.0962 45.3265 30.0298 45.4513 29.9341 45.4805C29.5807 45.6929 29.5727 46.0091 29.3441 46.2879C29.1156 46.5668 29.041 47.0078 29.033 47.3239C29.0622 47.4195 28.9665 47.4487 28.9957 47.5444C28.8256 48.0145 28.751 48.4555 28.5809 48.9256C28.5144 49.0505 28.4772 49.271 28.5063 49.3666C28.4691 49.5871 28.4318 49.8076 28.2989 50.0572C28.1368 50.2113 28.0996 50.4317 28.1579 50.623C28.2747 51.0056 28.0462 51.2845 27.7884 51.4677C27.8307 52.2912 27.7481 53.0483 27.3202 53.7017C27.2245 53.7309 27.2537 53.8265 27.2829 53.9222C27.3997 54.3047 27.2668 54.5544 27.0382 54.8333C26.9718 54.9581 27.001 55.0538 26.9345 55.1786C26.8016 55.4283 27.014 55.7817 26.6606 55.9941C26.565 56.0233 26.6234 56.2145 26.6234 56.2145C26.711 56.5015 26.6445 56.6263 26.5116 56.876C26.4371 57.317 26.3626 57.7579 26.2588 58.1032C26.1843 58.5442 26.2346 59.0516 26.0353 59.4261C26.1229 59.713 25.8651 59.8963 25.857 60.2124C25.8782 60.6242 25.7745 60.9695 25.7956 61.3812C25.8167 61.793 25.7422 62.234 25.6385 62.5793C25.572 62.7041 25.6304 62.8954 25.6596 62.9911C25.8509 62.9327 25.9465 62.9035 26.1378 62.8451C26.5868 62.6035 26.9694 62.4867 27.4185 62.2451C27.5141 62.2159 27.6097 62.1867 27.7054 62.1575C28.0215 62.1656 28.2712 62.2985 28.4544 62.5563C28.5047 63.0637 28.2762 63.3425 27.952 63.6506C27.6359 63.6425 27.3781 63.8257 27.0328 63.722C26.5626 63.5519 26.1801 63.6686 25.6435 63.6233C25.5689 64.0643 25.5609 64.3804 25.4572 64.7257C25.4491 65.0418 25.3162 65.2915 25.4994 65.5492C25.5286 65.6449 25.5578 65.7405 25.4913 65.8654C25.4541 66.0859 25.4833 66.1815 25.446 66.402C25.4379 66.7181 25.592 66.8802 25.8789 66.7926C26.3571 66.6467 26.8353 66.5007 27.2763 66.5752C27.3719 66.546 27.4676 66.5168 27.5632 66.4877C27.821 66.3044 28.0415 66.3417 28.2619 66.3789C28.4824 66.4162 28.5781 66.387 28.711 66.1373C28.8066 66.1082 28.9023 66.079 28.9979 66.0498C29.0935 66.0206 29.314 66.0578 29.3805 65.933C29.6382 65.7498 29.9835 65.8535 30.1748 65.7951C30.4618 65.7075 30.7779 65.7156 30.9692 65.6572C31.4766 65.6069 31.984 65.5566 32.4914 65.5063C32.5871 65.4771 32.6827 65.4479 32.8075 65.5143C32.9032 65.4851 32.9988 65.456 33.0572 65.6472C32.6666 66.0801 32.1511 66.4466 31.7021 66.6882C31.3487 66.9006 30.9953 67.113 30.6419 67.3254C30.355 67.413 30.0972 67.5962 29.8767 67.559C30.1556 67.7875 30.06 67.8167 29.8687 67.8751C29.4861 67.9918 29.1327 68.2043 28.7209 68.2254C28.434 68.313 28.2135 68.2757 27.9266 68.3633C27.7353 68.4217 27.544 68.48 27.3235 68.4428C26.8826 68.3683 26.5292 68.5807 26.1758 68.7931C25.9845 68.8515 25.9473 69.072 26.0056 69.2632C26.2181 69.6166 26.21 69.9327 26.1063 70.2781C26.069 70.4985 26.1566 70.7855 26.215 70.9768C26.369 71.1389 26.5603 71.0805 26.7516 71.0221C27.2298 70.8761 27.6124 70.7594 28.1198 70.7091C28.6937 70.5339 29.2303 70.5792 29.8253 70.8159C29.9048 71.4189 29.3601 71.6897 29.0359 71.9978C28.2788 71.9152 27.4633 71.6413 26.6398 71.6835C26.6317 71.9997 26.7193 72.2866 26.682 72.5071C26.6367 73.0437 26.8491 73.3971 26.9951 73.8753C27.0243 73.9709 27.0535 74.0666 27.0827 74.1622C27.0746 74.4783 27.287 74.8317 27.2789 75.1479C27.882 75.0683 28.3521 75.2385 28.8676 74.8721L28.9633 74.8429C29.0881 74.9093 29.2794 74.8509 29.375 74.8218C29.5663 74.7634 29.7576 74.705 29.9781 74.7422C30.1029 74.8087 30.1986 74.7795 30.265 74.6547C30.3607 74.6255 30.4271 74.5006 30.5228 74.4715C30.9637 74.546 31.2879 74.2379 31.6997 74.2168C32.1115 74.1957 32.4649 73.9833 32.8474 73.8665C33.0387 73.8081 33.3257 73.7205 33.5461 73.7578C34.0535 73.7075 34.4945 73.782 34.9727 73.636C35.2597 73.5485 35.6714 73.5273 35.9211 73.6602C35.8255 73.6894 35.8547 73.7851 35.759 73.8143C35.2727 74.2764 34.6032 74.4807 34.1461 75.0384C34.0505 75.0676 34.0505 75.0676 33.9548 75.0968C33.7635 75.1552 33.6014 75.3092 33.4101 75.3676C33.1232 75.4552 32.9611 75.6092 32.645 75.6011C32.3289 75.5931 32.1376 75.6515 31.9755 75.8055C31.6302 75.7018 31.4016 75.9806 31.1147 76.0682C31.019 76.0974 30.9234 76.1266 30.8278 76.1558C30.7321 76.185 30.5408 76.2434 30.416 76.1769C29.8421 76.3521 29.1726 76.5564 28.5404 76.5403C28.3199 76.503 28.1578 76.657 27.8708 76.7446C28.3329 77.2309 28.2795 78.0836 28.9037 78.4159C28.9994 78.3867 29.095 78.3575 29.095 78.3575C29.831 78.0283 30.6253 77.8904 31.4489 77.8482C32.0519 77.7687 32.6842 77.7848 33.4121 77.7718L33.4412 77.8674C33.0506 78.3003 32.6016 78.5419 32.1817 78.8792C31.8575 79.1872 31.4085 79.4288 30.9303 79.5748C30.739 79.6332 30.4521 79.7207 30.2608 79.7791C30.0695 79.8375 29.849 79.8002 29.7161 80.0499C29.7453 80.1456 29.7372 80.4617 29.8621 80.5281C30.2658 80.8231 30.3161 81.3306 30.6241 81.6548C30.9322 81.9789 31.049 82.3615 31.2614 82.7149C31.4446 82.9726 31.5694 83.0391 31.8856 83.0472C32.0768 82.9888 32.2017 83.0552 32.3638 82.9012C32.4302 82.7764 32.5259 82.7472 32.6215 82.718C32.9376 82.7261 33.291 82.5136 33.578 82.4261C33.8649 82.3385 34.1518 82.2509 34.4096 82.0677C34.5052 82.0385 34.6009 82.0093 34.7257 82.0758C34.8213 82.0466 34.9462 82.113 35.0126 81.9882C35.1455 81.7385 35.366 81.7758 35.5573 81.7174C35.8442 81.6298 36.2268 81.513 36.5137 81.4255C36.8963 81.3087 37.2124 81.3168 37.6907 81.1708C37.6242 81.2956 37.6534 81.3913 37.5578 81.4205C37.2336 81.7285 36.9094 82.0366 36.6808 82.3155C36.4231 82.4987 36.2902 82.7484 36.0324 82.9316C35.7747 83.1148 35.517 83.298 35.23 83.3856C34.9431 83.4732 34.8102 83.7228 34.4649 83.6191C34.4649 83.6191 34.2736 83.6775 34.3028 83.7732C34.2363 83.898 34.2363 83.898 34.045 83.9564C33.6333 83.9775 33.2799 84.1899 32.8308 84.4315C32.7352 84.4607 32.7644 84.5564 32.7644 84.5564C32.9104 85.0346 33.3432 85.4252 33.46 85.8078C33.8053 85.9115 33.8929 86.1984 33.914 86.6102C33.9432 86.7059 34.0681 86.7723 34.0973 86.868C34.2513 87.03 34.3761 87.0965 34.4637 87.3834C34.5221 87.5747 34.6761 87.7368 34.8301 87.8989C34.9842 88.061 35.1382 88.2231 35.3003 88.0691C35.9114 87.6735 36.6474 87.3443 37.2585 86.9486C37.3914 86.699 37.5827 86.6406 37.8988 86.6486C38.0901 86.5903 38.377 86.5027 38.5391 86.3487C38.8925 86.1362 39.2378 86.24 39.5167 86.4685C39.6415 86.535 39.6999 86.7263 39.7291 86.8219C39.6919 87.0424 39.6546 87.2629 39.6173 87.4833C39.1683 87.7249 38.6236 87.9957 38.1746 88.2373C37.7256 88.4789 37.2474 88.6249 36.6816 88.4839C36.2406 88.4094 35.858 88.5262 35.3506 88.5765C35.409 88.7678 35.5338 88.8342 35.5922 89.0255C35.7462 89.1876 35.8046 89.3789 35.9586 89.541C36.1711 89.8944 36.3835 90.2478 36.6915 90.572C36.8747 90.8297 37.058 91.0874 37.2412 91.3452C37.4244 91.6029 37.4163 91.9191 37.666 92.052C37.812 92.5302 38.3778 92.6712 38.3616 93.3034L38.3908 93.3991C38.7653 93.5984 38.9113 94.0766 39.1237 94.43C39.5485 95.1368 40.0398 95.7187 40.4646 96.4255C40.677 96.7789 40.9851 97.1031 41.0062 97.5148C41.0354 97.6105 41.1311 97.5813 41.1603 97.6769C41.7341 97.5018 42.308 97.3266 42.9775 97.1223C43.0731 97.0931 43.1688 97.0639 43.198 97.1595C43.0651 97.4092 42.8365 97.6881 42.5788 97.8713C42.2254 98.0837 42.0925 98.3334 41.9888 98.6787C42.1055 99.0613 42.1931 99.3482 42.3763 99.606C42.5596 99.8637 42.7428 100.121 42.926 100.379C42.9552 100.475 43.0508 100.446 43.08 100.541C43.1303 101.049 43.821 101.256 43.68 101.822C43.68 101.822 43.7092 101.918 43.8048 101.888C44.0545 102.021 44.1421 102.308 44.2297 102.595C44.2589 102.691 44.288 102.786 44.3172 102.882C44.6837 103.398 45.0501 103.913 45.4166 104.429C45.6582 104.878 45.9662 105.202 46.1122 105.68C46.1706 105.871 46.2954 105.938 46.3246 106.033C46.986 106.145 47.2227 105.55 47.8257 105.471C47.9214 105.441 47.9878 105.317 48.0835 105.287C48.2456 105.133 48.4368 105.075 48.5033 104.95C48.9523 104.709 49.4013 104.467 49.8504 104.225C50.1373 104.138 50.3286 104.079 50.5863 103.896C50.8441 103.713 51.1602 103.721 51.5136 103.509C51.7713 103.325 52.0291 103.142 52.4116 103.025C52.611 102.651 52.9271 102.659 53.3097 102.542C53.4799 102.072 53.9289 101.83 54.4071 101.684C54.5481 101.119 54.6599 100.457 54.4555 99.7877C54.4263 99.6921 54.4263 99.6921 54.4555 99.7877C54.4263 99.6921 54.4555 99.7877 54.4555 99.7877ZM27.2728 9.69887C27.0443 9.97773 26.7282 9.96966 26.3164 9.99079C26.0375 9.76224 25.7587 9.53369 25.5462 9.1803C25.363 8.92256 24.9885 8.72321 24.9674 8.31144C24.9382 8.21579 24.6885 8.08289 24.5264 8.23692C24.2687 8.42014 24.0109 8.60336 23.878 8.85303C23.583 9.25673 23.2297 9.46914 22.9055 9.7772C22.5601 9.67349 22.1776 9.79026 21.8987 9.56171C21.5906 9.23751 21.1205 9.06735 21.0702 8.55993C21.041 8.46429 21.041 8.46429 20.9161 8.39784C20.6373 8.16929 20.4541 7.91155 20.2708 7.65381C19.9336 7.23397 19.5299 6.93897 18.8604 7.14331C18.6822 7.92959 18.4747 8.62022 18.6126 9.41457C18.6337 9.82634 18.7505 10.2089 18.676 10.6499C18.7636 10.9368 18.6307 11.1865 18.9095 11.415C18.9387 11.5107 18.9679 11.6063 18.9015 11.7312C18.8642 11.9516 18.8269 12.1721 19.0102 12.4299C19.2226 12.7832 19.1189 13.1286 18.986 13.3782C19.0443 13.5695 18.8822 13.7235 18.7866 13.7527C18.4997 13.8403 18.2419 14.0235 17.955 14.1111C17.8593 14.1403 17.7637 14.1695 17.6389 14.103C17.1687 13.9329 16.7277 13.8584 16.3532 13.659C15.9787 13.4596 15.6042 13.2603 15.2297 13.0609C14.7012 12.6995 14.0689 12.6833 13.6068 12.1971C13.4528 12.035 13.2323 11.9977 13.0119 11.9604C12.887 11.894 12.6957 11.9524 12.6585 12.1728C12.5548 12.5182 12.2014 12.7306 11.694 12.7809C11.1573 12.7356 10.6791 12.8815 10.2301 13.1231C10.068 13.2772 9.97236 13.3063 9.75188 13.2691C9.40656 13.1654 9.18608 13.1281 9.03205 12.966C8.87802 12.8039 8.65754 12.7667 8.46626 12.825C8.2669 13.1996 8.19238 13.6405 8.30915 14.0231C8.39672 14.31 8.4843 14.597 8.35139 14.8466C8.28494 14.9715 8.40978 15.0379 8.34332 15.1628C8.55574 15.5161 8.35638 15.8906 7.9738 16.0074C7.68687 16.095 7.42913 16.2782 7.1422 16.3658C6.85526 16.4534 6.69317 16.6074 6.53107 16.7614C6.36897 16.9154 6.23607 17.1651 6.32364 17.4521C6.15348 17.9222 6.46154 18.2464 6.83604 18.4458C6.96088 18.5122 7.08572 18.5787 7.21055 18.6451C7.33539 18.7116 7.46023 18.778 7.39377 18.9029C7.4149 19.3146 7.82667 19.2935 7.98069 19.4556C8.12665 19.9338 7.86085 20.4332 7.69068 20.9033C7.81552 20.9698 8.036 21.007 8.16083 21.0735C8.28567 21.1399 8.53534 21.2728 8.66018 21.3393C8.95518 20.9356 9.36695 20.9145 9.72033 20.7021C9.81598 20.6729 9.91162 20.6437 9.91162 20.6437C10.0657 20.8058 10.2861 20.843 10.5731 20.7555C10.86 20.6679 10.8519 20.984 11.0724 21.0213C11.9835 21.2659 12.8363 21.3193 13.6387 20.8653C13.83 20.8069 13.8964 20.6821 14.1169 20.7194C14.7491 20.7355 15.477 20.7224 16.072 20.9591C16.4173 21.0628 16.7627 21.1665 17.0788 21.1746C17.3949 21.1826 17.7694 21.382 17.9899 21.4192C18.6594 21.2149 19.0792 20.8777 19.5655 20.4156C19.7941 20.1367 20.1475 19.9243 20.4344 19.8367C20.817 19.7199 21.1704 19.5075 21.4946 19.1995C21.5902 19.1703 21.5902 19.1703 21.6858 19.1411C22.0976 19.12 22.4429 19.2237 22.8255 19.1069C23.1336 19.4311 23.5161 19.3143 23.8906 19.5137C24.3608 19.6839 24.839 19.5379 25.3464 19.4876C25.4421 19.4584 25.5085 19.3336 25.6042 19.3044C26.024 18.9671 26.4439 18.6299 26.8345 18.197C27.063 17.9181 27.5121 17.6765 27.953 17.751C28.0779 17.8175 28.2984 17.8547 28.4313 17.6051C28.2188 17.2517 27.9772 16.8027 28.0518 16.3617C28.8169 16.1282 29.4411 16.4604 29.9988 16.9175C30.0653 16.7927 30.1317 16.6678 30.1025 16.5722C30.1106 16.2561 30.1479 16.0356 30.1559 15.7195C30.2013 15.1829 29.9889 14.8295 29.6516 14.4096C29.4684 14.1519 29.1231 14.0482 28.8734 13.9153C28.5945 13.6867 28.2492 13.583 27.9704 13.3545C27.5958 13.1551 27.2505 13.0514 26.8679 13.1682C26.581 13.2557 26.2941 13.3433 26.0071 13.4309C25.7202 13.5185 25.4333 13.6061 25.242 13.6644C24.9631 13.4359 24.7135 13.303 24.4638 13.1701C24.3389 13.1036 24.1185 13.0664 24.0893 12.9707C23.8477 12.5217 23.4067 12.4472 23.0322 12.2478C22.9074 12.1814 22.7825 12.1149 22.7533 12.0193C22.5701 11.7615 22.2913 11.533 21.8795 11.5541C21.5634 11.546 21.3137 11.4131 21.064 11.2802C20.9392 11.2138 20.8435 11.243 20.7479 11.2722C20.5566 11.3305 20.461 11.3597 20.2405 11.3225C19.9244 11.3144 19.7331 11.3728 19.571 11.5268C19.4753 11.556 19.2548 11.5187 19.0636 11.5771C19.0052 11.3858 18.9468 11.1946 18.9176 11.0989C19.0586 10.5331 19.4784 10.1959 19.9858 10.1455C20.3684 10.0288 20.8466 9.88282 21.3168 10.053C21.3168 10.053 21.4416 10.1194 21.5372 10.0902C21.7285 10.0319 21.8534 10.0983 21.8826 10.194C21.9118 10.2896 22.0074 10.2604 22.1322 10.3269C22.8893 10.4094 23.4471 10.8665 24.1004 11.2945C24.4749 11.4938 24.783 11.818 25.0619 12.0466C25.3407 12.2751 25.6568 12.2832 26.0102 12.0708C26.1723 11.9167 26.4593 11.8292 26.7754 11.8372C27.0915 11.8453 27.4076 11.8534 27.8194 11.8322C28.2231 12.1272 28.8554 12.1434 29.1926 12.5632C29.3758 12.821 29.6547 13.0495 29.7423 13.3364C29.7715 13.4321 29.8963 13.4985 29.9255 13.5942C30.0503 13.6606 30.1087 13.8519 30.2335 13.9184C30.2627 14.014 30.3211 14.2053 30.2839 14.4258C30.5205 13.8308 30.5869 13.706 31.3521 13.4724C31.4769 13.5389 31.4769 13.5389 31.6018 13.6053C32.1303 13.9668 32.3427 14.3202 32.1061 14.9152C32.0396 15.04 32.0024 15.2605 32.0316 15.3561C32.0899 15.5474 32.1191 15.643 32.1483 15.7387C32.0819 15.8635 31.8906 15.9219 31.8241 16.0467C31.7577 16.1716 31.6912 16.2964 31.7496 16.4877C31.8372 16.7746 31.6378 17.1491 31.6006 17.3696C31.5925 17.6858 31.3932 18.0603 31.3851 18.3764C31.3478 18.5969 31.3106 18.8173 31.2441 18.9422C30.9491 19.3459 30.9702 19.7577 30.9914 20.1694C31.0205 20.2651 31.0497 20.3607 31.241 20.3023C31.3075 20.1775 31.2491 19.9862 31.3155 19.8614C31.5733 19.6781 31.8975 19.3701 32.1552 19.1869C32.126 19.0912 32.0676 18.8999 32.1633 18.8707C32.3335 18.4006 32.408 17.9596 32.4533 17.423C32.4906 17.2025 32.5278 16.9821 32.5651 16.7616C32.6688 16.4163 32.7433 15.9753 32.6266 15.5927C32.539 15.3058 32.547 14.9897 32.4595 14.7027C32.4011 14.5115 32.4383 14.291 32.4756 14.0705C32.675 13.696 32.6538 13.2842 32.6327 12.8724C32.6035 12.7768 32.6408 12.5563 32.6116 12.4607C32.6861 12.0197 32.7314 11.4831 32.5855 11.0049C32.6892 10.6596 32.4103 10.431 32.2563 10.2689C31.9774 10.0404 31.6029 9.84102 31.3241 9.61247L31.1992 9.54602C30.9123 9.63359 30.7583 9.47149 30.5086 9.33859C30.1341 9.13923 29.7515 9.256 29.6478 9.60132C29.5733 10.0423 29.1907 10.159 28.9621 10.4379C28.0057 10.7298 28.0057 10.7298 27.2728 9.69887ZM7.14293 22.5343C6.70695 23.5038 6.67468 24.7683 6.65047 25.7166C6.67966 25.8123 6.61321 25.9371 6.6424 26.0328C6.60514 26.2532 6.56788 26.4737 6.62627 26.665C6.61013 27.2973 6.88093 27.8419 6.96043 28.445C7.01882 28.6363 7.0772 28.8276 7.23123 28.9897C7.44364 29.343 7.7517 29.6672 7.96411 30.0206C8.20571 30.4696 8.67587 30.6398 9.11683 30.7143C9.46215 30.818 9.74908 30.7305 10.1025 30.5181C10.5223 30.1808 10.9421 29.8436 11.5452 29.7641C11.8402 29.3604 12.2812 29.4349 12.7221 29.5094C13.1631 29.5839 13.5748 29.5628 14.1115 29.6081C14.5524 29.6826 15.0306 29.5367 15.3256 29.133C15.4877 28.979 15.6498 28.8249 15.9076 28.6417C16.2318 28.3336 16.5852 28.1212 16.9093 27.8132C17.0714 27.6592 17.1087 27.4387 16.8882 27.4014C16.5429 27.2977 16.4261 26.9151 16.1473 26.6866C15.8684 26.458 15.6187 26.3251 15.502 25.9425C15.4728 25.8469 15.3479 25.7804 15.3479 25.7804C15.2231 25.714 15.0983 25.6475 15.0399 25.4563C14.7318 25.1321 14.4238 24.8079 14.2114 24.4545C14.1822 24.3588 14.153 24.2632 14.0573 24.2924C13.6164 24.2179 13.404 23.8645 13.1915 23.5111C13.0083 23.2534 12.6046 22.9584 12.222 23.0751C11.7146 23.1254 11.2445 22.9553 10.8408 22.6603C10.5619 22.4317 10.1501 22.4528 9.8924 22.6361C9.79676 22.6653 9.82595 22.7609 9.73031 22.7901C9.28935 22.7156 9.0608 22.9944 8.67822 23.1112C8.48693 23.1696 8.3621 23.1031 8.23726 23.0367C7.86275 22.8373 7.51743 22.7336 7.14293 22.5343ZM31.2541 21.0302C31.3125 21.2215 31.2752 21.442 31.3044 21.5376C31.4212 21.9202 31.5671 22.3984 31.6839 22.781C31.7634 23.3841 31.8721 24.0828 31.856 24.715C31.8398 25.3473 32.2355 25.9584 31.9988 26.5534L32.028 26.649C32.1529 26.7155 32.1821 26.8111 32.1156 26.936C32.0784 27.1564 32.1367 27.3477 32.1659 27.4434C32.2162 27.9508 32.2374 28.3626 32.3833 28.8408C32.3753 29.1569 32.3672 29.473 32.484 29.8556C32.6299 30.3338 32.5554 30.7748 32.6057 31.2822C32.6349 31.3778 32.502 31.6275 32.5312 31.7232C32.7355 32.3927 32.5281 33.0833 32.7325 33.7528C32.5331 34.1273 32.966 34.518 32.7958 34.9881C32.9126 35.3707 32.9337 35.7825 32.9548 36.1942C32.8803 36.6352 32.9971 37.0178 32.8934 37.3631C32.8772 37.9953 32.8319 38.532 32.9114 39.135C32.9698 39.3263 32.9325 39.5468 32.7996 39.7964C32.8288 39.8921 32.858 39.9877 32.8872 40.0834C33.0412 40.2455 32.9748 40.3703 32.9083 40.4952C32.8419 40.62 32.8046 40.8405 32.863 41.0318C32.9798 41.4143 32.8096 41.8845 32.7059 42.2298C32.573 42.4795 32.5357 42.7 32.4985 42.9204C32.8146 42.9285 33.1599 43.0322 33.3885 42.7534C33.4257 42.5329 33.463 42.3124 33.5002 42.0919C33.5083 41.7758 33.3915 41.3932 33.4953 41.0479C33.312 40.7902 33.6362 40.4821 33.5778 40.2908C33.4903 40.0039 33.6232 39.7542 33.7853 39.6002C33.9182 39.3505 33.7058 38.9971 33.8387 38.7474C33.9716 38.4978 34.2001 38.2189 34.1125 37.932C34.0542 37.7407 34.1206 37.6158 34.1579 37.3954C34.4317 36.5799 34.456 35.6315 34.605 34.7496C34.6795 34.3086 34.6 33.7056 34.895 33.3019L34.8658 33.2062C34.6826 32.9485 34.9695 32.8609 35.1024 32.6112C35.0229 32.0082 35.0391 31.3759 35.1508 30.7145C35.1962 30.1779 35.3371 29.6121 35.5073 29.1419C35.5446 28.9215 35.5818 28.701 35.6191 28.4805C35.6936 28.0395 35.7389 27.5029 35.8135 27.062C35.8507 26.8415 35.9172 26.7167 35.9544 26.4962C35.9917 26.2757 35.9333 26.0844 36.037 25.7391C36.0743 25.5186 35.9575 25.136 36.2153 24.9528C36.3109 24.9236 36.1569 24.7615 36.2233 24.6367C36.1941 24.541 36.2606 24.4162 36.2314 24.3206C36.2687 24.1001 36.3351 23.9752 36.3059 23.8796C36.16 23.4014 36.6171 22.8437 36.4711 22.3654C36.6705 21.9909 36.5537 21.6083 36.3121 21.1593C35.9003 21.1804 35.555 21.0767 35.2761 20.8482C34.9016 20.6488 34.5563 20.5451 34.1445 20.5662C33.7036 20.4917 33.2918 20.5128 32.7844 20.5632C32.3646 20.9004 31.8571 20.9507 31.2541 21.0302ZM38.6975 13.217C38.4478 13.0841 38.2273 13.0469 37.9776 12.914C37.728 12.7811 37.4783 12.6482 37.2206 12.8314C36.6256 12.5948 35.9269 12.7035 35.3611 12.5625C35.1406 12.5252 34.8245 12.5172 34.4419 12.6339C34.4046 12.8544 34.2717 13.1041 34.2345 13.3246C34.1972 13.545 34.2556 13.7363 34.2183 13.9568C34.1811 14.1773 34.0482 14.427 34.1065 14.6182C34.1941 14.9052 34.0904 15.2505 34.1115 15.6623C34.1699 15.8536 34.1327 16.074 34.191 16.2653C34.2494 16.4566 34.183 16.5814 34.1165 16.7063C34.0501 16.8311 33.9544 16.8603 33.9836 16.956C34.042 17.1472 33.9755 17.2721 33.7178 17.4553C33.6222 17.4845 33.5557 17.6093 33.4893 17.7342C33.4228 17.859 33.2899 18.1087 33.2234 18.2335C32.9949 18.5124 32.7663 18.7912 32.5086 18.9745C32.5086 18.9745 32.4422 19.0993 32.4713 19.1949C32.7583 19.1074 32.9496 19.049 33.17 19.0862C33.4862 19.0943 33.8315 19.198 34.1476 19.2061C34.4637 19.2142 34.8091 19.3179 35.2208 19.2967C35.3457 19.3632 35.4413 19.334 35.5661 19.4005C36.0655 19.6663 36.6021 19.7116 37.1387 19.7569C37.6753 19.8023 38.0206 19.906 38.1958 20.4798C38.2833 20.7668 38.5622 20.9953 38.9448 20.8785C39.1441 20.504 38.6821 20.0177 39.1019 19.6805C39.3808 19.909 39.5932 20.2624 39.8428 20.3953C40.1217 20.6239 40.4298 20.9481 40.908 20.8021C41.0782 20.332 40.8366 19.8829 40.7198 19.5004C40.4409 19.2718 40.449 18.9557 40.4862 18.7352C40.4651 18.3234 40.444 17.9117 40.3272 17.5291C40.1813 17.0509 39.9105 16.5062 39.7645 16.028C39.6477 15.6454 39.4353 15.292 39.385 14.7846C39.3558 14.689 39.3266 14.5933 39.2974 14.4977C39.1434 14.3356 39.1142 14.2399 39.1515 14.0194C38.8726 13.7909 38.785 13.504 38.6975 13.217ZM49.54 111.43C49.7524 111.783 49.84 112.07 49.9275 112.357C49.9859 112.548 50.0735 112.835 50.1983 112.902C50.6312 113.292 50.7772 113.771 50.9231 114.249C50.9523 114.344 51.0107 114.536 51.0399 114.631C51.4728 115.022 51.4275 115.559 51.7647 115.978C51.9771 116.332 52.0939 116.714 52.1815 117.001C52.2982 117.384 52.3194 117.796 52.6274 118.12L52.6566 118.216C52.6486 118.532 52.8318 118.789 52.9193 119.076C53.0069 119.363 53.161 119.525 53.0572 119.871L53.1156 120.062C53.3653 120.195 53.3864 120.607 53.4448 120.798C53.6572 121.151 53.8032 121.63 53.8243 122.041C53.8827 122.233 53.8746 122.549 54.0286 122.711C54.1827 122.873 54.1746 123.189 54.3286 123.351C54.528 122.977 54.528 122.977 54.4696 122.785C54.4404 122.69 54.4112 122.594 54.382 122.498C54.2069 121.925 54.4727 121.425 54.2019 120.881L54.2683 120.756C54.2764 120.44 54.3137 120.219 54.3217 119.903C54.3006 119.491 54.213 119.204 54.1919 118.792C54.1627 118.697 54.0087 118.535 54.1043 118.506C54.2372 118.256 54.1497 117.969 54.0913 117.778C54.0037 117.491 54.1366 117.241 54.1447 116.925C54.1155 116.829 54.1819 116.704 54.1527 116.609C53.9695 116.351 54.1024 116.101 54.1397 115.881C54.2434 115.536 54.1558 115.249 54.0683 114.962C54.0763 114.646 53.9596 114.263 54.0633 113.918C54.1005 113.697 54.1086 113.381 54.1459 113.161C54.1539 112.844 54.162 112.528 54.0452 112.146C53.9868 111.954 54.1489 111.8 54.1862 111.58C54.157 111.484 54.2526 111.455 54.2235 111.359C54.0402 111.102 54.2023 110.948 54.144 110.756C54.0856 110.565 54.1228 110.345 54.1601 110.124C54.139 109.712 54.1178 109.301 54.0675 108.793C53.7141 109.006 53.552 109.16 53.3235 109.439C53.257 109.563 53.0658 109.622 52.9993 109.747C52.7999 110.121 52.513 110.209 52.2261 110.296C51.4609 110.53 50.6585 110.984 49.8934 111.217C49.8269 111.342 49.7313 111.371 49.54 111.43ZM47.1028 106.528C46.9035 106.902 47.0867 107.16 47.3655 107.388C47.4904 107.455 47.5196 107.551 47.5488 107.646C47.6363 107.933 47.7239 108.22 48.0028 108.449C48.1568 108.611 48.3108 108.773 48.2736 108.993C48.2655 109.309 48.5152 109.442 48.6027 109.729C48.8444 110.178 48.94 110.149 49.2934 109.937C49.4847 109.878 49.5511 109.753 49.7424 109.695C50.2498 109.645 50.6032 109.432 50.9566 109.22C51.1479 109.162 51.2143 109.037 51.4056 108.978C52.1708 108.745 52.9651 108.607 53.6638 108.498C53.8551 108.44 54.0464 108.381 54.0837 108.161C54.1582 107.72 54.2619 107.375 54.2116 106.867C54.124 106.58 54.1029 106.169 54.2066 105.823C54.3476 105.257 54.1724 104.684 54.3134 104.118C54.3506 103.897 54.2923 103.706 53.9761 103.698C53.8432 103.948 53.6147 104.227 53.2986 104.218C52.9824 104.21 52.8203 104.364 52.6582 104.518C52.4961 104.672 52.3341 104.826 52.1428 104.885C51.8266 104.877 51.5689 105.06 51.436 105.31C51.3403 105.339 51.2447 105.368 51.1491 105.397C50.9578 105.456 50.6708 105.543 50.5087 105.697C50.1554 105.91 49.7728 106.026 49.4194 106.239C49.3237 106.268 49.2281 106.297 49.1325 106.326C48.8083 106.634 48.4921 106.626 48.176 106.618C47.9263 106.485 47.4854 106.411 47.1028 106.528ZM25.5157 38.883L25.5822 38.7581C25.1493 38.3675 24.812 37.9477 24.4456 37.4322C24.2332 37.0788 23.9251 36.7546 23.7419 36.4969C23.4046 36.077 23.2295 35.5032 22.701 35.1417C22.701 35.1417 22.701 35.1417 22.6718 35.0461C22.2761 34.4349 21.7849 33.853 21.4184 33.3375C21.052 32.822 20.6563 32.2109 20.0986 31.7538C20.0694 31.6582 20.0694 31.6582 20.0402 31.5625C19.9235 31.1799 19.8067 30.7974 19.3365 30.6272C19.1906 30.149 18.8161 29.9496 18.6037 29.5962C18.5745 29.5006 18.4496 29.4341 18.2956 29.2721C18.1416 29.11 18.1124 29.0143 18.054 28.823C17.9956 28.6317 17.8708 28.5653 17.7459 28.4988C17.6211 28.4324 17.5627 28.2411 17.4379 28.1746C17.2385 28.5491 17.164 28.9901 16.9355 29.269C16.9566 29.6807 16.6988 29.864 16.4703 30.1428C16.2125 30.326 16.0796 30.5757 15.9467 30.8254C16.3504 31.1204 16.6585 31.4446 17.0622 31.7396C17.187 31.806 17.3119 31.8725 17.4367 31.9389C17.5615 32.0054 17.7156 32.1675 17.8404 32.2339C17.8988 32.4252 18.1485 32.5581 18.3025 32.7202C18.7062 33.0152 19.0807 33.2146 19.3888 33.5388C19.6676 33.7673 19.88 34.1207 20.2254 34.2244C20.6874 34.7107 21.1203 35.1014 21.6489 35.4628C21.9197 36.0075 22.4482 36.3689 22.9475 36.6348C23.0724 36.7012 23.2264 36.8633 23.2556 36.9589C23.314 37.1502 23.4388 37.2167 23.6593 37.2539C23.7549 37.2248 23.909 37.3869 23.9382 37.4825C24.0922 37.6446 24.1506 37.8359 24.2754 37.9023C24.5835 38.2265 24.8623 38.4551 25.266 38.7501C25.3617 38.7209 25.4865 38.7873 25.5157 38.883ZM31.1383 42.9174C31.2048 42.7925 31.2712 42.6677 31.242 42.572C31.242 42.572 31.2128 42.4764 31.1172 42.5056L31.0216 42.5348C31.0507 42.6304 31.1091 42.8217 31.1383 42.9174Z"/><path fill="#D2AF49" d="M9.21604 19.3922C8.96636 19.2593 8.93717 19.1637 8.8496 18.8767C8.79121 18.6855 8.95331 18.5314 8.99057 18.3109C9.22719 17.716 9.74267 17.3495 10.2873 17.0787C10.832 16.8079 11.3394 16.7576 11.8468 16.7073C12.3543 16.657 12.8617 16.6067 13.3691 16.5563C13.6852 16.5644 13.9349 16.6973 14.3175 16.5806C14.7876 16.7507 15.2074 16.4135 15.59 16.2967C15.877 16.2091 16.1347 16.0259 16.3632 15.747C16.7539 15.3141 17.2321 15.1682 17.806 14.993C17.9973 14.9347 18.0929 14.9055 18.2842 14.8471C18.6295 14.9508 18.9084 15.1793 19.291 15.0626C19.4822 15.0042 19.6363 15.1663 19.8568 15.2035C19.9232 15.0787 19.9232 15.0787 19.9897 14.9539C20.2101 14.9911 20.4971 14.9036 20.7759 15.1321C20.93 15.2942 21.084 15.4563 21.1716 15.7432C21.3759 16.4127 20.7567 17.1245 20.0953 17.0127C19.75 16.909 19.4338 16.9009 19.0593 16.7016C18.6848 16.5022 18.3022 16.619 17.9197 16.7358C17.7203 17.1103 17.3085 17.1314 17.0508 17.3146C16.8222 17.5935 16.5353 17.681 16.2776 17.8643C16.2776 17.8643 16.2776 17.8643 16.1819 17.8935C15.6745 17.9438 15.0715 18.0233 14.5932 18.1692C14.3436 18.0363 14.2107 18.286 13.961 18.1531C13.7113 18.0202 13.4244 18.1078 13.2331 18.1662C13.0126 18.1289 12.7549 18.3121 12.5344 18.2749C11.9978 18.2295 11.578 18.5668 11.0705 18.6171C10.8792 18.6755 10.6215 18.8587 10.3638 19.0419C9.88555 19.1879 9.62781 19.3711 9.21604 19.3922Z"/></g><defs><clipPath id="clip0"><rect width="38.1" height="141.6" y="11.122" fill="#fff" transform="rotate(-16.9729 0 11.1222)"/></clipPath></defs></svg>