<svg width="68" height="64" viewBox="0 0 68 64" fill="none" xmlns="http://www.w3.org/2000/svg">
<g clip-path="url(#clip0)">
<path d="M47.2336 3.59336C47.3625 4.47846 47.4342 5.28149 47.4809 6.22372C47.5132 6.445 47.4062 6.64134 47.5776 6.88755C47.6347 6.96961 47.6098 7.10882 47.6669 7.19089C47.535 7.52644 47.7064 7.77264 47.7386 7.99392C47.8353 8.65774 47.9319 9.32157 48.0857 10.0675C48.1179 10.2887 47.9288 10.5422 48.1002 10.7884C48.2966 10.8954 48.0005 11.3453 48.3361 11.4772C48.3683 11.6985 48.5148 12.0839 48.547 12.3051C48.5615 13.0261 48.8223 13.5756 49.001 14.1823C49.2368 14.8711 49.3335 15.5349 49.5693 16.2237C49.7158 16.6091 49.7231 16.9696 49.7875 17.4121C49.8769 17.7154 50.0233 18.1009 49.8665 18.5756C49.8416 18.7148 49.8738 18.9361 49.9309 19.0182C50.0525 19.5428 50.174 20.0674 50.1564 20.5671C50.1637 20.9276 50.253 21.2309 50.2603 21.5914C50.2426 22.0911 50.5283 22.5014 50.4536 22.919C50.4359 23.4187 50.7216 23.8291 50.5076 24.2218C50.4255 24.2789 50.5398 24.443 50.597 24.5251C50.6541 24.6072 50.7684 24.7713 50.6863 24.8284C50.4723 25.2211 50.7009 25.5494 50.7082 25.9099C50.7154 26.2704 50.8048 26.5737 50.8121 26.9342C50.9336 27.4588 50.8911 28.0977 50.9305 28.6795C50.7166 29.0722 50.8059 29.3755 50.9524 29.7609C51.0095 29.843 50.9025 30.0393 50.8776 30.1785C50.8527 30.3177 50.7457 30.5141 50.8028 30.5961C51.0314 30.9244 50.7602 31.235 50.7104 31.5135C50.7426 31.7347 50.4964 31.9061 50.5857 32.2095C50.7572 32.4557 50.4289 32.6843 50.4611 32.9055C50.5577 33.5694 50.2118 34.2976 50.2513 34.8794C50.2014 35.1578 49.9303 35.4684 50.0197 35.7717C50.1662 36.1571 49.6987 36.3608 49.8452 36.7462C49.9023 36.8282 49.8774 36.9675 49.7953 37.0246C49.5491 37.196 49.6385 37.4994 49.5315 37.6957C49.3995 38.0313 49.4068 38.3917 49.0785 38.6203C48.9965 38.6774 48.9715 38.8166 48.9715 38.8166C48.8718 39.3735 48.4366 39.7984 48.5581 40.323C48.6153 40.4051 48.4511 40.5193 48.4511 40.5193C48.2049 40.6907 48.2371 40.912 48.1301 41.1084C47.9161 41.5011 47.8414 41.9187 47.5453 42.3685C47.2742 42.6791 47.1745 43.236 46.9605 43.6287C46.9355 43.7679 46.8535 43.825 46.7714 43.8821C46.4753 44.332 46.0972 44.8389 45.744 45.2067C45.4729 45.5173 45.3732 46.0742 44.8485 46.1957L44.8236 46.3349C44.7987 46.4741 44.6345 46.5884 44.6096 46.7276C44.4777 47.0632 44.0923 47.2097 43.8212 47.5203C43.6965 48.2163 43.2862 48.502 42.8758 48.7877C42.7117 48.902 42.4655 49.0734 42.3014 49.1877C41.891 49.4734 41.4807 49.7591 40.9561 49.8806C40.5706 50.0271 40.2102 50.0344 39.8819 50.263C39.3895 50.6058 38.7828 50.7845 38.1761 50.9632C37.2661 51.2312 36.3561 51.4993 35.446 51.7673C34.8394 51.946 34.2898 52.2068 33.6509 52.1642C33.2904 52.1715 32.8728 52.0967 32.4625 52.3824C32.3804 52.4396 32.2412 52.4146 32.102 52.3897C31.488 52.2079 30.9135 52.6079 30.2996 52.4261C29.3324 52.6121 28.2759 52.4947 27.2765 52.4594C26.7768 52.4418 26.2449 52.2029 25.7775 52.4065C25.6954 52.4636 25.6383 52.3816 25.499 52.3566C24.8529 51.9536 24.0176 51.804 23.3465 51.5402C23.011 51.4082 22.6754 51.2763 22.3399 51.1444C21.9295 51.4301 21.6584 51.7407 21.273 51.8872C20.8626 52.1729 20.4772 52.3194 20.2632 52.7121C20.2383 52.8513 20.0991 52.8263 20.017 52.8835C19.6888 53.112 19.2784 53.3977 19.0073 53.7084C18.9252 53.7655 18.7611 53.8798 18.7039 53.7977C18.3684 53.6658 18.1222 53.8372 17.9581 53.9515C17.3836 54.3515 16.7198 54.4481 16.031 54.6839L15.9739 54.6019C16.0559 54.5447 15.9988 54.4626 15.9988 54.4626C16.4839 53.7593 17.1654 53.163 17.6754 52.3205C17.7824 52.1241 18.0037 52.0919 18.2499 51.9205C18.4141 51.8062 18.6353 51.774 18.7423 51.5777C19.2846 50.9564 19.884 50.4172 20.5405 49.9601C20.7867 49.7887 20.9758 49.5352 21.0257 49.2568C20.9114 49.0927 20.6579 48.9036 20.5436 48.7395C20.1759 48.3863 20.0792 47.7225 19.5473 47.4835C19.4902 47.4015 19.4331 47.3194 19.5151 47.2623C19.4008 47.0981 19.4258 46.9589 19.3115 46.7948C18.9115 46.2203 18.5936 45.5887 18.3578 44.8999C18.2113 44.5145 18.0897 43.9899 17.7791 43.7188C17.6648 43.5547 17.4934 43.3084 17.4612 43.0872C17.1609 41.9559 16.7786 40.8817 16.4783 39.7504C16.4461 39.5291 16.496 39.2507 16.3817 39.0866C16.3495 38.8653 16.1781 38.6191 16.0638 38.455C16.0067 38.3729 16.0316 38.2337 16.0565 38.0945C16.1562 37.5377 16.0918 37.0951 16.0523 36.5134C16.07 36.0137 16.0056 35.5711 16.0803 35.1535C16.1302 34.8751 16.3193 34.6216 16.1478 34.3754C16.0907 34.2933 16.1977 34.097 16.2226 33.9578C16.2974 33.5402 16.3722 33.1225 16.5291 32.6478C16.5789 32.3694 16.6038 32.2302 16.5716 32.0089C16.5394 31.7876 16.5072 31.5663 16.6142 31.37C16.796 30.756 16.9778 30.142 16.9383 29.5603C16.931 29.1998 16.9809 28.9214 17.1699 28.6679C17.573 28.0217 17.4441 27.1366 18.0435 26.5975C18.2752 25.7051 18.8424 24.9446 19.2953 24.02C19.4272 23.6845 19.6983 23.3739 19.8303 23.0383C19.9373 22.842 20.1263 22.5885 20.2333 22.3921C20.4972 21.721 21.0145 21.239 21.1392 20.5429C21.1392 20.5429 21.1641 20.4037 21.2462 20.3466C21.6316 20.2001 21.7884 19.7253 21.9203 19.3898C21.9453 19.2506 22.0273 19.1934 22.1094 19.1363C22.6018 18.7935 22.7265 18.0974 23.2189 17.7546C23.3009 17.6975 23.3259 17.5583 23.3508 17.419C23.6468 16.9692 23.9429 16.5194 24.2961 16.1516C24.4852 15.8981 24.7314 15.7267 24.9204 15.4732C25.1916 15.1626 25.4627 14.852 25.8159 14.4842C26.1764 14.4769 26.2512 14.0593 26.4974 13.8879C26.8256 13.6593 26.9004 13.2417 27.4251 13.1202C27.5643 13.1451 27.6713 12.9488 27.7783 12.7524C27.8852 12.5561 28.1315 12.3846 28.3205 12.1312C28.4026 12.074 28.5667 11.9597 28.6488 11.9026C28.9448 11.4528 29.4123 11.2491 29.8227 10.9634C29.9868 10.8492 30.2901 10.7598 30.4792 10.5063C30.6683 10.2529 30.9145 10.0814 31.0786 9.96715C31.2427 9.85288 31.3497 9.65653 31.489 9.68146C32.0385 9.42069 32.6452 9.24199 33.0233 8.73502C33.1054 8.67788 33.1874 8.62074 33.2695 8.5636C33.8762 8.38491 34.1972 7.79587 34.861 7.69924C35.2963 7.27433 35.8458 7.01357 36.4525 6.83487C36.7559 6.74552 37.0021 6.5741 37.2483 6.40268C37.4124 6.28841 37.5194 6.09206 37.6586 6.11699C37.8227 6.00271 38.0118 5.74923 38.2331 5.71701C38.5936 5.70973 38.7826 5.45625 39.0288 5.28483C39.1109 5.22769 39.193 5.17055 39.2501 5.25262C39.7249 5.40948 40.0781 5.04171 40.4063 4.81315C40.6775 4.50253 41.12 4.43811 41.6197 4.45576C41.7516 4.1202 42.0228 3.80958 42.4404 3.88437L42.5224 3.82723C42.8756 3.45946 43.4003 3.3379 43.8677 3.13427C44.7456 2.64495 45.5662 2.07356 46.8191 2.29792C46.9656 2.68333 47.1941 3.0116 47.2336 3.59336ZM33.6157 17.4614C33.623 17.8218 33.7695 18.2073 33.998 18.5355C34.1445 18.9209 34.291 19.3063 34.4375 19.6918C34.7377 20.8231 35.1201 21.8972 35.6416 22.9963C35.9595 23.6279 36.1133 24.3738 36.3491 25.0626L36.4063 25.1446C36.3315 25.5623 36.3959 26.0048 36.5424 26.3902C36.6889 26.7756 36.8354 27.161 36.8998 27.6036C36.7606 27.5787 36.6214 27.5537 36.5642 27.4717C36.0573 27.0935 35.5752 26.5762 35.0932 26.0589C34.9789 25.8947 34.8075 25.6485 34.6111 25.5415C34.3826 25.2133 34.0719 24.9421 33.9504 24.4175C34.0574 24.2212 33.9431 24.057 33.8288 23.8929C33.5753 23.7038 33.7073 23.3683 33.6179 23.0649C33.5036 22.9008 33.3644 22.8759 33.2502 22.7117C33.193 22.6297 33.0787 22.4655 33.0787 22.4655C33.2605 21.8516 32.6715 21.5306 32.6891 21.0309C32.6819 20.6704 32.4284 20.4813 32.5603 20.1458C32.5852 20.0066 32.4709 19.8424 32.4138 19.7604C32.1281 19.35 31.9245 18.8826 31.885 18.3008C31.9099 18.1616 31.8528 18.0795 31.7956 17.9975C31.5099 17.5871 31.4455 17.1446 31.4632 16.6449C31.4881 16.5057 31.513 16.3665 31.4559 16.2844C31.2273 15.9561 31.3021 15.5385 31.1556 15.1531C31.059 14.4893 30.9624 13.8255 31.1441 13.2115C31.1691 13.0723 31.0548 12.9081 31.0797 12.7689C30.7442 12.637 30.6372 12.8334 30.5302 13.0297C30.4232 13.226 30.3162 13.4224 30.0949 13.4546C29.8736 13.4868 29.6846 13.7403 29.5204 13.8546C28.8961 14.533 28.2146 15.1293 27.5903 15.8077C27.4012 16.0612 27.155 16.2326 26.9088 16.404C26.6626 16.5754 26.4985 16.6897 26.3094 16.9432C26.0383 17.2538 25.8243 17.6465 25.496 17.875C25.3319 17.9893 25.2 18.3249 25.093 18.5212C24.961 18.8568 24.8541 19.0531 24.5258 19.2817C24.3616 19.396 24.2547 19.5923 24.1477 19.7887C24.0157 20.1242 23.8267 20.3777 23.5555 20.6883C23.3914 20.8026 23.2844 20.9989 23.2345 21.2774C23.1847 21.5558 23.0777 21.7521 22.8886 22.0056C22.6996 22.2591 22.6497 22.5375 22.8211 22.7837C23.0247 23.2512 23.2855 23.8007 23.5712 24.2111C23.6283 24.2931 23.6283 24.2931 23.6855 24.3752C23.4466 24.9071 23.8393 25.1211 24.0678 25.4494C24.2392 25.6956 24.3286 25.9989 24.4179 26.3022C24.5644 26.6877 24.5717 27.0481 24.8574 27.4585C25.1431 27.8688 25.2647 28.3934 25.4111 28.7788C25.4683 28.8609 25.4434 29.0001 25.4434 29.0001C25.3114 29.3357 25.5078 29.4427 25.6792 29.6889C25.7935 29.853 25.8828 30.1564 25.915 30.3776C25.9472 30.5989 25.9795 30.8202 26.2329 31.0092C26.2901 31.0913 26.3472 31.1734 26.4044 31.2554C26.501 31.9193 26.8189 32.5509 27.0547 33.2396C27.1441 33.543 27.2906 33.9284 27.2407 34.2068C27.2802 34.7886 27.4018 35.3132 27.5233 35.8378C27.5555 36.0591 27.5877 36.2803 27.62 36.5016C27.4558 36.6159 27.3987 36.5338 27.3415 36.4518C26.8844 35.7952 26.2382 35.3922 25.9453 34.6213C25.8881 34.5393 25.7489 34.5143 25.6918 34.4323C25.6346 34.3502 25.4383 34.2432 25.5204 34.1861C25.5131 33.8256 25.1204 33.6116 25.1131 33.2511C25.1058 32.8906 24.8773 32.5624 24.7308 32.177C24.6414 31.8736 24.4949 31.4882 24.4056 31.1849C24.2591 30.7994 24.1947 30.3569 23.9661 30.0286C23.7947 29.7824 23.7054 29.4791 23.6981 29.1186C23.6586 28.5368 23.2908 28.1836 23.1693 27.659C23.1048 27.2165 22.8441 26.6669 22.5584 26.2566C22.387 26.0104 22.2976 25.707 22.2083 25.4037C22.1189 25.1004 22.0296 24.797 22.0223 24.4365C21.8831 24.4116 21.801 24.4687 21.7439 24.3867C21.6119 24.7222 21.48 25.0578 21.3481 25.3933C21.2411 25.5897 21.1341 25.786 21.0271 25.9824C20.838 26.2359 20.649 26.4893 20.5991 26.7678C20.5742 26.907 20.5742 26.907 20.4921 26.9641C20.221 27.2747 20.0891 27.6103 20.0964 27.9708C19.686 28.2565 19.8325 28.6419 19.7577 29.0595C19.658 29.6163 19.4191 30.1482 19.3194 30.705C19.2695 30.9835 19.1376 31.319 19.2269 31.6224C19.2841 31.7044 19.202 31.7616 19.1771 31.9008C19.0524 32.5968 18.9278 33.2928 18.9423 34.0138C18.9174 34.153 18.9746 34.2351 18.8925 34.2922C18.7034 34.5457 18.6536 34.8241 18.7429 35.1275C18.8001 35.2095 18.7751 35.3487 18.7502 35.4879C18.5684 36.1019 18.7471 36.7086 18.7045 37.3475C18.662 37.9864 18.6765 38.7073 18.9373 39.2569C18.8625 39.6745 19.0911 40.0028 19.2376 40.3882C19.384 40.7736 19.4734 41.0769 19.6199 41.4624C19.7664 41.8478 19.7487 42.3474 20.1165 42.7006C20.1736 42.7827 20.2879 42.9469 20.263 43.0861C20.2131 43.3645 20.3274 43.5286 20.5237 43.6356C20.5809 43.7177 20.6952 43.8818 20.6952 43.8818C20.7347 44.4636 21.1024 44.8168 21.306 45.2842C21.3632 45.3663 21.3383 45.5055 21.3954 45.5876C21.4525 45.6697 21.4276 45.8089 21.4276 45.8089C22.0811 46.5724 21.9066 47.5468 22.3387 48.3426C22.667 48.114 23.0524 47.9676 23.4378 47.8211C23.6518 47.4284 24.005 47.0606 24.3582 46.6928C24.6865 46.4643 24.9005 46.0716 25.3108 45.7859C25.9923 45.1896 26.5346 44.5683 27.1911 44.1112C27.5194 43.8827 27.7084 43.6292 27.8404 43.2936C27.8902 43.0152 28.1364 42.8438 28.3826 42.6724C29.0142 42.3545 29.3352 41.7654 29.7134 41.2585C29.7954 41.2013 29.8204 41.0621 29.9024 41.005C30.3128 40.7193 30.5268 40.3266 30.8228 39.8768C31.39 39.1163 32.0143 38.4379 32.7207 37.7024C32.8028 37.6452 32.8028 37.6453 32.8277 37.506C32.8454 37.0064 33.2557 36.7207 33.5269 36.41C33.798 36.0994 34.1512 35.7316 34.3652 35.339C34.6363 35.0283 34.7932 34.5536 35.1214 34.325C35.2035 34.2679 35.2284 34.1287 35.2534 33.9895C35.2783 33.8503 35.3032 33.711 35.4674 33.5968C35.6315 33.4825 35.7385 33.2861 35.8455 33.0898C35.8704 32.9506 35.9774 32.7542 36.0595 32.6971C36.634 32.2971 36.7586 31.6011 37.0547 31.1513C37.2437 30.8978 37.3757 30.5622 37.5647 30.3087C38.0249 29.7446 38.428 29.0985 38.5526 28.4024C38.5775 28.2632 38.6025 28.124 38.7666 28.0097C39.2268 27.4456 39.3265 26.8888 39.5904 26.2177C39.8044 25.825 40.0184 25.4323 39.9539 24.9898L39.9789 24.8506C40.0609 24.7934 40.0859 24.6542 40.0859 24.6542C40.4962 24.3685 40.1534 23.8761 40.5637 23.5904C40.7528 23.3369 40.8276 22.9193 40.9595 22.5837C41.1662 21.8306 41.3158 20.9953 41.6045 20.185C41.5152 19.8817 41.6471 19.5461 41.7219 19.1285C41.8465 18.4325 41.8891 17.7936 42.2101 17.2045C42.3171 17.0082 42.2278 16.7048 42.2527 16.5656C42.477 15.3128 42.5622 14.035 42.8686 12.725C42.9185 12.4466 42.8863 12.2253 42.8541 12.004C42.8966 11.3651 43.0213 10.6691 43.0639 10.0302C43.0888 9.89099 43.1137 9.75178 43.1386 9.61258C43.0493 9.30924 43.0991 9.03082 43.149 8.75241C43.1989 8.47399 43.2736 8.05637 43.3484 7.63875C43.6196 7.32813 44.2013 7.28864 44.5867 7.14215C45.0189 7.9379 45.1727 8.68379 44.8839 9.4941L44.859 9.63331C44.8486 10.4935 44.7562 11.4108 44.6887 12.1889C44.671 12.6886 44.5713 13.2454 44.4965 13.663C44.3719 14.3591 44.1652 15.1122 44.1797 15.8332C44.2119 16.0545 44.1049 16.2508 44.08 16.39C44.0302 16.6684 43.8411 16.9219 43.9304 17.2253C43.9876 17.3073 43.8806 17.5037 43.9377 17.5857C43.945 17.9462 43.5347 18.2319 43.6812 18.6173C43.5492 18.9529 43.4745 19.3705 43.4246 19.6489C43.4392 20.3699 43.061 20.8769 43.0756 21.5978C43.0507 21.737 42.9686 21.7942 42.9437 21.9334C42.8367 22.1297 42.7868 22.4081 42.737 22.6865C42.712 22.8258 42.6622 23.1042 42.498 23.2184C42.416 23.2756 42.391 23.4148 42.391 23.4148C42.4804 23.7181 42.2913 23.9716 42.1023 24.2251C41.8883 24.6178 41.7563 24.9533 41.6816 25.371C41.5247 25.8457 41.425 26.4026 41.0469 26.9095C40.8578 27.163 40.783 27.5806 40.7331 27.859C40.7082 27.9983 40.7654 28.0803 40.6833 28.1375C40.273 28.4232 40.2802 28.7836 40.2054 29.2013C39.9915 29.5939 39.7775 29.9866 39.5635 30.3793C39.4565 30.5757 39.2923 30.69 39.3245 30.9112C39.1106 31.3039 39.0929 31.8036 38.6254 32.0072C38.5434 32.0644 38.5184 32.2036 38.4364 32.2607C38.3117 32.9568 37.8193 33.2996 37.4412 33.8066C37.3591 33.8637 37.3342 34.0029 37.2521 34.06C37.0953 34.5348 36.7421 34.9026 36.446 35.3524C36.1749 35.663 36.043 35.9986 35.8539 36.2521C35.2867 37.0125 34.6052 37.6088 33.9809 38.2872C33.8168 38.4015 33.7918 38.5407 33.6277 38.655C33.2246 39.3012 32.8216 39.9473 32.2793 40.5686C32.1972 40.6257 32.1723 40.7649 32.1723 40.7649C31.6228 41.0257 31.5231 41.5825 31.1699 41.9503C31.0629 42.1466 30.8167 42.3181 30.6276 42.5715C30.4385 42.825 29.996 42.8895 29.9212 43.3071C29.8963 43.4463 29.7321 43.5606 29.568 43.6748C29.4039 43.7891 29.3789 43.9283 29.2148 44.0426C29.1327 44.0997 29.1078 44.2389 29.0257 44.2961C28.5333 44.6389 28.1552 45.1459 27.7771 45.6529C27.3989 46.1598 26.8494 46.4206 26.4713 46.9276C26.3892 46.9847 26.3071 47.0418 26.2251 47.099C25.0761 47.8989 24.2949 49.0521 23.0888 49.77C23.2852 49.877 23.4244 49.9019 23.5065 49.8447C24.4736 49.6588 25.4408 49.4728 26.383 49.426C26.5222 49.4509 26.6614 49.4759 26.8006 49.5008C27.1362 49.6327 27.4146 49.6826 27.8572 49.6182C28.3818 49.4966 28.9064 49.375 29.4954 49.696C29.5526 49.7781 29.6346 49.721 29.7167 49.6638C30.4626 49.51 31.1586 49.6347 31.8225 49.5381C32.7076 49.4092 33.5677 49.4196 34.4206 49.0695C34.5027 49.0123 34.6419 49.0373 34.7811 49.0622C35.1416 49.0549 35.5592 49.1297 35.9124 48.7619C35.9945 48.7048 36.1337 48.7297 36.2157 48.6726C36.5762 48.6653 36.9367 48.658 37.2078 48.3474C37.372 48.2331 37.5112 48.258 37.7325 48.2258C38.175 48.1614 38.4783 48.0721 38.8887 47.7864C39.0528 47.6721 39.2741 47.6399 39.4382 47.5256C40.127 47.2898 40.7337 47.1111 41.3081 46.7111C41.3902 46.6539 41.4723 46.5968 41.5543 46.5397C42.161 46.361 42.482 45.7719 43.0316 45.5112C43.1136 45.454 43.1386 45.3148 43.2206 45.2577C43.2456 45.1185 43.4097 45.0042 43.4346 44.865C43.7058 44.5544 44.1161 44.2687 44.3301 43.876C44.5441 43.4833 44.7581 43.0906 45.0292 42.78C45.2432 42.3873 45.6286 42.2408 45.7034 41.8232C45.7533 41.5448 45.9423 41.2913 46.0742 40.9557C46.2633 40.7022 46.3381 40.2846 46.6092 39.974C46.8804 39.6634 46.8731 39.3029 47.0621 39.0494C47.1941 38.7138 47.2117 38.2141 47.5971 38.0677C47.647 37.7892 47.754 37.5929 47.8038 37.3145C47.8537 37.0361 47.7643 36.7327 48.0355 36.4221C48.1425 36.2258 48.1923 35.9473 48.2422 35.6689C48.2671 35.5297 48.21 35.4477 48.1528 35.3656C48.0957 35.2835 47.8744 35.3157 47.8495 35.4549C47.7176 35.7905 47.2179 35.7728 47.1431 36.1905C47.0112 36.526 46.7078 36.6154 46.4616 36.7868C46.3796 36.8439 46.2726 37.0403 46.1905 37.0974C45.8622 37.326 45.6482 37.7187 45.1485 37.701C45.1485 37.701 45.0093 37.6761 44.9844 37.8153C44.7704 38.208 44.2707 38.1903 43.9175 38.5581C43.7285 38.8116 43.4251 38.9009 43.1218 38.9903C42.9576 39.1046 42.8756 39.1617 42.7114 39.276C42.5473 39.3903 42.4652 39.4474 42.244 39.4796C42.1619 39.5367 42.0227 39.5118 42.0227 39.5118C41.7266 39.9616 41.1199 40.1403 40.6525 40.344C40.2421 40.6297 39.7175 40.7512 39.3321 40.8977C39.168 41.012 38.9467 41.0442 38.6433 41.1336C38.2579 41.28 37.9297 41.5086 37.5442 41.6551C36.9947 41.9159 36.4129 41.9553 35.8385 42.3553C35.7564 42.4125 35.6172 42.3875 35.3959 42.4197C35.2567 42.3948 35.1175 42.3699 35.0354 42.427C34.5327 43.63 33.8294 43.1449 33.5333 43.5947C32.698 43.4452 32.5765 42.9205 32.5619 42.1996L32.644 42.1424C32.8902 41.971 32.9972 41.7747 33.3005 41.6853C33.5218 41.6531 33.8252 41.5638 34.0464 41.5316C34.4318 41.3851 34.8993 41.1814 35.3668 40.9778C35.4489 40.9207 35.5309 40.8635 35.5309 40.8635C36.0878 40.9633 36.3838 40.5134 36.9084 40.3919C37.6793 40.0989 38.3929 39.7238 39.1638 39.4309C39.5492 39.2844 39.7954 39.113 40.1236 38.8844C40.4519 38.6558 40.8373 38.5094 41.3048 38.3057C41.7723 38.1021 42.1006 37.8735 42.5109 37.5879C42.675 37.4736 42.8392 37.3593 43.0604 37.3271C43.2817 37.2949 43.4458 37.1806 43.6349 36.9271C43.717 36.87 43.8811 36.7557 43.9632 36.6986C44.0452 36.6414 44.2665 36.6092 44.3486 36.5521C44.7018 36.1843 45.1371 35.7594 45.6617 35.6378C46.1219 35.0737 46.7535 34.7558 47.3851 34.4379C47.6313 34.2665 47.9346 34.1771 48.1808 34.0057C48.4271 33.8343 48.5912 33.72 48.8374 33.5486C48.9298 32.6313 49.0223 31.714 49.1147 30.7967C49.1645 30.5183 49.1323 30.297 49.1001 30.0757C49.1251 29.9365 49.0679 29.8545 49.0928 29.7152C49.3889 29.2654 49.2424 28.88 49.178 28.4375C49.1136 27.9949 49.1884 27.5773 49.1239 27.1347C49.0668 27.0527 49.2309 26.9384 49.1738 26.8563C48.9702 26.3888 49.127 25.9141 49.2018 25.4965C49.2267 25.3573 49.1945 25.136 49.0553 25.1111C48.8018 24.922 48.7696 24.7007 48.8195 24.4223C48.8943 24.0047 48.7478 23.6193 48.7405 23.2588C48.7332 22.8983 48.7259 22.5378 48.7187 22.1773C48.7436 22.0381 48.6864 21.9561 48.6293 21.874C48.4579 21.6278 48.5077 21.3494 48.4755 21.1281C48.4683 20.7676 48.3218 20.3822 48.3145 20.0217C48.2179 19.3579 48.0392 18.7512 47.9997 18.1695C48.0173 17.6698 47.8137 17.2023 47.6101 16.7348C47.4064 16.2673 47.5061 15.7105 47.2204 15.3002C47.1633 15.2181 47.1882 15.0789 47.1311 14.9968C47.0667 14.5543 46.863 14.0868 46.9628 13.53C46.5379 13.0947 46.6947 12.62 46.4662 12.2917C46.2054 11.7421 46.1659 11.1604 46.1264 10.5786C46.062 10.1361 45.9155 9.75067 46.0474 9.41512C46.0723 9.27591 46.0152 9.19384 45.983 8.97257C45.8614 8.44795 45.6827 7.84127 45.8074 7.14523C45.8323 7.00603 45.6609 6.75982 45.6287 6.53855C45.5892 5.95679 45.6068 5.4571 45.5673 4.87534C45.6172 4.59693 45.3637 4.40787 45.1424 4.44008C44.6999 4.5045 44.3145 4.65099 44.0434 4.96161C43.7971 5.13303 43.5509 5.30445 43.3047 5.47586C43.0014 5.56521 42.6731 5.79377 42.3126 5.80105C41.9522 5.80833 41.9345 6.30802 41.492 6.37244C41.3528 6.34752 41.1637 6.601 41.0245 6.57607C40.5248 6.55842 40.1965 6.78698 39.8683 7.01553C39.7862 7.07267 39.7041 7.12981 39.6221 7.18695C39.2616 7.19423 39.0725 7.44772 38.7692 7.53707C38.1947 7.93704 37.5631 8.25495 36.8743 8.49079C36.7923 8.54793 36.6281 8.6622 36.5461 8.71934C36.2999 8.89076 36.0536 9.06218 35.8074 9.2336C35.5612 9.40501 35.2579 9.49436 35.0938 9.60864C34.9296 9.72292 34.7655 9.8372 34.6014 9.95148C34.3552 10.1229 34.191 10.2372 33.9448 10.4086C33.5345 10.6943 33.1241 10.98 32.7138 11.2657C32.5497 11.38 32.5819 11.6012 32.6141 11.8225C32.7928 12.4292 32.9715 13.0359 32.8468 13.7319C32.7398 13.9283 32.8292 14.2316 32.9435 14.3957C33.1471 14.8632 33.1471 14.8632 32.9082 15.3951C33.3653 16.0516 33.6011 16.7404 33.6157 17.4614Z" fill="#D2AF49"/>
</g>
<defs>
<clipPath id="clip0">
<rect x="67.332" y="31.7603" width="55.1" height="38.7" transform="rotate(145.153 67.332 31.7603)" fill="white"/>
</clipPath>
</defs>
</svg>
