<svg xmlns="http://www.w3.org/2000/svg" width="48" height="49" fill="none" viewBox="0 0 48 49"><path fill="#D2AF49" d="M47.2 36.2C47.2 36.2 47.2 36.1 47.1 36L47 35.8C47 35.7 47 35.7 46.9 35.6C46.9 35.5 46.8 35.5 46.8 35.4C46.7 35.3 46.7 35.3 46.7 35.2C46.6 35 46.5 34.8 46.4 34.6C46.3 34.5 46.3 34.4 46.2 34.4L46.1 34.3C46 34 45.8 33.8 45.7 33.7C45.5 33.5 45.3 33.3 45.2 33.1C45 32.8 44.8 32.6 44.5 32.4C44.4 32.3 44.3 32.2 44.3 32.2C44.1 32 43.9 31.8 43.6 31.6C43.5 31.4 43.3 31.2 43.1 31.1C43 31 42.9 30.9 42.8 30.8L42.7 30.7H42.6C42.4 30.6 42.2 30.4 42 30.3C41.9 30.2 41.8 30.2 41.7 30.1C41.4 30 41.2 29.8 41 29.5C40.8 29.3 40.5 29.1 40.3 28.9L40 28.7C39.7 28.5 39.4 28.3 39.2 28.1C39 28 38.8 27.8 38.6 27.7L38.3 27.5C38.2 27.4 38.1 27.4 38 27.3L37.9 27.2C37.4 26.9 36.9 26.5 36.3 26.2H36.2C36 25.9 35.7 25.8 35.5 25.7C35.4 25.6 35.2 25.6 35.1 25.5L35 25.4C34.9 25.4 34.7 25.3 34.6 25.2C34.5 25.1 34.4 25 34.2 25C34.1 24.8 34 24.7 33.8 24.7H33.7V24.6C33.7 24.5 33.8 24.5 33.8 24.4C33.8 24.3 33.9 24.3 33.9 24.2L34 24.1C34.3 23.9 34.5 23.7 34.6 23.4C34.6 23.3 34.7 23.3 34.7 23.2C34.8 23.1 34.9 23 35 22.8C35 22.7 35 22.7 35 22.6V22.5C35.1 22.5 35.3 22.3 35.3 22C35.5 21.8 35.6 21.5 35.7 21.2C35.8 21.1 35.8 21.1 35.8 21C35.8 21 35.8 20.9 35.9 20.9L36 20.8V20.6C36 20.4 36.1 20.3 36.2 20.1C36.3 20 36.4 19.9 36.4 19.8C36.4 19.5 36.6 19.3 36.7 19C36.7 18.9 36.8 18.9 36.8 18.8L36.9 18.5C37 18.3 37.1 18.1 37.2 17.8C37.4 17.4 37.6 17 37.7 16.6C37.7 16.5 37.7 16.4 37.8 16.4C37.9 16.3 38 16.1 38 15.9L38.1 15.8C38.1 15.8 38.1 15.7 38.2 15.7C38.2 15.6 38.3 15.5 38.3 15.4C38.3 15.3 38.4 15.1 38.4 15C38.4 14.8 38.5 14.7 38.5 14.5C38.5 14.4 38.6 14.2 38.6 14.1C38.6 13.9 38.6 13.8 38.7 13.7L38.8 13.6V13.5V13.1C38.8 12.8 38.8 12.5 38.8 12.2V12.1C38.8 12 38.8 11.8 38.8 11.6C38.8 11.5 38.9 11.4 38.9 11.3C38.9 11.2 38.9 11.1 38.9 11V10.9C39 10.6 38.9 10.3 38.8 10.1C38.8 10 38.7 9.80001 38.7 9.70001C38.7 9.60001 38.7 9.50001 38.6 9.40001V9.3C38.5 8.9 38.4 8.6 38.3 8.3C38.2 8.1 38.1 7.80001 38 7.60001V7.5C38 7.3 37.9 7.2 37.8 7V6.90001C37.8 6.80001 37.7 6.6 37.6 6.5C37.6 6.5 37.5 6.4 37.5 6.3C37.5 6.2 37.4 6.10001 37.4 5.90001C37.3 5.80001 37.3 5.70001 37.2 5.70001C37.1 5.60001 37 5.50001 37 5.40001C37 5.40001 37 5.30001 36.9 5.20001C36.9 5.10001 36.8 5.00001 36.7 4.90001C36.6 4.80001 36.6 4.80001 36.5 4.70001C36.3 4.50001 36.2 4.40001 36.1 4.20001C36 4.00001 35.8 3.9 35.7 3.8C35.6 3.7 35.4 3.60001 35.3 3.40001C35.2 3.20001 35.1 3.10001 34.8 3.10001H34.7C34.5 2.90001 34.2 2.70001 34 2.60001L33.8 2.5C33.5 2.3 33.1 2.10001 32.7 1.90001C32.5 1.70001 32.3 1.6 32.1 1.5C32 1.4 31.9 1.4 31.8 1.3C31.7 1.2 31.6 1.20001 31.5 1.20001C31.3 1.20001 31.2 1.20001 31.1 1.10001C30.9 0.900006 30.7 0.900009 30.5 0.900009C30.3 0.900009 30.2 0.800003 30.1 0.800003C30 0.800003 29.9 0.700012 29.9 0.700012C29.6 0.600012 29.1 0.400009 28.6 0.400009C28.5 0.400009 28.4 0.400003 28.3 0.300003H28.2C28.1 0.300003 28 0.200012 27.9 0.200012C27.6 0.100012 27.3 6.10203e-06 26.9 0.100006C26.9 0.100006 26.8 0.100006 26.7 0.100006C26.4 6.10203e-06 26.1 0 25.7 0C25.6 0 25.4 0 25.3 0L25.1 0.100006C24.9 6.10203e-06 24.7 6.10203e-06 24.4 0.100006C24.3 0.100006 24.2 0.100006 24.1 0.100006C23.4 0.100006 22.8 0.200009 22.2 0.400009C22 0.400009 21.9 0.5 21.7 0.5C21.5 0.5 21.3 0.600006 21.2 0.600006C21.1 0.600006 21.1 0.700012 21 0.700012C20.9 0.800012 20.8 0.800003 20.8 0.800003C20.6 0.700003 20.5 0.800009 20.4 0.900009C20.3 1.00001 20.1 1.00001 20 1.10001C19.9 1.10001 19.7 1.2 19.6 1.3C19.5 1.3 19.5 1.30001 19.4 1.40001C19.3 1.40001 19.2 1.5 19 1.5C18.9 1.6 18.8 1.60001 18.7 1.60001C18.5 1.60001 18.4 1.7 18.3 1.8L18.2 1.90001C17.9 1.90001 17.7 2.10001 17.5 2.20001C17.4 2.20001 17.4 2.3 17.3 2.3C17.2 2.3 17.1 2.40001 17 2.40001C16.9 2.40001 16.8 2.50001 16.7 2.60001C16.7 2.70001 16.6 2.7 16.4 2.8C16 3 15.7 3.20001 15.4 3.40001C15.3 3.50001 15.2 3.60001 15 3.70001C14.5 4.00001 14.1 4.4 13.6 4.8L13.4 5C13.2 5.2 13.1 5.30001 12.9 5.40001C12.8 5.40001 12.7 5.50001 12.7 5.70001C12.7 5.80001 12.6 5.80001 12.5 5.90001L12.4 6C12.2 6.2 12.1 6.3 12 6.5C11.8 6.8 11.6 7.00001 11.4 7.20001C11.3 7.30001 11.3 7.30001 11.2 7.40001C11.1 7.50001 11.1 7.60001 11 7.70001C10.8 7.90001 10.7 8.1 10.4 8.3C10.2 8.4 10.1 8.6 10 8.8C9.8 9 9.7 9.2 9.5 9.3C9.5 9.4 9.4 9.4 9.4 9.5C9.4 9.6 9.3 9.60001 9.3 9.70001L9.2 9.90001C9.1 10 9.1 10.1 9 10.1L8.9 10.2L8.8 10.3C8.6 10.5 8.5 10.6 8.4 10.8C8.4 10.9 8.3 10.9 8.2 11C8.1 11.1 8.1 11.1 8 11.2C7.9 11.3 7.9 11.4 7.9 11.4C7.9 11.4 7.9 11.5 7.8 11.5L7.7 11.6C7.7 11.6 7.6 11.7 7.5 11.8C7.4 12 7.2 12.3 7 12.5C6.9 12.6 6.8 12.7 6.7 12.9C6.6 13 6.5 13.1 6.5 13.2C6.5 13.2 6.5 13.3 6.4 13.3L6.3 13.4C6.2 13.5 6.1 13.7 6.1 13.8C6.1 13.9 6.1 13.9 6 14L5.9 14.1H5.7C5.6 14.2 5.5 14.3 5.5 14.4C5.4 14.7 5.2 14.9 5 15.2L4.9 15.3C4.9 15.3 4.8 15.4 4.8 15.5C4.8 15.6 4.7 15.6 4.7 15.6C4.4 15.8 4.3 16 4.3 16.2C4.2 16.2 4.1 16.3 4.1 16.4C4.1 16.5 4 16.7 3.9 16.8C3.8 17 3.6 17.2 3.6 17.4C3.6 17.5 3.5 17.7 3.4 17.9C3.3 18 3.2 18.2 3.2 18.3L3.1 18.6C3 18.8 3 18.9 2.9 19.1C2.8 19.2 2.7 19.4 2.7 19.5C2.6 19.6 2.6 19.7 2.5 19.8C2.4 19.9 2.3 20.1 2.4 20.3L2.3 20.4C2.1 20.7 2 21 2 21.4C2 21.5 2 21.5 2 21.5C1.8 21.7 1.7 21.9 1.7 22.1C1.7 22.2 1.7 22.3 1.6 22.3C1.6 22.4 1.4 22.6 1.5 22.8C1.5 22.9 1.5 22.9 1.4 23C1.3 23.1 1.1 23.4 1.2 23.7C1.1 23.8 1.1 23.9 1.1 24C1.1 24.2 1 24.4 0.9 24.6L0.8 25C0.8 25.1 0.7 25.2 0.8 25.4C0.8 25.5 0.8 25.6 0.7 25.7C0.6 25.8 0.6 25.9 0.6 26V26.1C0.6 26.3 0.5 26.4 0.5 26.6C0.5 26.8 0.4 27 0.5 27.1C0.4 27.2 0.3 27.3 0.3 27.5C0.3 27.5 0.3 27.6 0.3 27.7V27.9C0.3 28 0.3 28.2 0.3 28.3C0.3 28.4 0.3 28.4 0.3 28.5C0.3 28.7 0.2 28.9 0.3 29.1C0.2 29.4 0.2 29.6 0.1 29.8C0.1 29.9 0.1 30.1 0 30.2C0 30.3 0 30.4 0 30.5V30.9C0 31.1 0 31.2 0 31.4C0 31.5 0 31.6 0 31.7C0 31.9 0 32.2 0 32.4C0 32.5 0 32.6 0 32.8C0 33 7.45058e-09 33.2 0.1 33.5C0.2 33.7 0.2 33.8 0.2 34C0.2 34.1 0.3 34.3 0.3 34.4C0.3 34.5 0.3 34.5 0.4 34.6C0.4 34.7 0.5 34.7 0.4 34.8V34.9L0.5 35C0.6 35.1 0.6 35.2 0.6 35.3C0.7 35.5 0.7 35.8 1 36L1.1 36.2C1.1 36.3 1.2 36.3 1.2 36.4C1.3 36.7 1.5 36.8 1.6 37C1.7 37.1 1.8 37.2 1.9 37.4C2 37.7 2.2 37.9 2.4 38C2.4 38 2.5 38.1 2.6 38.1C2.7 38.2 2.8 38.3 3 38.4C3 38.4 3 38.5 3.1 38.5C3.1 38.6 3.2 38.6 3.3 38.7C3.4 38.8 3.5 38.9 3.7 39C3.8 39 3.8 39.1 3.9 39.2C4 39.4 4.2 39.5 4.3 39.5C4.4 39.6 4.5 39.7 4.7 39.8C4.8 39.9 4.9 40 5 40.1C5.1 40.2 5.2 40.3 5.4 40.3C5.5 40.3 5.6 40.4 5.7 40.5L5.8 40.6C5.9 40.7 6.1 40.8 6.2 40.9C6.7 41.2 7.1 41.4 7.6 41.6C7.7 41.6 7.8 41.7 8 41.7C8.1 41.7 8.3 41.7 8.4 41.8L8.5 41.5V41.8C8.7 41.9 8.9 42 9.2 41.9H9.3H9.4C9.6 42 9.9 42.1 10.2 42C10.4 42 10.6 41.9 10.8 42C11 42.1 11.2 42 11.4 42C11.5 42 11.6 42 11.8 42H12C12.2 42 12.3 41.9 12.5 41.9C12.6 41.9 12.6 41.9 12.7 41.8H12.8C13.3 41.8 13.7 41.7 14.1 41.5C14.2 41.5 14.4 41.4 14.5 41.4C14.8 41.4 15.1 41.3 15.2 41.2H15.3C15.4 41.2 15.6 41.2 15.8 41L16 40.9C16.1 40.9 16.1 40.8 16.2 40.8H16.3C16.4 40.8 16.5 40.7 16.6 40.7C16.8 40.7 16.9 40.6 17.1 40.5C17.5 40.4 17.8 40.2 18 40.1C18.1 40.1 18.2 40 18.2 40C18.5 40 18.7 39.9 18.8 39.8C18.9 39.7 18.9 39.7 19 39.7H19.2V39.5C19.2 39.5 19.3 39.5 19.4 39.4C19.6 39.4 19.8 39.3 19.9 39.1C20 39 20 39 20.1 38.9C20.2 38.8 20.4 38.7 20.5 38.6C20.7 38.6 20.8 38.4 20.9 38.3C21 38.2 21 38.2 21.1 38.2C21.3 38.2 21.4 38 21.5 37.9C21.6 37.8 21.7 37.6 21.9 37.5C22 37.4 22 37.4 22.1 37.3C22.4 37.1 22.5 36.8 22.7 36.6C22.7 36.5 22.8 36.5 22.8 36.4C22.9 36.3 22.9 36.2 23 36.1C23.2 36.3 23.4 36.4 23.5 36.6C23.6 36.8 23.8 37 23.9 37.1C24 37.2 24.1 37.3 24.3 37.5C24.4 37.7 24.6 37.9 24.8 38C24.9 38 24.9 38.1 25 38.3C25.1 38.4 25.1 38.5 25.2 38.5L24.8 39.1C24.9 39.3 25.1 39.4 25.2 39.6C25.3 39.7 25.4 39.7 25.4 39.8L25.5 39.9C25.6 40 25.6 40 25.6 40.1C25.7 40.3 25.9 40.5 26.1 40.6V40.7C26.2 40.9 26.4 41.2 26.6 41.3C26.8 41.6 27 41.8 27.2 41.9C27.2 41.9 27.2 42 27.3 42L27.4 42.2C27.5 42.4 27.6 42.5 27.8 42.7C28 42.8 28.1 43 28.2 43.1L28.3 43.2C28.4 43.4 28.6 43.6 28.7 43.7L28.8 43.8C28.9 43.9 28.9 43.9 28.9 43.9C28.9 44.1 29.1 44.2 29.2 44.3C29.3 44.3 29.3 44.4 29.4 44.5C29.5 44.6 29.6 44.8 29.7 44.9C29.8 45.1 29.9 45.2 30 45.4L30.2 45.6C30.3 45.7 30.4 45.8 30.4 45.9C30.5 46.1 30.7 46.3 30.8 46.5C30.9 46.6 31 46.7 31 46.8C31.1 46.9 31.3 47 31.4 47.1C31.4 47.2 31.5 47.4 31.6 47.5C31.7 47.5 31.7 47.6 31.8 47.7C31.9 47.8 32.1 48 32.4 48.1L32.5 48.2C32.7 48.3 32.9 48.4 33.1 48.5C33.2 48.5 33.4 48.5 33.5 48.5C33.6 48.5 33.7 48.5 33.9 48.5C34.1 48.5 34.3 48.5 34.6 48.4C34.7 48.4 34.9 48.3 35 48.3C35.1 48.3 35.2 48.2 35.3 48.2C35.4 48.2 35.5 48.1 35.5 48.1C35.6 48 35.7 48 35.8 48C36 48 36.1 47.9 36.2 47.8C36.4 47.7 36.6 47.5 36.8 47.4C37 47.2 37.3 47.1 37.5 47C37.6 46.9 37.7 46.9 37.8 46.8L37.9 46.7C38.1 46.6 38.4 46.5 38.5 46.3C38.6 46.2 38.6 46.2 38.7 46.1C38.8 46 39 45.9 39.1 45.8C39.3 45.8 39.5 45.6 39.6 45.5L39.7 45.4L39.8 45.3C39.9 45.2 40 45.1 40.1 45C40.1 44.9 40.2 44.9 40.2 44.9L40.3 44.8C40.5 44.7 40.7 44.6 40.8 44.4C40.9 44.3 41 44.2 41.2 44.1L41.4 44C41.5 44 41.5 43.9 41.6 43.9C41.8 43.7 42 43.6 42.1 43.4C42.4 43.2 42.6 42.9 42.9 42.7C43 42.6 43.1 42.5 43.2 42.4C43.3 42.3 43.4 42.2 43.5 42.2C43.6 42.2 43.7 42 43.7 42L43.8 41.9V41.8C44.1 41.6 44.4 41.3 44.7 40.9C45.1 40.7 45.4 40.4 45.6 40L45.7 39.9C45.8 39.9 45.8 39.8 45.9 39.7C46 39.6 46 39.6 46.1 39.5L46.2 39.4C46.5 39.2 46.6 39 46.8 38.8L46.9 38.7C47.1 38.4 47.3 38.1 47.3 37.7C47.5 37.3 47.5 36.7 47.2 36.2ZM16.3 39.5L16.2 39.4L16.3 39.5ZM32.9 23.3C32.8 23.4 32.8 23.4 32.8 23.5C32.7 23.6 32.6 23.7 32.5 23.9L32.4 23.8C32.2 23.7 32.1 23.6 32 23.5C31.8 23.3 31.6 23.2 31.4 23.1C31.3 23.1 31.3 23 31.2 23C31.1 23 31.1 22.9 30.9 22.9C30.8 22.8 30.7 22.8 30.6 22.7C30.5 22.6 30.4 22.3 30.2 22.2C30.1 22 30 21.8 29.8 21.7C29.7 21.6 29.6 21.5 29.6 21.4C29.5 21.3 29.4 21.1 29.3 21C29.2 20.9 29.1 20.8 29 20.6L28.9 20.5C28.8 20.4 28.8 20.3 28.8 20.2C28.8 20.1 28.8 20 28.7 19.8C28.7 19.7 28.6 19.6 28.6 19.5C28.6 19.4 28.5 19.3 28.5 19.2C28.5 19.1 28.5 19.1 28.6 19V18.9C28.6 18.8 28.7 18.7 28.7 18.6L28.8 18.5V18.4C28.9 18.2 29 18.1 29.3 18.1C29.4 18.1 29.5 18 29.5 18C29.6 18 29.7 17.9 29.8 17.9C30 17.8 30 17.8 30 17.8C30.2 17.9 30.3 17.8 30.5 17.7C30.6 17.7 30.7 17.7 30.8 17.7C31 17.8 31.2 17.8 31.4 17.8C31.5 17.8 31.6 17.8 31.6 17.8H31.7C31.9 17.9 32 18 32.2 18C32.3 18 32.3 18 32.4 18C32.4 18 32.5 18 32.5 18.1C32.6 18.1 32.7 18.2 32.7 18.2C32.8 18.3 32.9 18.3 33 18.3C33.2 18.5 33.3 18.5 33.5 18.5C33.7 18.7 33.9 18.7 34 18.7H34.1C34.3 18.8 34.5 18.9 34.7 18.9H34.8C34.7 19.2 34.6 19.4 34.5 19.7V19.8C34.5 19.9 34.4 19.9 34.4 20C34.4 20.1 34.4 20.1 34.3 20.2C34.2 20.3 34.2 20.5 34.1 20.6C34.1 20.7 34.1 20.8 34 20.8H33.9L33.8 21.1C33.7 21.2 33.7 21.4 33.6 21.5C33.6 21.6 33.5 21.7 33.4 21.7L33.3 21.8C33.2 21.9 33.2 22 33.1 22.1C33.1 22.2 33 22.3 33 22.3C33.1 22.8 33 23 32.9 23.3ZM18.6 3.10001H18.7C18.8 3.10001 19 3.00001 19.1 2.90001C19.3 2.90001 19.5 2.80001 19.7 2.70001L19.8 2.60001C19.9 2.60001 19.9 2.6 20 2.5C20.2 2.5 20.3 2.4 20.5 2.3H20.6H20.7C20.8 2.3 20.9 2.20001 21.1 2.20001C21.3 2.10001 21.6 2 21.9 2C22 2 22.1 2.00001 22.2 1.90001L22.5 1.8C22.6 1.8 22.7 1.8 22.7 1.8C22.9 1.8 23.1 1.80001 23.3 1.60001C23.4 1.70001 23.6 1.7 23.8 1.5C23.8 1.4 23.9 1.4 24.1 1.5C24.2 1.5 24.2 1.5 24.3 1.5C24.5 1.5 24.8 1.5 25 1.5C25.3 1.4 25.5 1.4 25.8 1.5H26C26.3 1.6 26.7 1.60001 27.1 1.60001H27.2C27.4 1.70001 27.5 1.70001 27.7 1.70001H27.9H28C28 1.70001 28.1 1.8 28.3 1.8C28.5 1.8 28.7 1.90001 29 1.90001C29.1 1.90001 29.3 2 29.4 2C29.5 2 29.6 2.10001 29.7 2.10001H29.9C30.1 2.30001 30.4 2.40001 30.6 2.40001H30.7C30.8 2.40001 30.9 2.50001 31.1 2.60001L31.2 2.70001C31.3 2.70001 31.4 2.8 31.5 2.8C31.7 2.9 31.9 3.00001 32.2 3.10001C32.4 3.30001 32.6 3.40001 32.8 3.40001C32.9 3.40001 32.9 3.4 33 3.5C33.1 3.6 33.1 3.70001 33.3 3.70001C33.4 3.70001 33.4 3.7 33.4 3.8L33.5 4H33.6C33.7 4 33.8 4.10001 33.9 4.20001C34 4.30001 34.2 4.5 34.4 4.5C34.4 4.5 34.4 4.50001 34.5 4.60001L34.6 4.70001C34.7 4.80001 34.8 5.00001 35 5.10001C35.2 5.30001 35.3 5.50001 35.6 5.70001C35.7 5.80001 35.8 5.9 35.8 6C35.9 6.2 36 6.40001 36.2 6.60001C36.2 6.70001 36.3 6.7 36.3 6.8C36.4 7 36.5 7.10001 36.5 7.20001C36.5 7.60001 36.7 7.90001 36.9 8.10001C36.9 8.40001 37 8.70001 37.2 9.10001C37.2 9.40001 37.3 9.6 37.4 9.8C37.4 9.8 37.4 9.90001 37.5 9.90001C37.6 10.2 37.6 10.6 37.6 11C37.6 11.1 37.6 11.3 37.7 11.4V11.5C37.7 11.6 37.7 11.6 37.7 11.6V11.7L37.6 11.8V11.9C37.6 12 37.6 12 37.6 12.1C37.6 12.3 37.6 12.5 37.6 12.7C37.6 12.9 37.6 13 37.6 13.1C37.5 13.4 37.5 13.6 37.4 13.9C37.4 14 37.3 14.1 37.3 14.2C37.2 14.4 37.2 14.7 37.2 14.9C37.2 14.9 37.2 15 37.1 15C37 15.1 36.9 15.3 36.9 15.5C36.9 15.5 36.9 15.6 36.8 15.7C36.8 15.8 36.7 15.9 36.7 16C36.6 16.3 36.5 16.4 36.4 16.6C36.3 16.8 36.2 17 36.2 17.2H36.1L35.6 17.1C35.6 17.1 35.6 17.1 35.5 17.1C35.4 17 35.3 17 35.1 17C34.9 16.9 34.7 16.8 34.5 16.8C34.4 16.8 34.3 16.7 34.1 16.6C33.9 16.5 33.7 16.4 33.4 16.4C32.8 16.2 32.4 16 31.7 16H31.6C31.5 16 31.3 15.9 31.1 16C30.8 15.9 30.4 16 30.1 16.1C30 16.1 29.9 16.1 29.8 16.2C29.6 16.3 29.3 16.3 29.1 16.4C28.9 16.4 28.8 16.4 28.7 16.5C28.3 16.7 27.9 17.1 27.6 17.6C27.4 18 27.3 18.3 27.3 18.7C27.3 18.9 27.3 19.1 27.3 19.3C27.2 19.5 27.2 19.8 27.4 20.1C27.4 20.2 27.5 20.3 27.5 20.4C27.5 20.5 27.5 20.5 27.6 20.6C27.6 20.7 27.7 20.8 27.8 20.9C28 21.1 28.2 21.4 28.3 21.8C28.5 22.2 28.8 22.5 29.1 22.7C29.1 22.7 29.1 22.7 29.2 22.8C29.3 23 29.4 23.1 29.6 23.2C29.8 23.3 30 23.5 30.2 23.6L30.4 23.7C30.4 24 30.5 24.2 30.8 24.3C30.9 24.3 31.1 24.4 31.2 24.5H31.3C31.5 24.8 31.7 24.9 32 25.1C32.2 25.2 32.3 25.3 32.4 25.4C32.5 25.5 32.6 25.5 32.7 25.6C32.7 25.6 32.8 25.6 32.8 25.7L32.9 25.8C33 25.9 33.1 26 33.2 26.1C33.3 26.2 33.4 26.2 33.6 26.3C33.8 26.4 33.9 26.6 34.2 26.7C34.3 26.7 34.3 26.8 34.4 26.8C34.5 26.9 34.7 27 34.9 27.1C35.2 27.4 35.5 27.5 35.8 27.7L36 27.8C36.2 28 36.4 28.2 36.6 28.3C36.7 28.3 36.8 28.4 36.9 28.5C37.2 28.7 37.4 28.9 37.8 29.1C38.1 29.3 38.4 29.5 38.7 29.7L38.8 29.8H38.9C39 29.8 39.1 29.9 39.2 30C39.3 30.1 39.5 30.3 39.7 30.3C39.7 30.4 39.8 30.5 40 30.5L40.5 31C40.6 31.1 40.7 31.2 40.8 31.2C40.9 31.2 40.9 31.3 41 31.4L41.1 31.5L41.2 31.6C41.4 31.8 41.6 32 41.9 32.1C42.2 32.5 42.5 32.8 42.9 32.9C43.1 33.2 43.4 33.5 43.7 33.7L43.9 33.9C44.1 34.1 44.3 34.2 44.4 34.4L44.6 34.6C44.7 34.8 44.8 34.9 44.9 35.1C45 35.3 45.1 35.4 45.2 35.6C45.3 35.7 45.3 35.8 45.4 35.9C45.5 36 45.5 36 45.5 36L45.6 36.1C45.8 36.4 45.9 36.8 46 37.1L46.1 37.4C46.1 37.5 46.1 37.6 46.1 37.7C46 37.8 46 37.9 45.9 37.9C45.8 38 45.8 38 45.8 38.1C45.6 38.2 45.5 38.4 45.4 38.5L45.3 38.6C45.2 38.7 45.1 38.8 45 38.9C44.8 39 44.7 39.1 44.6 39.3C44.6 39.4 44.5 39.4 44.4 39.5C44.3 39.6 44.3 39.6 44.2 39.7L44 39.9C43.9 40 43.8 40.1 43.7 40.2C43.6 40.2 43.4 40.3 43.4 40.5C43.3 40.5 43.2 40.6 43.2 40.7C43.1 40.8 43 40.9 42.9 41C42.7 41.1 42.5 41.3 42.4 41.5C42.2 41.7 42 41.8 41.8 42C41.7 42.1 41.5 42.3 41.4 42.4L41.3 42.5C41.2 42.6 41 42.7 40.9 42.9C40.7 42.9 40.5 43 40.4 43.3L40.3 43.4L40.2 43.5L40 43.6C39.9 43.7 39.8 43.8 39.6 43.9C39.5 44 39.4 44.1 39.3 44.2L39.2 44.4C38.9 44.5 38.6 44.7 38.4 44.9C38.2 45.1 38 45.2 37.8 45.3H37.7L37.6 45.4C37.6 45.5 37.5 45.5 37.4 45.6C37.3 45.6 37.2 45.7 37.2 45.8C37.1 45.9 37 45.9 36.9 46C36.8 46 36.7 46.1 36.6 46.2C36.5 46.3 36.4 46.3 36.4 46.4C36.3 46.5 36.2 46.5 36.1 46.6C36 46.6 36 46.6 35.9 46.7C35.8 46.7 35.6 46.8 35.5 46.9C35.4 47 35.2 47 35 47C34.9 47 34.8 47 34.7 47C34.6 47 34.5 46.9 34.3 46.9C34.1 46.9 34 46.8 33.9 46.8C33.8 46.7 33.7 46.7 33.6 46.7C33.5 46.6 33.4 46.5 33.3 46.4C33.2 46.3 33.2 46.3 33.2 46.3C33.1 46.1 32.9 45.9 32.8 45.8C32.7 45.7 32.7 45.7 32.6 45.6C32.5 45.5 32.5 45.5 32.4 45.4C32.3 45.3 32.2 45.1 32.1 45C32 44.8 31.9 44.6 31.6 44.5L31.5 44.4C31.4 44.3 31.4 44.2 31.3 44.1L31.2 43.9C31.2 43.8 31.1 43.7 30.9 43.6C30.9 43.6 30.8 43.6 30.8 43.4C30.8 43.3 30.7 43.3 30.7 43.2C30.5 43 30.4 42.8 30.2 42.6C30.1 42.4 30 42.3 29.9 42.1C29.8 42 29.7 41.9 29.6 41.8L29.5 41.7C29.4 41.6 29.4 41.6 29.4 41.5C29.4 41.5 29.3 41.3 29.2 41.2C29.1 41.1 29 41 28.9 40.9C28.8 40.8 28.8 40.7 28.7 40.7C28.6 40.6 28.6 40.6 28.5 40.5C28.4 40.4 28.2 40.3 28.2 40.1V40L28.1 39.9C28 39.9 28 39.8 27.9 39.7C27.9 39.6 27.8 39.6 27.8 39.6C27.7 39.5 27.6 39.4 27.4 39.2C27.3 39.1 27.3 39.1 27.2 39C27.1 38.9 27 38.8 27 38.7V38.6C26.9 38.5 26.8 38.3 26.6 38.2C26.5 38 26.4 37.8 26.2 37.7C26.1 37.6 26 37.5 25.9 37.4C25.7 37.3 25.6 37.1 25.5 37C25.4 36.9 25.3 36.7 25.1 36.5C25 36.3 24.8 36.1 24.7 36C24.6 35.9 24.4 35.8 24.4 35.6V35.5H24.3C24.2 35.4 24.1 35.3 24 35.2C24 35.1 23.9 35 23.8 35C23.6 34.9 23.5 34.8 23.3 34.6L23.2 34.4C23.1 34.3 22.9 34.2 22.8 34.1H22.7C22.7 34 22.5 33.9 22.3 33.8C22 33.7 21.8 33.6 21.6 33.3L21.5 33.2C21.4 33.1 21.3 32.9 21.1 32.8C20.9 32.6 20.8 32.6 20.6 32.5C20.5 32.4 20.3 32.4 20.2 32.3C20.1 32.2 20 32.2 20 32.2C19.9 32.1 19.8 32.1 19.8 32.1C19.8 32.1 19.7 32.1 19.7 32C19.6 31.9 19.5 31.9 19.4 31.8H19.2C19 31.8 19 31.8 18.9 31.7C18.7 31.6 18.5 31.6 18.3 31.6C18.2 31.6 18.2 31.6 18.1 31.6C17.6 31.6 17.2 31.7 16.8 31.9H16.7C16.6 31.9 16.5 31.9 16.4 32C16 32.2 15.5 32.5 15.1 32.8C14.9 32.9 14.7 33.1 14.6 33.3C14.6 33.3 14.6 33.3 14.5 33.4C14.4 33.5 14.3 33.6 14.2 33.8L14.1 33.9L14 34C13.8 34.2 13.6 34.4 13.5 34.7C13.3 35 13.2 35.3 13.1 35.5C13.1 35.6 13 35.7 13 35.9C13 36 12.9 36.1 12.9 36.3C12.9 36.3 12.9 36.3 12.9 36.4C12.8 36.5 12.7 36.7 12.7 36.9V37C12.6 37.1 12.6 37.3 12.6 37.5C12.6 37.7 12.6 37.9 12.6 38.1C12.6 38.2 12.6 38.3 12.6 38.3C12.6 38.4 12.6 38.6 12.6 38.8C12.6 39 12.7 39.1 12.6 39.3V39.4V39.5C12.7 39.7 12.7 39.8 12.7 40C12.7 40.1 12.7 40.3 12.7 40.4V40.5C12.7 40.6 12.7 40.6 12.7 40.7C12.6 40.8 12.4 40.8 12.3 40.8C12.1 40.8 12 40.8 11.8 40.8C11.5 40.8 11.2 40.8 10.9 40.8C10.6 40.8 10.3 40.8 9.9 40.8C9.9 40.8 9.8 40.8 9.7 40.8C9.5 40.6 9.3 40.6 9 40.7C8.9 40.6 8.8 40.6 8.7 40.6C8.6 40.6 8.4 40.5 8.4 40.5H8.3C8.2 40.4 8 40.4 7.9 40.4C7.7 40.4 7.7 40.4 7.6 40.3C7.4 40.1 7.1 40 6.8 39.9C6.7 39.7 6.5 39.6 6.4 39.6C6.4 39.6 6.3 39.6 6.3 39.5C6.2 39.5 6.2 39.4 6.1 39.3C6 39.2 5.9 39.2 5.9 39.1C5.8 39 5.7 39 5.6 38.9C5.5 38.9 5.5 38.8 5.4 38.8C5.3 38.7 5.2 38.6 5.1 38.5C5 38.4 4.9 38.3 4.7 38.2C4.7 38.1 4.6 38 4.5 38C4.3 37.9 4.2 37.7 4 37.5L3.6 37.1C3.4 36.9 3.3 36.7 3.2 36.6L3.1 36.4L3 36.3L2.9 36.2C2.7 36 2.6 35.8 2.5 35.5C2.5 35.4 2.4 35.3 2.4 35.3C2.4 35.2 2.3 35.1 2.2 35C2.2 34.7 2.1 34.5 2 34.3C1.9 34.2 1.9 34 1.9 33.9C1.9 33.8 1.9 33.7 1.9 33.6C1.9 33.3 1.8 33 1.7 32.7C1.8 32.2 1.8 31.6 1.7 31.2C1.7 31.1 1.7 31.1 1.7 31C1.7 30.9 1.7 30.8 1.7 30.6V30.5C1.7 30.4 1.7 30.4 1.7 30.4C1.7 30.2 1.7 30.1 1.7 29.9C1.7 29.9 1.7 29.8 1.7 29.7V29.6V29.4C1.7 29.3 1.7 29.1 1.8 29C1.8 28.9 1.8 28.9 1.9 28.8C2 28.7 1.9 28.5 1.9 28.4C1.8 28.3 1.8 28.1 1.8 28C1.8 27.8 1.8 27.6 1.9 27.5C2 27.4 2 27.2 2 27.1C2 26.9 2 26.7 2.1 26.4L2.2 26.2C2.3 25.9 2.4 25.5 2.4 25.1C2.6 24.9 2.6 24.6 2.6 24.3C2.6 24.1 2.7 23.9 2.8 23.7C2.9 23.6 2.9 23.4 2.9 23.2C2.9 23.1 2.9 23 3.1 22.8C3.1 22.8 3.2 22.7 3.2 22.6C3.2 22.5 3.2 22.4 3.2 22.3C3.2 22.1 3.2 22.1 3.2 22.1L3.3 22V21.9C3.3 21.8 3.4 21.7 3.4 21.6C3.5 21.5 3.5 21.4 3.5 21.3C3.6 21 3.7 20.7 3.9 20.4C4 20.2 4.1 20 4.2 19.8C4.3 19.7 4.3 19.5 4.4 19.4C4.5 19.3 4.6 19.2 4.6 19C4.6 18.9 4.6 18.9 4.7 18.9C4.8 18.8 4.8 18.7 4.9 18.5C4.9 18.4 4.9 18.4 5 18.3C5.1 18.1 5.1 18 5.2 18C5.3 17.9 5.4 17.8 5.4 17.7C5.4 17.6 5.5 17.5 5.6 17.3C5.7 17.2 5.7 17.1 5.8 17C5.9 16.8 6 16.7 6.1 16.6C6.2 16.5 6.2 16.4 6.3 16.4C6.4 16.2 6.6 16 6.7 15.8C6.8 15.7 6.9 15.5 7 15.4L7.2 15.1C7.3 14.9 7.5 14.7 7.6 14.5C7.7 14.4 7.8 14.3 7.9 14.1H7.8C7.9 14 8.1 13.8 8.1 13.5L8.9 12.5C9 12.4 9 12.3 9.1 12.3C9.1 12.3 9.1 12.2 9.2 12.2V12.1C9.3 12 9.4 11.9 9.5 11.8C9.6 11.7 9.8 11.5 9.9 11.3C9.9 11.2 10 11.1 10.2 11C10.4 10.8 10.6 10.6 10.7 10.4L10.9 10.2C11.3 9.60001 11.7 9.10001 12.2 8.60001C12.3 8.50001 12.4 8.4 12.4 8.3C12.4 8.2 12.5 8.2 12.6 8C12.8 7.8 12.9 7.7 13 7.5C13.1 7.4 13.1 7.30001 13.2 7.20001C13.4 7.10001 13.6 6.90001 13.8 6.60001V6.5C14.1 6.4 14.2 6.2 14.4 6L14.5 5.90001C14.5 5.90001 14.5 5.9 14.6 5.8C14.6 5.8 14.7 5.80001 14.7 5.70001L14.8 5.60001C14.9 5.50001 15 5.4 15.1 5.3C15.2 5.2 15.3 5.10001 15.4 5.10001C15.7 4.90001 16 4.60001 16.3 4.40001C16.3 4.40001 16.4 4.4 16.4 4.3C16.5 4.3 16.6 4.20001 16.7 4.10001C16.7 4.00001 16.8 4 16.9 4C17.1 3.9 17.3 3.80001 17.5 3.70001L17.6 3.60001C17.7 3.50001 17.7 3.5 17.7 3.5C17.9 3.5 18 3.40001 18.1 3.20001C18.4 3.20001 18.6 3.1 18.7 3C18.4 3.2 18.5 3.20001 18.6 3.10001ZM20.9 36.2C20.7 36.2 20.6 36.3 20.4 36.5C20.4 36.5 20.3 36.6 20.2 36.6C20.1 36.6 20.1 36.7 20 36.7C19.9 36.7 19.9 36.8 19.8 36.8C19.7 36.9 19.5 37 19.4 37.1C19.3 37.2 19.2 37.2 19.1 37.3C19 37.3 19 37.4 18.9 37.4C18.8 37.5 18.7 37.5 18.6 37.6L18.3 37.8C18.2 37.9 18.1 38 18 38C17.9 38.1 17.7 38.2 17.6 38.3L17.5 38.4C17.3 38.5 17.2 38.6 17 38.6C16.9 38.6 16.8 38.7 16.7 38.8C16.6 38.9 16.5 38.9 16.4 38.9C16.2 38.9 16.1 39 16.1 39.1C15.8 39.1 15.6 39.2 15.5 39.3C15.4 39.4 15.3 39.4 15.3 39.4H15.2L15.1 39.5C15.1 39.6 15 39.6 14.9 39.6C14.8 39.6 14.8 39.6 14.7 39.7C14.6 39.7 14.5 39.7 14.4 39.8C14.4 39.8 14.4 39.8 14.3 39.8C14.2 39.8 14.2 39.7 14.1 39.7C14.1 39.4 14 39.1 13.9 38.9V38.8V38.6C13.9 38.4 14 38.2 13.9 37.9C13.9 37.8 13.9 37.7 13.9 37.6C13.9 37.4 14 37.3 14 37.1C14 37 14 36.9 14 36.8C14.1 36.7 14.1 36.6 14.1 36.5C14.1 36.3 14.2 36.1 14.3 35.9C14.4 35.8 14.4 35.6 14.4 35.5C14.5 35.4 14.6 35.2 14.7 35.1C14.8 34.9 14.9 34.8 15 34.7H15.1V34.6C15.2 34.4 15.3 34.3 15.5 34.2C15.7 34.1 15.8 33.9 16 33.7L15.8 33.5L16 33.7L16.3 33.5C16.5 33.4 16.8 33.3 17 33.1C17.2 33 17.3 33 17.4 33C17.5 33.1 17.7 33.1 17.8 33C18.1 33 18.4 33.1 18.6 33.2L18.7 33.3H18.8C18.9 33.3 19 33.4 19.1 33.5C19.2 33.6 19.3 33.7 19.5 33.7C19.6 33.7 19.6 33.8 19.7 33.9C19.9 34.2 20.2 34.4 20.4 34.6C20.5 34.7 20.6 34.8 20.7 34.9L20.8 35.1C20.9 35.2 21 35.3 21.1 35.4C21.1 35.5 21.2 35.5 21.3 35.6L21.5 35.8C21.2 35.9 21 36 20.9 36.2Z"/><path fill="#D2AF49" d="M27.4002 25.8999C27.8002 26.2999 28.2002 26.5999 28.5002 26.8999C28.6002 26.9999 28.8002 27.0999 28.9002 27.1999C29.0002 27.1999 29.1002 27.2999 29.1002 27.2999H29.2002C29.2002 27.2999 29.3002 27.2999 29.3002 27.3999C29.4002 27.4999 29.4002 27.5999 29.6002 27.5999C29.8002 27.6999 29.9002 27.7999 30.1002 27.8999L30.3002 27.9999C30.4002 28.0999 30.5002 28.0999 30.6002 28.0999C30.7002 28.0999 30.7002 28.1999 30.8002 28.1999C31.0002 28.2999 31.1002 28.3999 31.3002 28.4999H31.4002C31.5002 28.6999 31.7002 28.7999 31.8002 28.8999C31.8002 28.8999 31.9002 28.8999 31.9002 28.9999C31.9002 28.9999 32.0002 28.9999 32.0002 29.0999C32.2002 29.3999 32.4002 29.4999 32.6002 29.5999L32.7002 29.6999C32.8002 29.7999 32.9002 29.7999 33.0002 29.8999C33.2002 29.9999 33.4002 30.1999 33.6002 30.1999V30.2999C33.9002 30.6999 34.1002 30.8999 34.6002 31.0999C34.7002 31.2999 34.9002 31.3999 35.1002 31.4999C35.2002 31.5999 35.3002 31.5999 35.4002 31.6999C35.6002 31.8999 35.8002 32.0999 36.0002 32.1999C36.1002 32.2999 36.2002 32.2999 36.3002 32.3999C36.8002 32.7999 37.3002 33.2999 37.8002 33.7999L38.0002 33.9999L38.1002 34.0999C38.2002 34.2999 38.4002 34.3999 38.7002 34.4999C38.9002 34.7999 39.1002 34.9999 39.4002 35.1999C39.5002 35.2999 39.7002 35.3999 39.8002 35.5999C40.0002 35.7999 40.1002 35.8999 40.3002 36.0999C40.5002 36.1999 40.6002 36.2999 40.7002 36.4999C40.8002 36.6999 40.9002 36.7999 41.0002 36.7999C41.1002 36.7999 41.2002 36.8999 41.3002 36.9999C41.3002 37.0999 41.4002 37.0999 41.4002 37.1999L41.6002 37.3999C41.7002 37.4999 41.9002 37.6999 42.0002 37.7999C42.0002 37.7999 42.1002 37.8999 42.1002 37.9999C42.2002 38.0999 42.3002 38.2999 42.5002 38.3999C42.6002 38.6999 42.8002 38.7999 42.9002 38.7999C43.0002 38.7999 43.0002 38.8999 43.1002 38.8999C43.2002 39.0999 43.3002 39.0999 43.4002 39.1999C43.5002 39.1999 43.6002 39.1999 43.7002 39.1999C43.8002 39.1999 43.9002 39.1999 43.9002 39.1999H44.2002L44.6002 38.4999L44.4002 38.1999C44.3002 38.0999 44.3002 37.9999 44.2002 37.9999C44.1002 37.7999 43.9002 37.6999 43.8002 37.5999C43.7002 37.3999 43.6002 37.2999 43.4002 37.1999L43.3002 37.0999C43.2002 36.9999 43.1002 36.8999 43.0002 36.8999C42.8002 36.5999 42.6002 36.3999 42.4002 36.2999C42.3002 36.2999 42.3002 36.1999 42.2002 36.0999C42.1002 35.9999 42.1002 35.8999 42.0002 35.8999C41.9002 35.7999 41.8002 35.6999 41.7002 35.5999C41.6002 35.4999 41.6002 35.4999 41.5002 35.3999C41.5002 35.3999 41.4002 35.2999 41.4002 35.1999L41.1002 34.8999C40.9002 34.6999 40.7002 34.4999 40.5002 34.2999C40.4002 34.1999 40.3002 34.1999 40.3002 34.0999C40.2002 34.0999 40.2002 34.0999 40.2002 33.9999C40.1002 33.8999 40.0002 33.7999 40.0002 33.7999C39.9002 33.6999 39.9002 33.6999 39.9002 33.6999C39.9002 33.5999 39.8002 33.4999 39.6002 33.3999C39.5002 33.3999 39.4002 33.2999 39.3002 33.1999L39.2002 33.0999L38.9002 32.7999C38.8002 32.6999 38.6002 32.5999 38.5002 32.3999C38.5002 32.2999 38.4002 32.2999 38.3002 32.1999C38.1002 32.0999 37.9002 31.8999 37.7002 31.6999C37.5002 31.4999 37.3002 31.2999 37.1002 31.1999C36.7002 30.7999 36.3002 30.4999 35.9002 30.1999C35.6002 29.9999 35.3002 29.7999 35.0002 29.4999C34.9002 29.3999 34.8002 29.3999 34.8002 29.3999C34.8002 29.3999 34.7002 29.3999 34.7002 29.2999C34.7002 29.0999 34.5002 28.9999 34.3002 28.9999L34.2002 28.8999C33.9002 28.6999 33.7002 28.4999 33.4002 28.2999L32.9002 27.9999C32.8002 27.8999 32.7002 27.8999 32.6002 27.7999C32.5002 27.7999 32.4002 27.6999 32.3002 27.6999C32.2002 27.6999 32.2002 27.5999 32.1002 27.5999C32.1002 27.5999 32.1002 27.4999 32.0002 27.4999C32.0002 27.4999 31.9002 27.3999 31.8002 27.2999C31.7002 27.1999 31.6002 27.1999 31.5002 27.0999C31.4002 26.9999 31.2002 26.8999 31.1002 26.7999C31.0002 26.6999 30.8002 26.5999 30.7002 26.5999C30.6002 26.4999 30.5002 26.4999 30.3002 26.3999C30.1002 26.2999 29.9002 26.1999 29.8002 26.0999L29.7002 25.9999C29.4002 25.8999 29.0002 25.6999 28.6002 25.5999C28.4002 25.5999 28.2002 25.4999 28.1002 25.4999C28.0002 25.4999 27.9002 25.3999 27.8002 25.3999C27.7002 25.3999 27.6002 25.3999 27.5002 25.3999L27.2002 25.4999L27.3002 25.7999C27.3002 25.7999 27.4002 25.8999 27.4002 25.8999Z"/><path fill="#D2AF49" d="M41.3002 39.8999C41.0002 39.7999 40.8002 39.5999 40.7002 39.3999C40.6002 39.2999 40.5002 39.1999 40.4002 39.0999L40.3002 38.9999L40.2002 38.8999C40.2002 38.8999 40.1002 38.9 40.1002 38.8C39.7002 38.4 39.4002 38.0999 39.0002 37.8999C38.9002 37.8999 38.9002 37.7999 38.8002 37.7999L38.5002 37.4999C38.4002 37.3999 38.2002 37.1999 38.0002 37.0999C37.9002 36.9999 37.8002 36.9999 37.8002 36.8999C37.7002 36.7999 37.6002 36.7999 37.5002 36.5999C37.4002 36.4999 37.4002 36.3999 37.2002 36.2999C37.1002 36.1999 37.0002 36.0999 36.8002 35.9999L36.6002 35.8999C36.5002 35.7999 36.3002 35.6999 36.2002 35.5999C36.2002 35.5999 36.1002 35.5999 36.1002 35.4999C36.0002 35.3999 35.8002 35.2999 35.6002 35.2999C35.6002 35.2999 35.5002 35.2 35.4002 35.2C35.0002 35 34.6002 34.7999 34.0002 34.7999L33.2002 34.7L33.8002 35.3999C33.9002 35.4999 33.9002 35.4999 33.9002 35.5999L34.1002 35.8999C34.3002 36.0999 34.5002 36.2999 34.6002 36.4999C34.7002 36.5999 34.9002 36.7999 35.1002 36.9999H35.2002C35.3002 37.0999 35.4002 37.1 35.4002 37.2C35.5002 37.3 35.6002 37.3999 35.7002 37.3999C35.9002 37.5999 36.1002 37.7999 36.2002 37.8999C36.3002 37.9999 36.4002 37.9999 36.5002 38.0999C36.6002 38.1999 36.7002 38.2 36.7002 38.3C36.8002 38.4 36.9002 38.4999 37.0002 38.5999L37.1002 38.7C37.4002 38.9 37.7002 39.1999 38.0002 39.4999L38.2002 39.5999C38.3002 39.6999 38.5002 39.8999 38.6002 39.9999C38.8002 40.1999 39.1002 40.3999 39.3002 40.5999C39.6002 40.9999 40.0002 41.2 40.5002 41.3H40.6002H40.7002H40.9002L41.3002 40.8L41.2002 40.0999L41.3002 39.8999Z"/><path fill="#D2AF49" d="M38.4998 41.1999L38.3998 41.0999C38.2998 40.9999 38.1998 40.7999 37.9998 40.6999C37.9998 40.6999 37.9998 40.6999 37.9998 40.5999C37.8998 40.4999 37.8998 40.3999 37.7998 40.3999C37.6998 40.2999 37.4998 40.1999 37.3998 40.0999L37.0998 39.8999C37.0998 39.8999 37.0998 39.8999 36.9998 39.7999V39.6999C36.7998 39.4999 36.5998 39.1999 36.2998 39.0999C36.2998 39.0999 36.2998 38.9999 36.1998 38.9999C36.1998 38.9999 36.0998 38.8999 35.9998 38.8999L35.8998 38.7999C35.6998 38.6999 35.4998 38.5999 35.2998 38.4999C35.0998 38.3999 34.8998 38.2999 34.6998 38.2999L34.4998 38.1999L34.2998 37.8999L34.0998 38.3999L33.7998 39.0999L34.1998 38.8999L34.2998 38.9999C34.4998 39.2999 34.6998 39.5999 34.8998 39.8999C35.0998 40.0999 35.2998 40.2999 35.4998 40.4999C35.5998 40.5999 35.6998 40.6999 35.8998 40.6999C35.9998 40.8999 36.0998 40.9999 36.1998 41.0999L36.2998 41.1999C36.3998 41.2999 36.4998 41.3999 36.5998 41.3999C36.6998 41.4999 36.7998 41.5999 36.7998 41.5999C36.7998 41.6999 36.8998 41.7999 37.0998 41.7999C37.0998 41.7999 37.0998 41.8999 37.1998 41.8999C37.2998 42.0999 37.4998 42.1999 37.6998 42.2999C37.6998 42.2999 37.6998 42.2999 37.6998 42.3999L37.8998 42.4999H38.0998C38.3998 42.3999 38.7998 42.2999 38.8998 41.8999V41.6999L38.7998 41.5999C38.6998 41.4999 38.5998 41.2999 38.4998 41.1999Z"/></svg>