<svg xmlns="http://www.w3.org/2000/svg" width="46" height="53" fill="none" viewBox="0 0 46 53"><path fill="#D0AD49" d="M6.56501 45.8669C6.55244 45.6436 6.40339 45.3833 6.21724 45.2594C5.88205 44.8751 5.58396 44.3544 5.42233 43.8708C5.36007 43.5608 5.12424 43.3501 5.06198 43.0401C5.0123 42.9533 4.96262 42.8665 4.91294 42.7797C4.86325 42.6929 4.76389 42.5193 4.71421 42.4326C4.72616 41.8496 4.34128 41.3786 4.35323 40.7956C4.34065 40.5723 4.32807 40.3491 4.09224 40.1384C4.04256 40.0516 3.99288 39.9648 4.07967 39.9151C4.05451 39.4686 4.02935 39.0221 4.0042 38.5756C4.07841 38.3027 3.7929 38.0052 3.95389 37.6826C3.95326 36.8764 3.99036 36.7399 4.21298 35.9211L4.25008 35.7847C4.23751 35.5614 4.31171 35.2885 4.29914 35.0652C4.28656 34.842 4.54692 34.6929 4.53434 34.4697C4.48466 34.3829 4.57144 34.3332 4.65822 34.2835C4.74501 34.2338 4.78212 34.0974 4.78212 34.0974C4.71986 33.7873 5.01732 33.5018 5.1412 33.3157C5.38898 32.9434 5.58708 32.4843 5.97133 32.1491C6.26879 31.8636 6.60335 31.4416 6.90081 31.1561C7.19827 30.8706 7.49573 30.5851 7.84287 30.3863C7.92966 30.3366 8.10323 30.2373 8.14033 30.1008C8.22712 30.0511 8.3139 30.0015 8.40069 29.9518C8.48748 29.9021 8.57426 29.8524 8.66105 29.8027C8.90883 29.4304 9.30565 29.3185 9.61569 29.2562C9.70247 29.2065 9.83894 29.2437 9.87604 29.1072C9.96283 29.0575 9.99993 28.921 10.1364 28.9581C10.2729 28.9952 10.4464 28.8959 10.5332 28.8462C10.6571 28.66 10.7936 28.6972 10.93 28.7343C11.2898 28.7588 11.6369 28.5601 11.8973 28.411C11.9841 28.3613 12.0212 28.2249 12.1576 28.262C12.5173 28.2865 12.6412 28.1003 12.9016 27.9513C13.2487 27.7526 13.5091 27.6035 13.8562 27.4048C14.1663 27.3425 14.4266 27.1935 14.687 27.0444C15.0838 26.9325 15.4435 26.957 15.7536 26.8948C15.8403 26.8451 15.9768 26.8822 16.0636 26.8325C16.2868 26.8199 16.4604 26.7206 16.5598 26.8941C16.5598 26.8941 16.6095 26.9809 16.6963 26.9312C17.1924 26.9929 17.3786 27.1168 17.7012 27.2778C17.7509 27.3645 17.8874 27.4016 17.8874 27.4016C18.1477 27.2526 18.3339 27.3765 18.4829 27.6368C18.5326 27.7236 18.6691 27.7607 18.7187 27.8475C18.9049 27.9714 19.091 28.0953 19.2772 28.2192C19.4633 28.3431 19.5627 28.5166 19.7488 28.6405L19.7985 28.7273C19.9973 29.0745 20.3696 29.3222 20.6054 29.5329C20.8909 29.8304 21.0399 30.0907 21.3255 30.3882C21.4248 30.5618 21.5613 30.5989 21.6606 30.7724C21.9091 31.2064 22.2442 31.5906 22.4059 32.0742C22.4556 32.161 22.5052 32.2478 22.5052 32.2478C23.014 32.5327 23.0021 33.1157 23.2505 33.5496C23.3498 33.7231 23.3253 34.0829 23.5611 34.2935C23.6108 34.3803 23.524 34.43 23.5737 34.5168C23.5366 34.6533 23.5492 34.8765 23.5989 34.9633C23.6611 35.2733 23.8599 35.6205 23.7485 36.0299C24.0095 36.6871 23.6875 37.3323 23.5888 37.965C23.4775 38.3744 23.4159 38.8705 23.441 39.317C23.5033 39.6271 23.2555 39.9994 23.1813 40.2723C23.1568 40.632 23.219 40.9421 23.0084 41.1779C22.9713 41.3144 23.0209 41.4012 22.9342 41.4508C22.9096 41.8106 22.8851 42.1703 22.6744 42.4061C22.5505 42.5923 22.4763 42.8652 22.4889 43.0884C22.5015 43.3117 22.5141 43.535 22.3405 43.6343C22.2537 43.684 22.3034 43.7708 22.2663 43.9073C22.2914 44.3538 22.1304 44.6764 21.8827 45.0487C21.7217 45.3713 21.5607 45.6939 21.2632 45.9794C21.1393 46.1656 21.0154 46.3517 20.8916 46.5379C20.8544 46.6743 20.6809 46.7737 20.5941 46.8234C20.247 47.0221 19.9866 47.1711 19.7759 47.407C19.6891 47.4567 19.6891 47.4567 19.6024 47.5063C19.2055 47.6183 18.9452 47.7673 18.598 47.9661C18.288 48.0283 18.0276 48.1774 17.7673 48.3264C17.5069 48.4755 17.1969 48.5377 16.8868 48.6C16.8001 48.6497 16.6636 48.6125 16.5271 48.5754C16.3907 48.5383 16.3039 48.588 16.2171 48.6377C15.7832 48.8861 15.2499 48.961 14.6669 48.949C14.5304 48.9119 14.3569 49.0113 14.2701 49.0609C14.0468 49.0735 13.8732 49.1729 13.7368 49.1358C13.3771 49.1113 12.8809 49.0496 12.5212 49.0251C11.9382 49.0132 11.4791 48.8151 10.9829 48.7534C10.5735 48.6421 10.1641 48.5308 9.79181 48.283C9.74212 48.1962 9.60566 48.1591 9.60566 48.1591C9.15915 48.1843 9.01011 47.9239 8.77428 47.7133C8.58813 47.5894 8.53844 47.5026 8.31519 47.5152C8.31519 47.5152 8.22841 47.5648 8.17872 47.4781C7.99258 47.3542 7.85611 47.3171 7.66996 47.1932C7.42155 46.7593 6.83858 46.7473 6.62728 46.1769C6.93731 46.1147 6.93731 46.1146 6.56501 45.8669ZM21.7619 33.3647C21.4764 33.0672 21.2406 32.8566 21.1783 32.5465C21.1286 32.4597 21.0789 32.3729 21.0789 32.3729C20.8928 32.2491 20.7563 32.212 20.7437 31.9887C20.3218 31.6541 20.0734 31.2202 19.7382 30.836C19.5023 30.6253 19.2168 30.3278 19.0678 30.0675C18.9187 29.8071 18.5961 29.6461 18.41 29.5222C18.2238 29.3983 17.9509 29.3241 17.715 29.1135C17.4792 28.9028 17.2063 28.8286 16.9333 28.7544C16.4743 28.5563 16.0649 28.445 15.5813 28.6066C15.4077 28.7059 15.1347 28.6317 14.9612 28.7311C14.7876 28.8305 14.5272 28.9795 14.3537 29.0789C14.0933 29.2279 13.833 29.377 13.5726 29.526C13.1387 29.7744 12.7419 29.8864 12.3079 30.1348C11.9608 30.3335 11.4772 30.4951 11.0307 30.5203C10.7206 30.5825 10.4106 30.6448 10.2867 30.831C10.1131 30.9303 9.98924 31.1165 9.76599 31.129C9.02203 31.4397 8.47679 32.0975 7.91897 32.5321L7.83218 32.5818C7.49762 33.0037 7.16306 33.4257 6.79139 33.9842C6.54361 34.3565 6.15937 34.6917 6.2342 35.2249C6.28389 35.3117 6.1971 35.3614 6.1971 35.3614C6.13547 35.8576 5.88769 36.2299 5.87575 36.8129C5.92543 36.8997 5.83864 36.9493 5.83864 36.9493C5.76443 37.2223 5.65312 37.6317 5.71538 37.9417C5.74053 38.3882 5.81537 38.9215 5.84053 39.368C5.80343 39.5045 5.85311 39.5913 5.90279 39.6781C6.00216 39.8516 6.01474 40.0749 6.02731 40.2981C6.077 40.3849 6.03989 40.5214 6.03989 40.5214C6.18893 40.7817 6.16441 41.1415 6.27635 41.5383C6.28893 41.7615 6.35119 42.0716 6.53734 42.1955C6.58702 42.2823 6.6367 42.369 6.6367 42.369C6.78575 42.6294 6.93479 42.8898 6.94737 43.113C7.00963 43.423 7.24546 43.6337 7.3945 43.8941C7.54355 44.1544 7.6926 44.4148 7.87875 44.5387C7.97811 44.7122 8.16426 44.8361 8.3133 45.0965C8.36299 45.1833 8.41266 45.2701 8.54913 45.3072C8.73528 45.4311 8.83464 45.6046 8.97111 45.6417C9.20694 45.8524 9.39309 45.9763 9.71571 46.1373C9.85218 46.1744 9.98865 46.2115 10.088 46.3851C10.7332 46.707 11.2917 47.0787 12.0608 47.2146C12.1973 47.2517 12.247 47.3384 12.3337 47.2888C13.0658 47.5611 13.872 47.5604 14.765 47.5101C15.7448 47.4101 16.7617 47.1737 17.7786 46.9372L17.8654 46.8875C18.1628 46.602 18.5226 46.6265 18.9194 46.5146C19.0062 46.4649 19.093 46.4152 19.1797 46.3656C19.3407 46.0429 19.7376 45.931 19.9979 45.782C20.0847 45.7323 20.2583 45.6329 20.3451 45.5832C20.7664 45.1116 21.1878 44.6399 21.2865 44.0072L21.3236 43.8708C21.5343 43.6349 21.5217 43.4117 21.5959 43.1388C21.6701 42.8658 21.4343 42.6551 21.6449 42.4193C21.7688 42.2332 21.843 41.9602 21.8305 41.737C21.9047 41.464 22.016 41.0546 22.0902 40.7817C22.2386 40.2358 22.3373 39.6032 22.3493 39.0202C22.3367 38.797 22.3612 38.4372 22.4851 38.2511C22.7329 37.8788 22.4845 37.4449 22.7323 37.0726L22.6826 36.9858C22.67 36.7625 22.6945 36.4028 22.682 36.1796C22.6694 35.9563 22.7065 35.8198 22.5574 35.5595C22.4581 35.3859 22.4084 35.2991 22.3958 35.0759C22.5071 34.6665 22.3084 34.3193 22.1097 33.9722C21.7996 34.0344 21.6877 33.6376 21.7619 33.3647Z"/><path fill="#D0AD49" d="M15.4701 44.9172C15.3462 45.1034 15.0362 45.1656 15.0984 45.4757C14.8507 45.848 14.6029 46.2203 14.1564 46.2454C13.6357 46.5435 13.1766 46.3454 12.7672 46.2341C12.6307 46.197 12.4446 46.0731 12.271 46.1725C12.1842 46.2221 12.0477 46.185 11.9113 46.1479C11.3157 45.9127 10.5837 45.6404 10.112 45.2191C9.73974 44.9713 9.23097 44.6864 8.98257 44.2525C8.57316 44.1412 8.548 43.6947 8.31217 43.484C8.07634 43.2733 7.87762 42.9262 7.81536 42.6162C7.76567 42.5294 7.71599 42.4426 7.71599 42.4426C7.48016 42.2319 7.46759 42.0086 7.54179 41.7357C7.616 41.4628 7.51664 41.2892 7.59085 41.0163C7.57827 40.793 7.70216 40.6069 7.82605 40.4207C7.91283 40.371 7.94993 40.2346 7.98704 40.0981C8.14803 39.7755 8.44549 39.49 8.79263 39.2913C8.87941 39.2416 8.9662 39.1919 9.00331 39.0554C9.09009 39.0057 9.04041 38.919 9.12719 38.8693C9.5737 38.8441 9.82148 38.4718 10.268 38.4467C10.3548 38.397 10.4912 38.4341 10.5283 38.2976C10.7887 38.1486 10.9623 38.0492 11.322 38.0737C11.5452 38.0612 11.8553 37.9989 12.1653 37.9366C12.4257 37.7876 12.6986 37.8618 12.9715 37.936C12.9715 37.936 13.0212 38.0228 13.0709 38.1096C13.4061 38.4938 13.518 38.8906 13.6797 39.3743C13.7294 39.461 13.7294 39.461 13.779 39.5478C14.2633 40.1924 14.3507 40.949 14.6985 41.5565C14.7481 41.6433 14.711 41.7797 14.7978 41.73C15.1827 42.2011 15.2575 42.7344 15.3324 43.2677C15.345 43.4909 15.494 43.7513 15.5934 43.9248C15.3953 44.3839 15.4078 44.6072 15.4701 44.9172ZM11.9804 39.4252C11.7075 39.351 11.4842 39.3636 11.1742 39.4258C10.9138 39.5749 10.6535 39.7239 10.3435 39.7862C9.99631 39.9849 9.56238 40.2333 9.21524 40.432C8.95489 40.5811 8.88068 40.854 8.80647 41.127C8.76937 41.2634 8.78195 41.4867 8.74484 41.6231C8.8442 41.7967 9.03035 41.9206 9.04293 42.1439C9.05551 42.3671 9.15487 42.5407 9.30392 42.801C9.40328 42.9746 9.7259 43.1356 9.91205 43.2595C10.1479 43.4702 10.4705 43.6312 10.756 43.9286C10.9918 44.1393 11.178 44.2632 11.4509 44.3374C11.8603 44.4487 12.1829 44.6097 12.5552 44.8575C12.7414 44.9814 13.0143 45.0556 13.3244 44.9933C13.4111 44.9436 13.5476 44.9807 13.6344 44.931C13.7709 44.9682 13.7709 44.9682 13.9073 45.0053C14.2048 44.7197 14.3658 44.3971 14.4771 43.9877C13.9683 43.7028 13.9306 43.0331 13.5954 42.6488C13.4218 42.7482 13.2483 42.8476 13.0747 42.9469C12.9011 43.0463 12.7772 43.2324 12.6533 43.4186C12.3433 43.4809 12.0333 43.5431 11.7603 43.4689C11.6735 43.5186 11.5371 43.4815 11.4874 43.3947C11.2516 43.184 11.0157 42.9733 10.8667 42.713C10.7176 42.4526 10.7422 42.0929 10.6799 41.7829C10.6302 41.6961 10.717 41.6464 10.717 41.6464C10.7541 41.5099 10.878 41.3238 10.9151 41.1873C10.9522 41.0509 11.1258 40.9515 11.2126 40.9018C11.6094 40.7899 11.8697 40.6408 12.2792 40.7521C12.4156 40.7892 12.5024 40.7396 12.6389 40.7767C12.5766 40.4666 12.564 40.2434 12.415 39.983C12.2288 39.8591 12.1295 39.6856 11.9804 39.4252ZM12.1685 41.9678C12.1685 41.9678 12.1188 41.881 12.032 41.9307C11.9452 41.9803 11.8584 42.03 11.8213 42.1665L11.871 42.2533L12.0075 42.2904C12.1314 42.1042 12.1314 42.1042 12.1685 41.9678Z"/><path fill="#D0AD49" d="M20.6124 38.4013C20.625 38.6246 20.7243 38.7982 20.7866 39.1082L20.8363 39.195C20.725 39.6044 20.7872 39.9144 20.8124 40.3609C20.7878 40.7207 20.813 41.1672 20.7388 41.4401C20.6772 41.9363 20.5659 42.3457 20.1816 42.6809C20.008 42.7802 19.8716 42.7431 19.698 42.8425C19.3754 42.6815 19.0528 42.5205 18.8169 42.3098C18.2585 41.9382 17.6629 41.703 17.2284 41.1452C16.7196 40.8603 16.3844 40.476 15.9624 40.1415C15.4908 39.7201 14.9323 39.3484 14.4607 38.9271C14.2745 38.8032 14.1752 38.6296 14.0261 38.3693C13.9267 38.1957 13.7406 38.0718 13.6412 37.8983C13.8022 37.5756 13.74 37.2656 13.8142 36.9927C13.8513 36.8562 13.8884 36.7197 13.9752 36.67C14.2355 36.521 14.3965 36.1984 14.6072 35.9626C14.7311 35.7764 14.8179 35.7267 14.855 35.5903C15.0656 35.3544 15.2763 35.1186 15.487 34.8828C15.7474 34.7337 15.958 34.4979 16.2184 34.3488C16.5655 34.1501 16.8259 34.0011 17.0737 33.6288C17.1975 33.4426 17.3214 33.2565 17.3585 33.12C17.4699 32.7106 17.5566 32.6609 18.0031 32.6358C18.0899 32.5861 18.1396 32.6729 18.2264 32.6232C18.5735 32.4245 18.8962 32.5855 19.0823 32.7093C19.9137 33.1552 20.4476 33.8866 20.7709 34.8538C20.8205 34.9406 20.9199 35.1142 20.8828 35.2507C21.1312 35.6846 21.2928 36.1682 21.318 36.6147C21.3802 36.9247 21.4054 37.3712 21.1576 37.7435C20.9098 38.1158 20.786 38.302 20.6124 38.4013ZM19.2873 41.1187C19.3741 41.0691 19.3741 41.0691 19.3244 40.9823C19.3615 40.8458 19.3986 40.7093 19.349 40.6226C19.3735 40.2628 19.3112 39.9528 19.3358 39.5931C19.3729 39.4566 19.3232 39.3698 19.3603 39.2334C19.4345 38.9604 19.5955 38.6378 19.62 38.2781C19.6571 38.1416 19.781 37.9555 19.7684 37.7322C19.8672 37.0996 19.6559 36.5292 19.4445 35.9588C19.159 35.6613 19.0968 35.3513 18.898 35.0041C18.7861 34.6073 18.4138 34.3595 18.0912 34.1985C17.9673 34.3847 17.9302 34.5212 17.7566 34.6205C17.5831 34.7199 17.546 34.8563 17.5089 34.9928C17.4221 35.0425 17.4221 35.0425 17.3353 35.0922C16.9385 35.2041 16.7404 35.6632 16.2939 35.6884L16.2071 35.738C16.1329 36.011 15.8725 36.16 15.7486 36.3462C15.5379 36.582 15.3273 36.8178 15.1537 36.9172C14.8933 37.0662 14.7694 37.2524 14.6952 37.5253C14.8814 37.6492 15.0304 37.9096 15.2166 38.0335C15.5392 38.1944 15.6511 38.5913 16.0605 38.7026C16.2593 39.0497 16.6687 39.161 16.9045 39.3717C16.9542 39.4585 17.0907 39.4956 17.1403 39.5824C17.3391 39.9295 17.6617 40.0905 17.8975 40.3012C18.2201 40.4622 18.5056 40.7597 18.8283 40.9206C19.0641 41.1313 19.2006 41.1684 19.2873 41.1187Z"/><path fill="#D0AD49" d="M7.04196 36.8368C6.9797 36.5267 6.91744 36.2167 6.99165 35.9437C6.96649 35.4972 7.16459 35.0382 7.36268 34.5791C7.52368 34.2565 7.68467 33.9338 7.98213 33.6483C8.06891 33.5986 8.01923 33.5119 8.10601 33.4622C8.1928 33.4125 8.36637 33.3131 8.40348 33.1767C8.86193 32.5685 9.41974 32.134 10.1637 31.8233C10.3373 31.7239 10.5108 31.6246 10.7341 31.612C10.9574 31.5994 11.1806 31.5868 11.3045 31.4007C11.3913 31.351 11.4781 31.3013 11.6516 31.202C11.8252 31.1026 12.0856 30.9536 12.3088 30.941C12.5321 30.9284 12.7553 30.9158 12.9289 30.8165C13.2886 30.841 13.4993 30.6052 13.8093 30.5429C14.1194 30.4806 14.5162 30.3687 14.9256 30.48C15.0621 30.5171 15.1117 30.6039 15.2482 30.641C15.3847 30.6781 15.484 30.8517 15.5337 30.9385C15.6457 31.3353 15.4847 31.6579 15.3237 31.9805C15.0017 32.6258 14.7294 33.3578 14.3577 33.9162C14.1099 34.2885 13.9986 34.6979 13.7012 34.9834C13.6766 35.3432 13.4163 35.4922 13.3421 35.7651C13.1811 36.0877 13.0201 36.4104 12.8094 36.6462C12.7226 36.6959 12.7226 36.6959 12.6359 36.7456C12.3258 36.8078 12.0284 37.0933 11.7183 37.1556C11.5818 37.1185 11.4083 37.2178 11.2718 37.1807C10.9989 37.1065 10.7756 37.1191 10.5153 37.2682C10.3417 37.3675 10.0688 37.2933 9.89519 37.3927C9.67194 37.4053 9.58515 37.4549 9.41158 37.5543C8.89086 37.8524 8.29532 37.6172 7.83624 37.4191C7.83624 37.4191 7.78655 37.3323 7.73687 37.2455C7.37715 37.221 7.27779 37.0474 7.04196 36.8368ZM11.2932 32.7899C10.946 32.9886 10.636 33.0509 10.3756 33.1999C10.1153 33.349 9.85493 33.498 9.64425 33.7339C9.55747 33.7835 9.52037 33.92 9.52037 33.92C9.3468 34.0194 9.22291 34.2055 9.09902 34.3917C8.97513 34.5778 8.71478 34.7269 8.72736 34.9501C8.72736 34.9501 8.64056 34.9998 8.60346 35.1363C8.44247 35.4589 8.31858 35.645 8.15759 35.9676C8.15759 35.9676 8.12048 36.1041 8.17016 36.1909C8.23242 36.5009 8.36889 36.538 8.72861 36.5626C8.76572 36.4261 8.8525 36.3764 8.88961 36.2399C8.90156 35.657 9.19901 35.3715 9.63294 35.123C10.1537 34.825 10.7863 34.9237 11.0473 35.5809C11.1467 35.7544 11.1592 35.9777 11.2586 36.1513C11.4448 36.2752 11.5315 36.2255 11.6554 36.0393C11.7793 35.8532 11.99 35.6173 12.1139 35.4312C12.1881 35.1583 12.3491 34.8356 12.473 34.6495C12.5969 34.4633 12.634 34.3269 12.795 34.0043C12.1497 33.6823 11.641 33.3974 11.2932 32.7899ZM13.6244 32.0315C13.0415 32.0195 12.6572 32.3547 12.4591 32.8138C12.4717 33.037 12.5711 33.2106 12.844 33.2848C13.0302 33.4087 13.2534 33.3961 13.3773 33.21C13.4018 32.8503 13.4018 32.8503 13.5257 32.6641C13.5628 32.5276 13.7364 32.4283 13.7735 32.2918C13.7238 32.205 13.6741 32.1182 13.6244 32.0315ZM11.0599 35.8041C10.5385 35.296 10.4021 35.2589 10.2662 36.028C10.4027 36.0651 10.5392 36.1022 10.6756 36.1393C10.8121 36.1764 10.936 35.9903 11.0599 35.8041Z"/><path fill="#D0AD49" d="M16.8282 36.4198C17.0017 36.3204 17.1753 36.221 17.2992 36.0349C17.5595 35.8859 17.8696 35.8236 18.2293 35.8481C18.589 35.8726 18.7752 35.9965 19.0607 36.294C19.2965 36.5047 19.4456 36.765 19.3714 37.038C19.3839 37.2612 19.3468 37.3977 19.3097 37.5341C19.2355 37.8071 19.2481 38.0303 19.0374 38.2662C18.9506 38.3158 18.9506 38.3158 18.9135 38.4523C18.8393 38.7252 18.6658 38.8246 18.4922 38.924C18.1821 38.9862 17.9218 39.1353 17.5992 38.9743C17.4627 38.9372 17.3262 38.9001 17.0533 38.8259C16.9168 38.7888 16.9414 38.429 16.6684 38.3548C16.4823 38.231 16.4697 38.0077 16.4571 37.7844C16.3949 37.4744 16.4194 37.1147 16.5804 36.7921C16.754 36.6927 16.7911 36.5562 16.8282 36.4198ZM18.1193 37.87C18.4664 37.6712 18.7764 37.609 18.8877 37.1996C18.7884 37.026 18.7387 36.9392 18.5155 36.9518C18.2922 36.9644 18.1186 37.0637 17.9451 37.1631C17.6847 37.3122 17.7344 37.3989 17.9828 37.8329C17.9828 37.8329 18.0696 37.7832 18.1193 37.87Z"/><path fill="#D0AD49" d="M27.1056 15.3259C27.1553 15.4126 27.205 15.4994 27.205 15.4994C27.2176 15.7227 27.2672 15.8095 27.4534 15.9334C27.6024 16.1937 27.8879 16.4912 28.037 16.7515C28.186 17.0119 28.4716 17.3093 28.7074 17.52C28.7074 17.52 28.7571 17.6068 28.8067 17.6936L28.8564 17.7804L29.1294 17.8546C29.4149 18.152 29.7004 18.4495 30.0727 18.6973L30.1224 18.7841C30.2217 18.9576 30.4079 19.0815 30.594 19.2054C30.7305 19.2425 30.7802 19.3293 30.9166 19.3664C31.016 19.54 31.2889 19.6142 31.5619 19.6884L31.6983 19.7255C31.8348 19.7626 31.9713 19.7997 31.9713 19.7997C32.021 19.8865 32.1574 19.9236 32.2939 19.9607C32.3807 19.911 32.5171 19.9481 32.6039 19.8984C32.8769 19.9727 33.2366 19.9972 33.5466 19.9349C33.6831 19.972 33.7699 19.9223 33.9063 19.9594C34.0428 19.9965 34.2661 19.984 34.4893 19.9714C34.5761 19.9217 34.7126 19.9588 34.7994 19.9091L34.9358 19.9462C34.9358 19.9462 35.0226 19.8966 35.1094 19.8469L35.1962 19.7972C35.283 19.7475 35.5433 19.5985 35.6301 19.5488C35.7666 19.5859 35.9401 19.4865 36.0766 19.5236C36.1634 19.4739 36.3867 19.4614 36.5231 19.4985C36.6596 19.5356 36.7464 19.4859 36.9199 19.3865C37.0067 19.3368 37.0067 19.3368 37.0935 19.2872C37.23 19.3243 37.4036 19.2249 37.5771 19.1255C37.5771 19.1255 37.6639 19.0759 37.7507 19.0262C37.8375 18.9765 37.8375 18.9765 37.9243 18.9268C38.0111 18.8771 38.2343 18.8646 38.2714 18.7281C38.3582 18.6784 38.445 18.6287 38.5318 18.579C38.6185 18.5294 38.6185 18.5294 38.7053 18.4797C38.8789 18.3803 39.0525 18.2809 39.1267 18.008C39.1638 17.8715 39.1638 17.8715 39.2506 17.8219C39.5109 17.6728 39.8581 17.4741 40.0191 17.1515L40.1059 17.1018C40.4033 16.8163 40.614 16.5805 40.775 16.2578L40.8618 16.2082C40.9486 16.1585 40.9486 16.1585 40.9857 16.022C41.1095 15.8359 41.2831 15.7365 41.3573 15.4636C41.3944 15.3271 41.4812 15.2774 41.5183 15.1409C41.5554 15.0045 41.729 14.9051 41.7164 14.6819L41.7535 14.5454C41.9642 14.3096 42.0384 14.0366 42.0755 13.9002C42.1126 13.7637 42.1126 13.7637 42.1497 13.6272C42.3107 13.3046 42.3352 12.9449 42.3226 12.7216C42.3472 12.3619 42.3717 12.0022 42.4333 11.506C42.4704 11.3695 42.4579 11.1463 42.2717 11.0224L42.3088 10.8859C42.2962 10.6627 42.3333 10.5262 42.234 10.3526C42.2214 10.1294 42.2585 9.99292 42.1591 9.81935C42.1095 9.73256 42.0598 9.64578 42.0598 9.64578C42.0101 9.55899 41.9604 9.47221 41.9604 9.47221C41.7988 8.9886 41.6372 8.50499 41.3888 8.07106C41.2894 7.89749 41.2397 7.8107 41.1403 7.63713C40.9913 7.37678 40.8423 7.11642 40.5567 6.81896C40.3083 6.38503 40.0228 6.08757 39.6505 5.83979C39.4644 5.71591 39.2285 5.50523 39.1292 5.33166C39.0795 5.24487 38.943 5.20777 38.8562 5.25745C38.8562 5.25745 38.7695 5.30713 38.7198 5.22035C38.5707 4.95999 38.3846 4.8361 38.1984 4.71221L38.062 4.67511C37.8261 4.46443 37.5532 4.39023 37.2803 4.31602C37.2803 4.31602 37.1438 4.27891 37.0941 4.19213C37.0444 4.10534 36.908 4.06824 36.7715 4.03114C36.635 3.99403 36.635 3.99403 36.4986 3.95693C36.3621 3.91982 36.2753 3.96951 36.2256 3.88272C36.0395 3.75884 35.8533 3.63495 35.6301 3.64752C35.5433 3.6972 35.4936 3.61042 35.3571 3.57332C35.171 3.44943 34.9477 3.462 34.6377 3.52426C34.6377 3.52426 34.5509 3.57395 34.5012 3.48716C34.1786 3.32617 33.9554 3.33874 33.6824 3.26454C33.546 3.22743 33.4592 3.27712 33.3227 3.24001C33.1862 3.20291 32.963 3.21549 32.8762 3.26517C32.7397 3.22806 32.5662 3.32743 32.4297 3.29032C32.4297 3.29032 32.4297 3.29032 32.2932 3.25322C31.9335 3.22869 31.5367 3.34064 31.2267 3.40289L31.0034 3.41547C30.9166 3.46516 30.9166 3.46516 30.8298 3.51484C30.743 3.56452 30.6563 3.6142 30.5695 3.66388C30.3959 3.76325 30.3959 3.76325 30.3091 3.81293C30.1727 3.77582 29.9991 3.87519 29.9123 3.92487C29.8255 3.97455 29.8255 3.97455 29.6519 4.07391C29.5651 4.1236 29.4784 4.17328 29.4784 4.17328C29.4784 4.17328 29.4784 4.17328 29.3916 4.22296C29.218 4.32232 29.1809 4.45879 29.0941 4.50847C29.0073 4.55816 29.0073 4.55815 28.9702 4.69462C28.747 4.7072 28.6231 4.89335 28.4495 4.99271C28.3627 5.04239 28.3627 5.04239 28.2759 5.09208C28.1892 5.14176 28.1892 5.14176 28.1892 5.14176C27.842 5.34048 27.681 5.6631 27.4704 5.89893C27.3465 6.08508 27.3094 6.22155 27.1358 6.32091C27.049 6.37059 27.0119 6.50706 27.0616 6.59385C27.0616 6.59385 27.0616 6.59384 27.0245 6.73031C26.9377 6.77999 26.9006 6.91646 26.8138 6.96614C26.8138 6.96614 26.727 7.01583 26.7767 7.10261C26.7767 7.10261 26.6899 7.15229 26.7396 7.23908C26.5786 7.56169 26.5044 7.83463 26.3931 8.24403L26.356 8.3805C26.2321 8.56665 26.195 8.70311 26.2447 8.7899L26.2943 8.87668C26.1705 9.06283 26.1334 9.1993 26.0592 9.47224L26.022 9.6087C25.9849 9.74517 25.9975 9.96842 26.0969 10.142C25.8862 10.3778 26.0353 10.6382 26.0849 10.725C26.0849 10.725 26.0849 10.725 26.0478 10.8614C25.9239 11.0476 25.9365 11.2708 26.0359 11.4444C26.0981 11.7544 26.2101 12.1513 26.1856 12.511C26.2352 12.5978 26.1981 12.7342 26.2478 12.821L26.2604 13.0443C26.3101 13.1311 26.3598 13.2179 26.4094 13.3046C26.4591 13.3914 26.4591 13.3914 26.4591 13.3914C26.4717 13.6147 26.5214 13.7015 26.6207 13.875C26.6704 13.9618 26.7201 14.0486 26.683 14.1851C26.6459 14.3215 26.6956 14.4083 26.7824 14.3586L26.8321 14.4454C26.795 14.5819 26.8943 14.7555 26.944 14.8423C26.9937 14.929 26.9937 14.929 27.0434 15.0158C26.8698 15.1152 27.0559 15.2391 27.1056 15.3259ZM28.6061 14.9278C28.5564 14.841 28.5068 14.7542 28.4571 14.6674C28.4074 14.5806 28.308 14.4071 28.2584 14.3203C28.1093 14.0599 27.9603 13.7996 27.898 13.4895C27.898 13.4895 27.9351 13.3531 27.7986 13.316C27.749 13.2292 27.749 13.2292 27.6496 13.0556C27.5999 12.9688 27.637 12.8323 27.5873 12.7456C27.488 12.572 27.4754 12.3487 27.4257 12.2619C27.4628 12.1255 27.3635 11.9519 27.4006 11.8154C27.388 11.5922 27.3383 11.5054 27.3754 11.3689C27.4125 11.2325 27.3131 11.0589 27.2635 10.9721L27.2138 10.8853C27.1641 10.7985 27.1641 10.7985 27.2509 10.7489C27.3377 10.6992 27.3748 10.5627 27.3251 10.4759C27.2628 10.1659 27.3867 9.97974 27.4112 9.62002C27.4855 9.34709 27.5226 9.21062 27.51 8.98737C27.4603 8.90058 27.5471 8.8509 27.5842 8.71443L27.6213 8.57797C27.6213 8.57797 27.6213 8.57796 27.7081 8.52828C27.7949 8.4786 27.832 8.34213 27.7823 8.25535C27.8194 8.11888 27.8565 7.98241 27.9804 7.79627L28.0672 7.74658C28.1043 7.61012 28.2282 7.42397 28.2653 7.2875L28.3891 7.10135C28.4759 7.05167 28.4263 6.96488 28.513 6.9152C28.5998 6.86552 28.7237 6.67937 28.8105 6.62969C28.9344 6.44354 29.108 6.34418 29.3186 6.10835C29.4054 6.05866 29.4922 6.00898 29.5293 5.87251C29.6161 5.82283 29.6532 5.68637 29.7897 5.72347C29.9261 5.76057 29.9632 5.6241 30.05 5.57442C30.0871 5.43795 30.1739 5.38827 30.3972 5.3757C30.4839 5.32601 30.4839 5.32601 30.5707 5.27633L30.6575 5.22665C30.7443 5.17697 30.7443 5.17697 30.8311 5.12729C30.9676 5.16439 31.0543 5.11471 31.2279 5.01535C31.3147 4.96567 31.4015 4.91598 31.4883 4.8663L31.5751 4.81662C31.6618 4.76694 31.7983 4.80404 31.8851 4.75436C32.0216 4.79146 32.1083 4.74178 32.1951 4.6921C32.2819 4.64242 32.3687 4.59274 32.4184 4.67952C32.5052 4.62984 32.592 4.58016 32.7284 4.61726L32.8152 4.56758C33.0014 4.69147 33.2246 4.67889 33.4479 4.66631L33.5347 4.61663L33.6711 4.65373C33.8076 4.69084 33.9441 4.72794 34.0308 4.67826C34.1176 4.62858 34.1673 4.71536 34.1673 4.71536C34.217 4.80215 34.3535 4.83925 34.4402 4.78957C34.5767 4.82668 34.7132 4.86378 34.8496 4.90088C35.1226 4.97509 35.259 5.01219 35.532 5.0864C35.6684 5.1235 35.9414 5.19771 36.1275 5.3216L36.1772 5.40839L36.3137 5.44549C36.3634 5.53228 36.4501 5.4826 36.4998 5.56938C36.6363 5.60649 36.8224 5.73037 36.8721 5.81716C37.0583 5.94105 37.108 6.02783 37.2444 6.06494C37.3809 6.10204 37.4803 6.27561 37.6167 6.31272C37.6167 6.31272 37.6664 6.3995 37.7532 6.34982C37.8029 6.4366 37.8897 6.38692 37.8526 6.52339C37.9022 6.61018 37.9519 6.69696 38.0387 6.64728C38.0387 6.64728 38.0387 6.64728 38.0884 6.73407C38.2374 6.99442 38.4236 7.11831 38.6097 7.2422C38.6594 7.32899 38.7959 7.36609 38.8456 7.45288C38.8952 7.53966 38.9449 7.62645 39.0443 7.80002L39.094 7.8868C39.1436 7.97359 39.1933 8.06037 39.243 8.14716C39.3424 8.32073 39.4417 8.4943 39.5411 8.66787C39.8266 8.96533 39.9386 9.36216 40.0008 9.67219L40.0505 9.75898C40.1128 10.069 40.175 10.3791 40.3737 10.7262C40.3737 10.7262 40.3863 10.9495 40.436 11.0362C40.3989 11.1727 40.4983 11.3463 40.4612 11.4827C40.4737 11.706 40.4863 11.9292 40.4121 12.2022L40.375 12.3386C40.4744 12.5122 40.4373 12.6487 40.2763 12.9713C40.2392 13.1078 40.2888 13.1946 40.2021 13.2442C40.2517 13.331 40.165 13.3807 40.2146 13.4675C40.0908 13.6536 39.8801 13.8895 39.9423 14.1995C39.7688 14.2989 39.6946 14.5718 39.5707 14.758C39.5336 14.8944 39.4468 14.9441 39.36 14.9938L39.2732 15.0435C39.1864 15.0931 39.0625 15.2793 39.0751 15.5026L38.9512 15.6887C38.8273 15.8749 38.6538 15.9742 38.5299 16.1604C38.3563 16.2597 38.3192 16.3962 38.1953 16.5823C38.0714 16.7685 37.8111 16.9175 37.6872 17.1037L37.6004 17.1534C37.5136 17.203 37.4268 17.2527 37.3029 17.4389C37.2161 17.4886 37.1294 17.5382 37.0426 17.5879C36.7822 17.737 36.5715 17.9728 36.2615 18.0351C36.0879 18.1344 36.0011 18.1841 35.8276 18.2835C35.654 18.3828 35.5672 18.4325 35.344 18.4451C34.8604 18.6067 34.29 18.818 33.6202 18.8558L33.4837 18.8187C33.3473 18.7815 33.124 18.7941 33.0372 18.8438C32.8014 18.6331 32.4914 18.6954 32.2681 18.708C32.1813 18.7577 32.1316 18.6709 31.9952 18.6338L31.8587 18.5967C31.7222 18.5596 31.5361 18.4357 31.3996 18.3986C31.2135 18.2747 31.077 18.2376 30.8909 18.1137C30.8909 18.1137 30.7544 18.0766 30.7047 17.9898C30.655 17.903 30.655 17.903 30.5186 17.8659C30.2827 17.6552 30.0469 17.4446 29.7614 17.1471L29.7117 17.0603C29.5627 16.7999 29.3765 16.6761 29.1407 16.4654L28.6068 15.734C28.5571 15.6472 28.5074 15.5604 28.3709 15.5233C28.3709 15.5233 28.3709 15.5233 28.3212 15.4365L28.2716 15.3498C28.7055 15.1013 28.6558 15.0146 28.6061 14.9278Z"/><path fill="#D0AD49" d="M38.2557 14.4737C38.4292 14.3744 38.4292 14.3744 38.516 14.3247L38.5531 14.1882C38.677 14.0021 38.8877 13.7662 39.0116 13.5801C39.0984 13.5304 39.0487 13.4436 39.0858 13.3071C39.0858 13.3071 39.0858 13.3072 39.1229 13.1707L39.16 13.0342C39.1971 12.8977 39.1971 12.8977 39.2342 12.7613C39.1845 12.6745 39.2713 12.6248 39.2216 12.538C39.1719 12.4512 39.2587 12.4016 39.2587 12.4016C39.2958 12.2651 39.1965 12.0915 39.2336 11.9551L39.1839 11.8683C39.1342 11.7815 39.1216 11.5582 39.0719 11.4714C38.9726 11.2979 38.96 11.0746 38.9103 10.9878C38.9103 10.9878 38.8606 10.9011 38.8109 10.8143C38.6248 10.6904 38.6619 10.5539 38.6493 10.3307L38.5996 10.2439C38.55 10.1571 38.5871 10.0206 38.4506 9.98351C38.4009 9.89673 38.3512 9.80994 38.3016 9.72316C38.2519 9.63637 38.1525 9.4628 38.1028 9.37602C38.0531 9.28923 38.0531 9.28923 38.0035 9.20245C37.7922 8.63205 37.457 8.24781 37.0847 8.00003C36.6627 7.66546 36.3526 7.72772 36.0923 7.87677L36.0055 7.92645C35.8319 8.02581 35.7948 8.16228 35.7577 8.29875C35.7703 8.522 35.7829 8.74525 35.969 8.86914C36.0187 8.95593 36.1055 8.90625 36.1552 8.99303C36.1552 8.99303 36.2049 9.07982 36.2916 9.03014C36.2916 9.03014 36.3413 9.11692 36.4281 9.06724L36.5646 9.10434C36.6639 9.27791 36.813 9.53827 36.9124 9.71184C36.962 9.79863 37.0117 9.88541 37.0614 9.9722C37.1111 10.059 37.1608 10.1458 37.2104 10.2326C37.3098 10.4061 37.3224 10.6294 37.5582 10.8401L37.6079 10.9268C37.6576 11.0136 37.6702 11.2369 37.7198 11.3237C37.6827 11.4601 37.8689 11.584 37.9186 11.6708C37.9682 11.7576 37.9682 11.7576 38.0179 11.8444C38.0179 11.8444 38.0676 11.9312 38.1173 12.0179L38.167 12.1047C38.1299 12.2412 38.1425 12.4645 38.2418 12.638C38.2544 12.8613 38.267 13.0845 38.3663 13.2581C38.3789 13.4814 38.4286 13.5681 38.4412 13.7914C38.4412 13.7914 38.4412 13.7914 38.4909 13.8782L38.4663 14.2379C38.516 14.3247 38.4292 14.3744 38.5657 14.4115C38.0324 14.4863 38.1689 14.5234 38.2557 14.4737Z"/></svg>