<svg xmlns="http://www.w3.org/2000/svg" width="57" height="55" fill="none" viewBox="0 0 57 55"><g clip-path="url(#clip0)"><path fill="#D2AF49" d="M38.8932 45.2445C38.6797 45.3109 38.3836 45.2625 38.1863 45.2302C37.4129 45.0025 36.6395 44.7747 35.8338 44.7443C35.7351 44.7282 35.6365 44.7121 35.5539 44.5972C35.2578 44.5488 35.0766 44.4179 34.7644 44.4682C34.5509 44.5346 34.3535 44.5023 34.2871 44.2888C34.2871 44.2888 34.2045 44.174 34.1058 44.1578C33.6285 43.9785 33.1512 43.7991 32.7887 43.5372C32.7061 43.4224 32.4926 43.4888 32.4101 43.374C32.2127 43.3417 32.114 43.3256 31.9328 43.1946C31.4877 42.8179 31.0104 42.6385 30.517 42.5578C30.3196 42.5256 30.1383 42.3946 30.0558 42.2798C29.8745 42.1488 29.7758 42.1327 29.5785 42.1004C29.3811 42.0681 29.085 42.0197 28.9038 41.8888C28.7225 41.7578 28.4426 41.6107 28.2613 41.4798C27.7176 41.0869 27.0429 40.8753 26.483 40.5811C26.1044 40.4179 25.8406 40.1721 25.5607 40.025C25.1982 39.7631 24.737 39.485 24.3423 39.4205C24.2436 39.4043 24.161 39.2895 24.0623 39.2734C23.6011 38.9953 23.2225 38.8321 22.7775 38.4554C22.415 38.1934 21.9538 37.9154 21.5752 37.7522C21.4765 37.736 21.2952 37.6051 21.2127 37.4902C20.9489 37.2445 20.6689 37.0974 20.3729 37.049C20.2742 37.0328 20.1755 37.0167 20.0929 36.9019C19.664 36.4264 19.1706 36.3458 18.7094 36.0677C18.4295 35.9206 18.0508 35.7574 17.7709 35.6103C17.4084 35.3484 17.0298 35.1852 16.5363 35.1045C16.2403 35.0561 15.9442 35.0077 15.6804 34.7619C15.4005 34.6148 15.0883 34.6651 14.8245 34.4193C14.2987 34.536 13.8537 34.1593 13.3602 34.0786C13.0642 34.0302 12.6856 33.867 12.3895 33.8186C12.0773 33.8688 11.6987 33.7056 11.4026 33.6572C11.0078 33.5927 10.7118 33.5443 10.317 33.4797C10.0209 33.4313 9.82355 33.3991 9.51134 33.4494C9.29783 33.5158 9.01789 33.3687 8.80438 33.4351C8.59086 33.5015 8.2948 33.4531 8.09741 33.4209C7.70265 33.3563 7.3079 33.2918 6.88087 33.4246C6.46998 33.4588 6.05908 33.4929 5.73074 33.6419C5.61592 33.7245 5.40241 33.7909 5.20503 33.7586C4.81026 33.6941 4.56449 33.9579 4.16972 33.8933C4.16972 33.8933 4.07104 33.8772 4.0549 33.9759C3.49691 34.29 3.03762 34.6202 2.47963 34.9343C2.13516 35.182 1.97193 35.5606 1.8087 35.9392C1.79257 36.0379 1.77643 36.1366 1.7603 36.2353C1.49838 36.5978 1.64736 36.9261 1.68151 37.337C1.66538 37.4357 1.84662 37.5666 1.83049 37.6653C1.83049 37.6653 1.92918 37.6815 1.91304 37.7802C2.07815 38.0098 1.93106 38.2897 2.21099 38.4368C2.49093 38.5839 2.57349 38.6988 2.7386 38.9284C2.82115 39.0432 3.01853 39.0755 3.19978 39.2065C3.28233 39.3213 3.46358 39.4522 3.56227 39.4684C3.74351 39.5993 3.94089 39.6316 4.00731 39.8451L4.08987 39.9599C4.59945 39.9419 4.92967 40.4012 5.42312 40.4819C5.52181 40.498 5.60437 40.6128 5.71919 40.5303C5.91657 40.5626 6.01526 40.5787 6.09782 40.6935C6.27906 40.8245 6.559 40.9716 6.75638 41.0038C7.51363 41.3303 8.41797 41.3768 9.17522 41.7033C9.27391 41.7194 9.27391 41.7194 9.3726 41.7355C9.88218 41.7175 10.3595 41.8969 10.8529 41.9776C11.0503 42.0098 11.1329 42.1246 11.3464 42.0582C11.4451 42.0744 11.5438 42.0905 11.6425 42.1066C12.2185 42.3021 12.7119 42.3828 13.3041 42.4796C13.8962 42.5764 14.4883 42.6732 14.9818 42.7539C15.0805 42.77 15.1792 42.7862 15.2779 42.8023C15.4591 42.9332 15.7552 42.9817 15.9687 42.9152C16.0674 42.9314 16.1661 42.9475 16.2648 42.9636C16.8569 43.0604 17.2517 43.125 17.5477 43.1734C17.9425 43.2379 18.2224 43.385 18.6172 43.4495C18.9132 43.498 19.1106 43.5302 19.4067 43.5786C19.6041 43.6109 19.8015 43.6432 19.9001 43.6593C20.3775 43.8387 20.9696 43.9355 21.4792 43.9174C21.5779 43.9336 21.5779 43.9336 21.6766 43.9497C22.1377 44.2278 22.5648 44.0949 23.0582 44.1756C23.6504 44.2724 24.3573 44.2867 24.9333 44.4822C25.1307 44.5144 25.459 44.3654 25.6242 44.5951C25.8054 44.726 26.1176 44.6758 26.315 44.708C26.9071 44.8048 27.5979 44.9178 28.2062 44.9159C28.601 44.9804 28.9957 45.045 29.3905 45.1095C29.8014 45.0754 30.18 45.2386 30.5748 45.3031C31.2656 45.4161 32.039 45.6438 32.746 45.6581C33.2555 45.6401 33.7167 45.9181 34.2424 45.8014L34.3411 45.8175C34.6875 46.1781 35.1145 46.0453 35.5093 46.1098C35.8053 46.1582 36.1175 46.108 36.3813 46.3537C36.4639 46.4686 36.6774 46.4021 36.8748 46.4344C37.2695 46.499 37.7953 46.3822 38.1416 46.7429C38.2403 46.759 38.339 46.7751 38.4377 46.7913C38.7499 46.741 39.046 46.7894 39.2272 46.9203C39.5071 47.0674 39.8193 47.0171 40.1316 46.9669C40.5927 47.2449 40.9714 47.4081 41.2854 47.9661C41.4506 48.1958 41.6157 48.4254 41.8956 48.5725C42.5219 49.0802 42.9185 49.753 43.2165 50.4097C43.5306 50.9677 43.8769 51.3283 44.322 51.705C44.6845 51.9669 45.0308 52.3276 45.2946 52.5733C45.3772 52.6882 45.5746 52.7204 45.6571 52.8353C45.7719 52.7527 45.7881 52.654 45.8868 52.6701C46.068 52.8011 46.2654 52.8334 46.4466 52.9643L46.5453 52.9805C46.5472 53.5887 47.1877 53.3895 47.4354 53.7339C48.0114 53.9294 48.5874 54.1249 49.1473 54.4191C49.1634 54.3204 49.1634 54.3204 49.1634 54.3204C48.8493 53.7625 48.5191 53.3032 48.205 52.7452C47.9574 52.4007 47.611 52.0401 47.3633 51.6956C47.017 51.335 46.5719 50.9583 46.1269 50.5815C45.9457 50.4506 45.7805 50.2209 45.5993 50.09C45.2529 49.7294 44.9066 49.3687 44.5441 49.1068C44.4113 48.6798 43.9501 48.4017 43.8011 48.0734C43.7347 47.8599 43.5534 47.7289 43.4709 47.6141C43.2896 47.4832 43.2071 47.3683 43.2393 47.1709C43.1891 46.8587 43.0562 46.4317 42.7924 46.1859C42.7099 46.0711 42.6434 45.8576 42.5609 45.7428C42.2629 45.0861 41.9811 44.3307 41.6832 43.6741C41.6006 43.5592 41.6167 43.4605 41.5503 43.247C41.5 42.9348 41.3349 42.7052 41.2685 42.4917C41.2021 42.2781 41.2505 41.9821 41.2002 41.6699C40.9345 40.8158 40.8662 39.994 40.7979 39.1722C40.7315 38.9587 40.8624 38.7775 40.8947 38.5801C40.927 38.3827 40.7457 38.2518 40.778 38.0544C40.778 38.0544 40.778 38.0544 40.7941 37.9557C40.7277 37.7422 41.056 37.5932 40.8909 37.3636C40.7258 37.1339 40.7581 36.9365 40.8891 36.7553C40.9052 36.6566 40.9213 36.5579 40.8388 36.4431C40.7723 36.2296 40.7885 36.1309 40.8208 35.9335C40.9517 35.7522 40.984 35.5549 40.9337 35.2427C40.8673 35.0291 40.9157 34.7331 41.0466 34.5518C41.0789 34.3545 41.1112 34.1571 41.1434 33.9597C41.0932 33.6475 41.059 33.2366 41.2061 32.9567C41.1558 32.6445 41.2868 32.4632 41.3352 32.1671C41.3674 31.9698 41.4158 31.6737 41.4481 31.4763C41.3978 31.1641 41.5288 30.9829 41.5611 30.7855C41.5772 30.6868 41.6095 30.4894 41.6256 30.3907C41.525 29.7663 41.7366 29.0916 41.8335 28.4995C41.8819 28.2034 41.9464 27.8087 41.9948 27.5126C42.0935 27.5287 42.1922 27.5449 42.1922 27.5449C42.5708 27.7081 42.9494 27.8713 43.459 27.8533C43.5577 27.8694 43.7551 27.9017 43.8538 27.9178C44.2324 28.0811 44.5285 28.1295 44.9394 28.0953C45.1367 28.1276 45.3503 28.0612 45.5315 28.1921C45.6302 28.2083 45.7289 28.2244 45.8276 28.2405C46.2546 28.1077 46.6655 28.0735 47.0602 28.1381C47.1589 28.1542 47.2576 28.1703 47.2738 28.0716C47.6344 27.7253 48.1601 27.6086 48.6194 27.2784C48.849 27.1132 48.9961 26.8333 49.2258 26.6682C49.4213 26.0922 49.8967 25.6633 50.0922 25.0873C50.2877 24.5113 50.5657 24.0501 50.6626 23.458C50.6948 23.2606 50.7271 23.0632 50.858 22.882C51.0051 22.602 51.0535 22.3059 51.1019 22.0099C51.1665 21.6151 51.231 21.2204 51.3942 20.8417C51.4427 20.5457 51.5736 20.3644 51.5233 20.0522C51.6201 19.4601 51.6344 18.7531 51.5338 18.1287C51.5499 18.03 51.5661 17.9313 51.5822 17.8326C51.7293 17.5527 51.7777 17.2566 51.7274 16.9444C51.6771 16.6322 51.7417 16.2375 51.6914 15.9253C51.625 15.7117 51.5908 15.3009 51.5567 14.89C51.4902 14.6764 51.4238 14.4629 51.3413 14.3481C51.3394 13.7398 51.1078 13.2967 50.7776 12.8374C50.6951 12.7226 50.7112 12.6239 50.7273 12.5252C50.7435 12.4265 50.7596 12.3278 50.6771 12.213C50.2481 11.7375 50.2624 11.0306 49.7025 10.7364C49.62 10.6216 49.5374 10.5067 49.4549 10.3919C49.3059 10.0636 48.9595 9.70297 48.7119 9.3585C48.7119 9.3585 48.6293 9.24367 48.5306 9.22754C48.1681 8.96562 47.7895 8.80239 47.6728 8.27668C47.6889 8.17799 47.4915 8.14572 47.409 8.03089C46.8653 7.63802 46.3054 7.34383 45.8603 6.96709C45.6791 6.83613 45.3669 6.88642 45.2018 6.65677C45.0367 6.42712 44.8393 6.39485 44.6419 6.36258C44.4445 6.33031 44.2794 6.10067 44.082 6.0684C43.8847 6.03613 43.7034 5.90517 43.506 5.8729C43.3087 5.84063 43.1113 5.80836 42.8152 5.75996C42.6178 5.72769 42.4204 5.69542 42.3056 5.77798C41.9934 5.82826 41.6651 5.97724 41.2703 5.9127C41.1716 5.89657 41.0568 5.97912 41.0568 5.97912C40.7446 6.02941 40.515 6.19452 40.2027 6.24481C40.0879 6.32736 39.9731 6.40992 39.8744 6.39378C39.7596 6.47634 39.6448 6.5589 39.5299 6.64145C39.1029 6.77429 38.8571 7.03809 38.6113 7.30189C38.4804 7.48314 38.2507 7.64825 38.0372 7.71467C37.7089 7.86365 37.5779 8.04489 37.4308 8.32483C37.4147 8.42352 37.2837 8.60476 37.1689 8.68732C37.0541 8.76987 36.8406 8.83629 36.7096 9.01754C36.5948 9.10009 36.5464 9.39616 36.4316 9.47872C36.2019 9.64383 36.1374 10.0386 35.809 10.1876C35.5149 10.7474 35.0394 11.1763 34.7452 11.7362C34.4833 12.0987 34.2214 12.4612 34.0582 12.8398C33.9111 13.1198 33.6814 13.2849 33.7317 13.5971C33.3711 13.9434 33.3066 14.3382 33.3407 14.7491C32.964 15.1941 33.0484 15.9172 32.8691 16.3945C32.8529 16.4932 32.8368 16.5919 32.8368 16.5919C32.9858 16.9203 32.8548 17.1015 32.8064 17.3976C32.7257 17.891 32.7599 18.3019 32.8927 18.7289C32.9753 18.8438 32.9592 18.9425 32.9269 19.1398C32.8785 19.4359 32.8462 19.6333 32.9952 19.9616C33.1442 20.29 33.2931 20.6183 33.3273 21.0292C33.4279 21.6536 33.6594 22.0968 34.0883 22.5722C34.3521 22.818 34.5998 23.1625 34.7488 23.4908C34.8313 23.6056 34.9139 23.7204 35.1112 23.7527C35.3086 23.785 35.3589 24.0972 35.5563 24.1294C35.7537 24.1617 35.8362 24.2765 36.0013 24.5062C35.9852 24.6049 36.0839 24.621 36.1826 24.6372C36.5612 24.8004 36.825 25.0462 37.0888 25.2919C37.55 25.57 38.0273 25.7494 38.3737 26.11C38.6375 26.3557 38.9335 26.4041 39.3122 26.5674C39.5095 26.5996 39.6244 26.5171 39.8056 26.648C39.8882 26.7629 40.0855 26.7951 40.2829 26.8274C40.3332 27.1396 40.4822 27.468 40.2203 27.8304L40.2041 27.9291C40.1576 28.8335 39.8976 29.8042 39.9497 30.7247C39.9336 30.8234 40.0162 30.9382 39.9013 31.0208C39.5749 31.778 39.6593 32.5011 39.5303 33.2907C39.4012 34.0802 39.256 34.9684 39.2256 35.774C39.3423 36.2998 39.1629 36.7771 39.2796 37.3028C39.2635 37.4015 39.3461 37.5163 39.3299 37.615C39.199 37.7962 39.2654 38.0097 39.4305 38.2394C39.4969 38.4529 39.5795 38.5677 39.4324 38.8477C39.4162 38.9464 39.3014 39.0289 39.384 39.1437C39.5832 39.7843 39.3877 40.3603 39.6031 40.9021C39.6696 41.1157 39.6373 41.313 39.605 41.5104C39.5889 41.6091 39.6553 41.8226 39.6392 41.9213C39.7217 42.0361 39.7881 42.2496 39.7559 42.447C39.7397 42.5457 39.7236 42.6444 39.8062 42.7592C40.0538 43.1037 39.9732 43.5971 40.1221 43.9255C40.2047 44.0403 40.3034 44.0564 40.3859 44.1713C40.3698 44.27 40.3698 44.27 40.3698 44.27C40.2388 44.4512 40.0415 44.4189 40.0576 44.3202C39.9912 44.1067 39.8099 43.9758 39.7274 43.8609C39.661 43.6474 39.4797 43.5165 39.3972 43.4017C39.0508 43.041 38.8031 42.6966 38.5716 42.2534C38.489 42.1386 38.4226 41.9251 38.2414 41.7941C37.8789 41.5322 37.6312 41.1877 37.4984 40.7607C37.5145 40.662 37.4158 40.6459 37.4158 40.6459C36.9385 40.4665 36.9205 39.9569 36.558 39.695C36.113 39.3183 35.8814 38.8751 35.5512 38.4158C35.3861 38.1862 35.2048 38.0552 35.1384 37.8417C34.8908 37.4972 34.7579 37.0702 34.4941 36.8244C34.4116 36.7096 34.3451 36.4961 34.2626 36.3812C34.18 36.2664 34.0975 36.1516 34.0149 36.0368C33.7673 35.6923 33.5196 35.3478 33.2558 35.102C33.0907 34.8724 32.8269 34.6266 32.6779 34.2983C32.5128 34.0686 32.4625 33.7564 32.1826 33.6093C32.0175 33.3797 31.9672 33.0675 31.8021 32.8378C31.4718 32.3785 31.1578 31.8205 30.8437 31.2626C30.7611 31.1477 30.6786 31.0329 30.4973 30.9019C30.4148 30.7871 30.3322 30.6723 30.3483 30.5736C30.3806 30.3762 30.1832 30.344 30.1994 30.2453C30.0342 30.0156 29.7543 29.8685 29.9014 29.5886L29.8188 29.4738C29.5873 29.0306 29.3396 28.6861 29.1081 28.243C29.2875 27.7657 29.4507 27.387 29.6139 27.0084C29.892 26.5472 29.9727 26.0538 30.152 25.5765C30.1843 25.3791 30.2166 25.1817 30.3314 25.0991C30.4946 24.7205 30.5753 24.2271 30.4424 23.8C30.3922 23.4878 30.4567 23.0931 30.2916 22.8634C30.4548 22.4848 30.191 22.239 30.1407 21.9268C30.1066 21.5159 29.8589 21.1715 29.7099 20.8431C29.5771 20.4161 29.3294 20.0716 29.0817 19.7271C28.9005 19.5962 28.8341 19.3827 28.669 19.153C28.371 18.4963 27.926 18.1196 27.3661 17.8254C27.2674 17.8093 27.2674 17.8093 27.1849 17.6945C26.8546 17.2352 26.3773 17.0558 25.9161 16.7777C25.455 16.4997 24.9615 16.419 24.5165 16.0423C23.874 15.6333 23.1671 15.619 22.5911 15.4235C22.3937 15.3913 22.0976 15.3429 21.9002 15.3106L21.8016 15.2944C21.0443 14.968 20.5509 14.8873 19.8439 14.8731C19.6465 14.8408 19.4491 14.8085 19.3504 14.7924C19.2518 14.7763 19.0544 14.744 18.9395 14.8266C18.8247 14.9091 18.726 14.893 18.5448 14.762C18.5448 14.762 18.3635 14.6311 18.3474 14.7297C18.0191 14.8787 17.6404 14.7155 17.3121 14.8645C17.2134 14.8483 17.1973 14.947 17.0986 14.9309C16.72 14.7677 16.2768 14.9992 15.882 14.9347C15.7834 14.9185 15.5698 14.9849 15.455 15.0675C15.2415 15.1339 15.1267 15.2165 14.8306 15.1681L14.7319 15.1519C14.2888 15.3835 13.763 15.5002 13.4024 15.8465C13.2876 15.9291 13.2715 16.0278 13.1728 16.0116C12.7619 16.0458 12.5161 16.3096 12.3529 16.6882C12.0748 17.1494 11.8793 17.7254 11.5851 18.2853C11.3071 18.7465 11.2264 19.2399 11.2283 19.8482C11.2947 20.0617 11.2625 20.2591 11.1315 20.4403C11.1154 20.539 11.0831 20.7364 11.067 20.8351C11.1011 21.246 11.234 21.673 11.2681 22.0839C11.3184 22.3961 11.4835 22.6257 11.5338 22.9379C11.6666 23.365 11.882 23.9068 12.0149 24.3339C12.1639 24.6622 12.3128 24.9905 12.4618 25.3189C12.5444 25.4337 12.5282 25.5324 12.6269 25.5485C12.9894 25.8104 13.1384 26.1388 13.2874 26.4671C13.4363 26.7955 13.6014 27.0251 13.8652 27.2709C14.1452 27.418 14.409 27.6638 14.6728 27.9095C14.854 28.0405 14.8218 28.2379 15.003 28.3688C15.0856 28.4837 15.3816 28.5321 15.4642 28.6469C15.728 28.8927 15.8931 29.1223 16.1892 29.1707L16.2879 29.1869C16.5194 29.63 17.0128 29.7107 17.3915 29.8739C17.5727 30.0049 17.754 30.1358 17.8365 30.2507C18.1164 30.3978 18.2816 30.6274 18.5776 30.6758C18.6763 30.6919 18.6763 30.6919 18.7589 30.8068C19.1052 31.1674 19.5987 31.248 19.9612 31.51C20.1424 31.6409 20.3398 31.6732 20.6359 31.7216C20.9319 31.77 21.2441 31.7197 21.3931 32.0481C21.4918 32.0642 21.5744 32.179 21.6892 32.0965C22.0175 31.9475 22.3961 32.1107 22.6761 32.2578C23.0547 32.421 23.3669 32.3707 23.6952 32.2218C23.9088 32.1553 24.1223 32.0889 24.3196 32.1212C24.7305 32.087 25.1576 31.9542 25.4034 31.6904C25.5182 31.6078 25.6491 31.4266 25.8465 31.4589C26.0439 31.4911 26.1749 31.3099 26.3884 31.2435C26.8477 30.9132 27.1419 30.3534 27.6011 30.0232C27.716 29.9406 27.7644 29.6445 27.8953 29.4633C28.0766 29.5942 28.3727 29.6426 28.3404 29.84C28.4068 30.0535 28.3745 30.2509 28.5558 30.3819C28.4912 30.7766 28.886 30.8412 28.9363 31.1534C29.2988 31.4153 29.3329 31.8262 29.5806 32.1707C29.8947 32.7286 30.2088 33.2866 30.6215 33.8608C30.7867 34.0904 30.9518 34.3201 31.0182 34.5336C31.1672 34.8619 31.3323 35.0916 31.5799 35.436C31.9102 35.8953 32.2404 36.3546 32.5706 36.8139C32.6532 36.9287 32.7035 37.2409 32.8021 37.2571C33.0821 37.4042 33.1485 37.6177 33.2149 37.8312C33.38 38.0609 33.6438 38.3066 33.7928 38.635C33.9418 38.9633 34.1069 39.193 34.3868 39.34C34.5681 39.471 34.6345 39.6845 34.717 39.7993C34.7835 40.0129 34.866 40.1277 35.0473 40.2586C35.4098 40.5206 35.6574 40.865 35.8064 41.1934C35.889 41.3082 35.9715 41.423 36.0541 41.5378C36.2353 41.6688 36.334 41.6849 36.2856 41.981L36.3682 42.0958C36.7468 42.2591 36.8796 42.6861 37.226 43.0467C37.4736 43.3912 37.7213 43.7356 37.969 44.0801C38.0515 44.1949 38.1341 44.3098 38.2328 44.3259C38.4966 44.5717 38.7442 44.9161 39.008 45.1619C38.9094 45.1458 38.8932 45.2445 38.8932 45.2445ZM19.3024 41.7377C19.0727 41.9028 18.7605 41.9531 18.3819 41.7898C18.0032 41.6266 17.6085 41.5621 17.3124 41.5137C17.115 41.4814 16.8028 41.5317 16.6216 41.4007C16.3417 41.2536 16.112 41.4187 15.9308 41.2878C15.6508 41.1407 15.4212 41.3058 15.1412 41.1587C14.4827 40.8484 13.7596 40.9328 13.0849 40.7212C12.7888 40.6728 12.3941 40.6083 12.098 40.5599C11.7194 40.3966 11.3407 40.2334 10.815 40.3501C10.7163 40.334 10.6176 40.3178 10.519 40.3017C10.4364 40.1869 10.3377 40.1708 10.1403 40.1385C9.94295 40.1062 9.64688 40.0578 9.4495 40.0255C9.25212 39.9933 9.07088 39.8623 8.77481 39.8139C8.57743 39.7816 8.38005 39.7494 8.10011 39.6023C7.70535 39.5377 7.32674 39.3745 6.94811 39.2113C6.66817 39.0642 6.28955 38.901 5.99348 38.8526C5.7961 38.8203 5.59872 38.788 5.43361 38.5584C5.26849 38.3287 4.97243 38.2803 4.69249 38.1332C4.31387 37.97 3.80429 37.988 3.68758 37.4623C3.70371 37.3636 3.50633 37.3313 3.40764 37.3152C3.21026 37.2829 3.14384 37.0694 3.06129 36.9546C2.99487 36.7411 2.92844 36.5276 2.84589 36.4128C2.97685 36.2315 3.2065 36.0664 3.32132 35.9838C3.45228 35.8026 3.68193 35.6375 4.01027 35.4885C4.4373 35.3557 4.97914 35.1403 5.48873 35.1222C5.68611 35.1545 5.8332 34.8746 6.01445 35.0055C6.40921 35.0701 6.73754 34.9211 7.04975 34.8708C7.26326 34.8044 7.47678 34.738 7.67416 34.7702C8.06892 34.8348 8.47981 34.8006 8.98939 34.7826C9.18677 34.8149 9.40028 34.7485 9.58153 34.8794C9.77891 34.9117 9.99243 34.8453 10.1898 34.8775L10.2885 34.8937C10.7497 35.1717 11.2754 35.055 11.7527 35.2344C12.081 35.0854 12.3287 35.4299 12.6409 35.3796C13.0518 35.3454 13.513 35.6235 13.9239 35.5893C14.0226 35.6055 14.1051 35.7203 14.1051 35.7203C14.4838 35.8835 14.9449 36.1616 15.4545 36.1436C15.5532 36.1597 15.6519 36.1758 15.7345 36.2906C16.0808 36.6513 16.5904 36.6332 16.9529 36.8952C17.3638 36.861 17.7101 37.2216 18.0888 37.3848C18.4674 37.5481 18.9447 37.7274 19.1924 38.0719C19.1924 38.0719 19.2911 38.088 19.3897 38.1042C19.571 38.2351 19.8832 38.1848 20.147 38.4306C20.3121 38.6603 20.6082 38.7087 20.8881 38.8558L20.9707 38.9706C21.2506 39.1177 21.5144 39.3635 21.7943 39.5106C22.2716 39.6899 22.7167 40.0667 23.194 40.246C23.7539 40.5402 24.2815 41.0318 24.8736 41.1286C24.8736 41.1286 24.9723 41.1447 24.9562 41.2434C25.2038 41.5879 25.4999 41.6363 25.8785 41.7995C26.0598 41.9305 26.2572 41.9627 26.4384 42.0937C26.521 42.2085 26.6196 42.2247 26.7183 42.2408C27.1795 42.5188 27.6568 42.6982 28.118 42.9763C28.2993 43.1072 28.5953 43.1556 28.7927 43.1879L28.8753 43.3027C28.7604 43.3853 28.7604 43.3853 28.6617 43.3691C28.1683 43.2885 27.691 43.1091 27.2298 42.831C26.9499 42.684 26.6699 42.5369 26.39 42.3898C25.9127 42.2104 25.5341 42.0472 25.0567 41.8678C24.7768 41.7207 24.4807 41.6723 24.1847 41.6239C23.8886 41.5755 23.6087 41.4284 23.4274 41.2975C23.4274 41.2975 23.4274 41.2975 23.3287 41.2813C22.8191 41.2993 22.2754 40.9065 21.782 40.8258C21.4859 40.7774 21.2221 40.5316 20.9099 40.5819C20.8112 40.5658 20.7125 40.5496 20.63 40.4348C20.3662 40.189 20.0701 40.1406 19.774 40.0922C19.2806 40.0115 18.8194 39.7335 18.3098 39.7515C18.2111 39.7354 18.2111 39.7354 18.1124 39.7192C17.7499 39.4573 17.2565 39.3766 16.8617 39.3121C16.6643 39.2798 16.467 39.2476 16.3844 39.1327C15.9394 38.756 15.3634 38.5605 14.8699 38.4798C14.7712 38.4637 14.5738 38.4314 14.5738 38.4314C14.4087 38.2018 14.2114 38.1695 14.014 38.1372C13.5367 37.9579 13.0271 37.9759 12.582 37.5992C12.4008 37.4682 12.2034 37.4359 12.006 37.4037C11.71 37.3553 11.43 37.2082 11.1339 37.1598C10.8379 37.1114 10.5902 36.7669 10.278 36.8172C10.278 36.8172 10.1955 36.7024 10.0968 36.6862C9.99807 36.6701 9.91552 36.5553 9.81683 36.5391C9.50463 36.5894 9.24083 36.3436 8.94476 36.2952C8.66482 36.1481 8.36875 36.0997 8.1875 35.9688C7.90757 35.8217 7.6115 35.7733 7.20061 35.8074C7.06965 35.9887 7.05351 36.0874 6.92256 36.2686C6.77547 36.5485 6.92444 36.8769 7.12182 36.9092C7.50045 37.0724 7.74811 37.4168 8.159 37.3827C8.25769 37.3988 8.35638 37.415 8.43894 37.5298C8.60405 37.7594 8.80143 37.7917 8.99881 37.824C9.39357 37.8885 9.68964 37.9369 10.0521 38.1988L10.1508 38.215C10.463 38.1647 10.7107 38.5092 11.1054 38.5737C11.3028 38.606 11.5828 38.7531 11.7801 38.7853C12.2736 38.866 12.7509 39.0454 13.1959 39.4221C13.2785 39.5369 13.3772 39.5531 13.4759 39.5692C14.0842 39.5673 14.5131 40.0427 15.0227 40.0247C15.1052 40.1395 15.2865 40.2705 15.5 40.2041C15.7135 40.1377 15.7476 40.5486 15.9611 40.4821C16.2734 40.4319 16.3398 40.6454 16.521 40.7763C16.7023 40.9073 16.9319 40.7422 17.2118 40.8893C17.2118 40.8893 17.3105 40.9054 17.2944 41.0041C17.5582 41.2499 17.8704 41.1996 18.1503 41.3467C18.6115 41.6247 19.0063 41.6893 19.3024 41.7377C19.4836 41.8686 19.681 41.9009 19.7797 41.917C19.5662 41.9835 19.3688 41.9512 19.3024 41.7377ZM38.077 9.95038C38.4054 9.80141 38.7498 9.55374 38.8969 9.27381C39.0118 9.19125 39.044 8.99387 39.1588 8.91132C39.2737 8.82876 39.4872 8.76234 39.602 8.67978C39.733 8.49854 39.8478 8.41598 40.0774 8.25087C40.438 7.90452 40.9799 7.68912 41.5056 7.57241C41.834 7.42344 42.261 7.29059 42.6235 7.55251C42.7222 7.56865 42.7222 7.56865 42.8209 7.58478C43.1331 7.53449 43.3143 7.66545 43.6104 7.71386C44.1864 7.90935 44.7462 8.20354 45.1913 8.58028C45.5538 8.8422 45.8337 8.98929 46.1801 9.3499C46.3613 9.48086 46.7238 9.74277 47.0863 10.0047C47.4991 10.5788 48.0428 10.9717 48.4395 11.6445C48.7194 11.7916 48.5723 12.0715 48.8361 12.3173C49.0999 12.5631 49.1341 12.974 49.2992 13.2036C49.5468 13.5481 49.4823 13.9429 49.7461 14.1886C49.7461 14.1886 49.8286 14.3035 49.8125 14.4022C49.8305 14.9117 49.8647 15.3226 50.0962 15.7658C50.0801 15.8645 50.1788 15.8806 50.1626 15.9793C50.0155 16.2593 50.1645 16.5876 50.1161 16.8837C50.1503 17.2946 50.2006 17.6068 50.0373 17.9854C50.0212 18.0841 50.0051 18.1828 49.9889 18.2815C49.9405 18.5775 49.9908 18.8897 49.8437 19.1697C49.7953 19.4657 49.9443 19.7941 49.7972 20.074C49.7811 20.1727 49.7649 20.2714 49.7488 20.3701C49.7165 20.5675 49.5856 20.7487 49.6358 21.0609C49.6197 21.1596 49.6197 21.1596 49.6036 21.2583C49.3255 21.7195 49.3274 22.3277 49.1481 22.805C48.9687 23.2824 48.8719 23.8745 48.4951 24.3195C48.3642 24.5008 48.3319 24.6982 48.2996 24.8956C48.2674 25.0929 48.2512 25.1916 48.0216 25.3567C47.9068 25.4393 47.8745 25.6367 47.7597 25.7192C47.3991 26.0656 47.121 26.5268 46.4805 26.726C46.267 26.7924 46.0696 26.7602 45.8722 26.7279C45.4774 26.6634 45.1814 26.615 44.7705 26.6491C44.4583 26.6994 44.1622 26.651 43.8823 26.5039C43.7836 26.4878 43.5862 26.4555 43.4875 26.4394C42.8954 26.3426 42.3032 26.2458 41.8582 25.869C41.7756 25.7542 41.6769 25.7381 41.5783 25.7219C41.2822 25.6735 41.1171 25.4439 40.821 25.3955C40.5249 25.3471 40.2611 25.1013 40.0799 24.9703C39.7174 24.7084 39.4213 24.66 39.0104 24.6942C38.9117 24.678 38.8131 24.6619 38.6157 24.6296C38.2209 24.5651 37.8584 24.3032 37.6108 23.9587C37.4456 23.729 37.2644 23.5981 37.0832 23.4671C36.8032 23.32 36.4246 23.1568 36.2918 22.7298C36.2092 22.6149 36.1105 22.5988 36.028 22.484C35.7803 22.1395 35.4178 21.8776 35.285 21.4506C35.0696 20.9087 34.8542 20.3669 34.7536 19.7425C34.7194 19.3316 34.504 18.7897 34.5686 18.395C34.337 17.9518 34.5003 17.5732 34.5648 17.1784C34.5971 16.981 34.6455 16.685 34.5791 16.4714C34.6436 16.0767 34.6094 15.6658 34.8552 15.402C34.9701 15.3194 34.8875 15.2046 34.9036 15.1059C34.952 14.8099 35.1153 14.4312 35.2624 14.1513C35.5081 13.8875 35.474 13.4766 35.7198 13.2128C36.0965 12.7678 36.3746 12.3066 36.6526 11.8454C36.7836 11.6641 37.0294 11.4003 37.1603 11.2191C37.5371 10.7741 37.8977 10.4277 38.077 9.95038ZM25.8554 18.3891C26.1856 18.8484 26.7455 19.1425 27.1582 19.7167C27.3234 19.9463 27.4059 20.0611 27.571 20.2908C27.7361 20.5204 27.9012 20.7501 27.9515 21.0623C28.0844 21.4893 28.2333 21.8176 28.4649 22.2608C28.5474 22.3756 28.63 22.4905 28.6139 22.5891C28.5654 22.8852 28.6157 23.1974 28.666 23.5096C28.7324 23.7231 28.684 24.0192 28.6518 24.2166C28.4724 24.6939 28.4904 25.2035 28.3111 25.6808C28.2788 25.8782 28.164 25.9607 28.1317 26.1581C28.0007 26.3394 27.9523 26.6354 27.8214 26.8167C27.5595 27.1792 27.2975 27.5417 27.0356 27.9041C26.7898 28.1679 26.5441 28.4317 26.397 28.7117C26.2176 29.189 25.7744 29.4205 25.4138 29.7669C25.299 29.8494 25.2003 29.8333 25.1842 29.932C24.9061 30.3932 24.2153 30.2802 23.8708 30.5279C23.4761 30.4634 23.049 30.5962 22.6543 30.5317C22.5556 30.5155 22.5556 30.5155 22.4569 30.4994C22.2757 30.3684 22.1608 30.451 21.9635 30.4187C21.7661 30.3865 21.4539 30.4367 21.2726 30.3058C20.9927 30.1587 20.6966 30.1103 20.5154 29.9793C20.2354 29.8322 19.9232 29.8825 19.6756 29.5381C19.1157 29.2439 18.441 29.0322 18.0121 28.5568C17.9134 28.5407 17.8309 28.4258 17.716 28.5084C17.5187 28.4761 17.3374 28.3452 17.1562 28.2142C16.7937 27.9523 16.546 27.6078 16.1835 27.3459C15.9036 27.1988 15.6559 26.8543 15.3921 26.6086C15.1283 26.3628 14.8645 26.117 14.7155 25.7887C14.4517 25.5429 14.2041 25.1984 14.0551 24.8701C13.9222 24.443 13.2637 24.1327 13.4592 23.5567C13.129 23.0974 13.0123 22.5717 12.8956 22.046L12.813 21.9312C12.7304 21.8163 12.6479 21.7015 12.6802 21.5041C12.7608 21.0107 12.628 20.5836 12.5938 20.1728C12.6261 19.9754 12.6584 19.778 12.6906 19.5806C12.7552 19.1859 12.9184 18.8072 13.0655 18.5273C13.2287 18.1487 13.4906 17.7862 13.67 17.3089C13.67 17.3089 13.6861 17.2102 13.7848 17.2263C14.2441 16.8961 14.7034 16.5659 15.213 16.5478C15.5252 16.4976 15.8374 16.4473 16.1657 16.2983C16.3793 16.2319 16.5928 16.1655 16.7902 16.1977C17.2997 16.1797 17.7932 16.2604 18.2202 16.1275L18.3189 16.1437C18.8788 16.4379 19.4368 16.1238 19.9966 16.418C20.325 16.269 20.474 16.5973 20.7862 16.547C20.9997 16.4806 21.197 16.5129 21.3783 16.6438C21.6582 16.7909 21.8556 16.8232 22.1517 16.8716C22.3491 16.9039 22.629 17.051 22.8425 16.9845C23.1386 17.0329 23.3037 17.2626 23.5998 17.311C24.0932 17.3917 24.5544 17.6697 25.0317 17.8491C25.0317 17.8491 25.3942 18.111 25.8554 18.3891Z"/><path fill="#D2AF49" d="M45.5669 23.6381C45.6979 23.4568 45.8289 23.2756 45.9437 23.193C46.254 22.5345 46.5643 21.8759 46.6773 21.1851C46.7579 20.6916 46.8225 20.2969 46.7058 19.7711C46.6393 19.5576 46.6716 19.3603 46.72 19.0642C46.7846 18.6694 46.8491 18.2747 46.7001 17.9463C46.7001 17.9463 46.6176 17.8315 46.7162 17.8476C46.8795 17.469 46.7466 17.042 46.5977 16.7136C46.6138 16.615 46.5151 16.5988 46.5312 16.5001C46.6119 16.0067 46.4629 15.6783 46.4288 15.2674C46.2475 15.1365 46.165 15.0217 45.9837 14.8907C45.6212 14.6288 45.0955 14.7455 45.0149 15.2389C44.9826 15.4363 44.9665 15.535 44.9342 15.7324C44.918 15.8311 44.9019 15.9298 44.9845 16.0446C45.1334 16.3729 45.1999 16.5865 45.1515 16.8825L45.1353 16.9812C45.1856 17.2934 45.1372 17.5895 45.1875 17.9017C45.2378 18.2139 45.2881 18.5261 45.2558 18.7235C45.2235 18.9209 45.29 19.1344 45.2577 19.3317C45.2093 19.6278 45.2596 19.94 45.2112 20.2361C45.195 20.3348 45.2776 20.4496 45.2615 20.5483C45.1144 20.8282 45.2795 21.0579 45.2472 21.2553C45.2149 21.4526 45.2814 21.6662 45.4465 21.8958C45.529 22.0106 45.5129 22.1093 45.4968 22.208C45.4161 22.7015 45.5489 23.1285 45.5669 23.6381C45.5669 23.6381 45.4683 23.6219 45.5669 23.6381Z"/><path fill="#D2AF49" d="M16.5957 22.3469C16.07 22.4636 16.1867 22.9894 15.8583 23.1383C15.9247 23.3518 15.9912 23.5654 16.0576 23.7789C16.1563 23.795 16.1401 23.8937 16.2388 23.9098C16.3375 23.926 16.5349 23.9582 16.5026 24.1556C16.5529 24.4678 16.9315 24.631 16.9818 24.9433C16.9657 25.0419 17.0644 25.0581 17.1631 25.0742C17.4591 25.1226 17.7068 25.4671 17.8881 25.598C18.0693 25.729 18.2506 25.86 18.3331 25.9748C18.5969 26.2206 18.9755 26.3838 19.2232 26.7283C19.3058 26.8431 19.6018 26.8915 19.7831 27.0225C20.6067 27.5624 21.4788 27.8063 22.3993 27.7542C22.498 27.7703 22.6128 27.6877 22.7115 27.7039C22.5302 27.5729 22.5464 27.4742 22.4477 27.4581C21.9865 27.18 21.6563 26.7207 21.1951 26.4427C21.161 26.0318 20.6675 25.9511 20.4037 25.7053C20.2386 25.4757 19.86 25.3125 19.58 25.1654C19.4975 25.0505 19.3162 24.9196 19.2175 24.9034C18.9537 24.6577 18.7886 24.428 18.4926 24.3796C18.3939 24.3635 18.2952 24.3473 18.3113 24.2487C18.2772 23.8378 17.8824 23.7732 17.7012 23.6423C17.5361 23.4126 17.2561 23.2655 17.1897 23.052C17.1717 22.5424 16.9904 22.4115 16.5957 22.3469Z"/></g><defs><clipPath id="clip0"><rect width="49.8" height="47" fill="#fff" transform="matrix(-0.986898 -0.161344 -0.161344 0.986898 56.7305 8.03491)"/></clipPath></defs></svg>