<svg xmlns="http://www.w3.org/2000/svg" width="138" height="63" fill="none" viewBox="0 0 138 63"><g opacity=".8"><g clip-path="url(#clip0)"><path stroke="#fff" stroke-miterlimit="10" stroke-width="1.247" d="M101.2 36.9C101.4 35.6 101.4 34.3 101.4 33C101.4 15.1 86.8996 0.599976 68.9996 0.599976C51.0996 0.599976 36.5996 15.1 36.5996 33C36.5996 34.4 36.6996 35.7 36.8996 37.1"/><path fill="#fff" d="M69.1998 3.59998C52.8998 3.59998 39.7998 16.8 39.7998 33C39.7998 49.3 52.9998 62.4 69.1998 62.4C85.3998 62.4 98.6998 49.3 98.6998 33C98.6998 16.8 85.4998 3.59998 69.1998 3.59998ZM82.0998 16C81.1998 17.2 80.3998 18.4 79.4998 19.6C78.8998 20.4 78.2998 21.3 77.5998 22.1C76.8998 23 76.0998 23.7 75.0998 24.2C74.6998 24.4 74.2998 24.6 73.8998 24.8C73.0998 25.2 72.4998 25.9 71.9998 26.6C71.4998 27.3 70.8998 28 70.3998 28.7C70.5998 28.9 70.6998 29 70.8998 29.2C73.4998 32 76.0998 34.9 78.7998 37.7C78.9998 37.9 79.1998 38.1 79.2998 38.3C79.6998 39 79.3998 39.9 78.6998 40.2C78.0998 40.4 77.5998 40.3 77.1998 39.8C75.0998 37.3 72.9998 34.7 70.8998 32.2C70.6998 31.9 70.4998 31.7 70.1998 31.4C70.1998 31.5 70.1998 31.5 70.1998 31.6C70.2998 33.6 70.3998 35.6 70.4998 37.6C70.4998 38.1 70.4998 38.6 70.4998 39.1C70.4998 39.9 69.7998 40.5 68.9998 40.3C68.4998 40.2 68.0998 39.7 68.0998 39.1C68.0998 37.9 68.1998 36.7 68.1998 35.5C68.2998 34.1 68.2998 32.7 68.3998 31.3C68.2998 31.4 68.2998 31.4 68.2998 31.5C66.1998 34.2 63.9998 37 61.8998 39.7C61.4998 40.2 61.0998 40.3 60.4998 40.2C59.7998 40 59.1998 38.9 59.8998 38.1C60.8998 37 61.8998 35.8 62.8998 34.7C64.5998 32.8 66.2998 30.8 67.8998 28.9C67.8998 28.9 67.8998 28.9 67.9998 28.8C67.7998 28.5 67.5998 28.3 67.3998 28C66.6998 27.2 66.0998 26.4 65.2998 25.7C65.1998 25.6 65.0998 25.5 64.9998 25.5C64.9998 25.5 64.8998 25.5 64.7998 25.5C64.7998 25.5 64.7998 25.4 64.7998 25.3C64.6998 25.3 64.6998 25.4 64.5998 25.4C64.5998 25.3 64.5998 25.3 64.5998 25.2C64.4998 25.2 64.4998 25.3 64.3998 25.3C64.3998 25.2 64.3998 25.2 64.3998 25.1C64.2998 25.1 64.2998 25.2 64.1998 25.2C64.1998 25.1 64.1998 25.1 64.1998 25C63.9998 25 63.8998 25 63.8998 25C63.8998 24.9 63.8998 24.9 63.8998 24.8C63.7998 24.8 63.7998 24.8 63.6998 24.9C63.6998 24.8 63.6998 24.8 63.6998 24.7C63.5998 24.7 63.5998 24.8 63.4998 24.8C63.4998 24.7 63.4998 24.7 63.4998 24.6C63.3998 24.6 63.3998 24.6 63.2998 24.7C63.2998 24.6 63.2998 24.6 63.3998 24.5C63.2998 24.5 63.2998 24.5 63.1998 24.6C63.1998 24.5 63.1998 24.5 63.1998 24.4C63.0998 24.4 63.0998 24.4 62.9998 24.4C62.9998 24.3 62.9998 24.3 62.9998 24.2C62.8998 24.2 62.8998 24.2 62.7998 24.2C62.7998 24.1 62.7998 24.1 62.8998 24C62.7998 24 62.7998 24 62.6998 24C62.6998 23.9 62.6998 23.9 62.7998 23.8C62.6998 23.8 62.6998 23.8 62.5998 23.8C62.5998 23.7 62.5998 23.7 62.6998 23.6C62.5998 23.6 62.5998 23.6 62.4998 23.6C62.4998 23.5 62.4998 23.5 62.5998 23.4C62.4998 23.4 62.4998 23.4 62.3998 23.4C62.3998 23.3 62.3998 23.3 62.4998 23.2C62.3998 23.2 62.3998 23.2 62.2998 23.3C62.2998 23.2 62.3998 23.2 62.3998 23.1C62.2998 23.1 62.2998 23.1 62.1998 23.2C62.1998 23.1 62.1998 23.1 62.2998 23C62.1998 23 62.1998 23 62.0998 23C62.0998 22.9 62.0998 22.9 62.0998 22.8C61.9998 22.8 61.9998 22.8 61.8998 22.8C61.8998 22.7 61.8998 22.7 61.9998 22.6C61.8998 22.6 61.8998 22.6 61.7998 22.6C61.7998 22.5 61.8998 22.5 61.8998 22.4C61.7998 22.4 61.7998 22.4 61.6998 22.5C61.6998 22.4 61.6998 22.4 61.7998 22.3C61.6998 22.3 61.6998 22.3 61.5998 22.3C61.5998 22.2 61.5998 22.2 61.6998 22.1C61.5998 22.1 61.5998 22.1 61.4998 22.1C61.4998 22 61.4998 22 61.5998 21.9C61.4998 21.9 61.4998 21.9 61.3998 21.9C61.3998 21.8 61.3998 21.8 61.4998 21.7C61.3998 21.7 61.3998 21.7 61.2998 21.7C61.2998 21.6 61.3998 21.6 61.3998 21.5C61.2998 21.5 61.2998 21.5 61.1998 21.5C61.1998 21.4 61.1998 21.4 61.2998 21.3C61.1998 21.3 61.1998 21.3 61.0998 21.3C61.0998 21.2 61.0998 21.2 61.1998 21.1C61.0998 21.1 60.9998 21.1 60.9998 21.1C60.9998 21 61.0998 20.9 61.0998 20.9C60.9998 20.9 60.8998 20.9 60.7998 20.9C60.7998 20.8 60.8998 20.8 60.8998 20.7C60.7998 20.7 60.6998 20.7 60.6998 20.7C60.6998 20.6 60.6998 20.6 60.7998 20.5C60.6998 20.5 60.5998 20.5 60.5998 20.5C60.5998 20.4 60.6998 20.4 60.6998 20.3C60.5998 20.3 60.4998 20.3 60.4998 20.3C60.4998 20.2 60.5998 20.2 60.5998 20.1C60.4998 20.1 60.3998 20.1 60.2998 20.1C60.2998 20 60.3998 19.9 60.3998 19.9C60.2998 19.9 60.1998 19.9 60.0998 19.9C60.0998 19.8 60.1998 19.8 60.1998 19.7C60.0998 19.7 59.9998 19.7 59.9998 19.7C59.9998 19.6 60.0998 19.6 60.0998 19.5C59.9998 19.5 59.8998 19.5 59.8998 19.5C59.8998 19.4 59.9998 19.4 59.9998 19.3C59.8998 19.3 59.7998 19.3 59.6998 19.3C59.6998 19.2 59.7998 19.2 59.7998 19.1C59.6998 19.1 59.6998 19.1 59.5998 19.1C59.5998 19 59.6998 19 59.6998 18.9C59.5998 18.9 59.4998 18.9 59.3998 18.9C59.3998 18.8 59.4998 18.8 59.4998 18.7C59.3998 18.7 59.2998 18.7 59.1998 18.7C59.1998 18.6 59.2998 18.6 59.2998 18.5C59.1998 18.5 59.0998 18.5 59.0998 18.5C59.0998 18.4 59.1998 18.4 59.1998 18.3C59.0998 18.3 58.9998 18.3 58.9998 18.3C58.9998 18.2 59.0998 18.2 59.0998 18.1C58.9998 18.1 58.9998 18.1 58.8998 18.1C58.8998 18 58.9998 18 58.9998 17.9C58.8998 17.9 58.8998 17.9 58.7998 17.9C58.7998 17.8 58.8998 17.8 58.8998 17.7C58.7998 17.7 58.7998 17.7 58.6998 17.7C58.7998 17.6 58.7998 17.6 58.8998 17.5C58.7998 17.5 58.6998 17.5 58.6998 17.5C58.7998 17.4 58.7998 17.4 58.8998 17.3C58.7998 17.3 58.7998 17.3 58.6998 17.2C58.7998 17.1 58.7998 17.1 58.8998 17C58.7998 17 58.7998 17 58.6998 16.9C58.7998 16.8 58.7998 16.8 58.8998 16.7C58.7998 16.7 58.7998 16.6 58.6998 16.6C58.7998 16.5 58.7998 16.5 58.8998 16.4C58.7998 16.4 58.7998 16.4 58.6998 16.3C58.7998 16.2 58.7998 16.2 58.8998 16.1C58.7998 16.1 58.7998 16 58.6998 16C58.7998 15.9 58.7998 15.9 58.8998 15.8C58.7998 15.8 58.7998 15.7 58.6998 15.7C58.6998 15.7 58.7998 15.6 58.8998 15.6C58.7998 15.6 58.7998 15.5 58.6998 15.5C58.7998 15.4 58.8998 15.3 58.6998 15.3C58.6998 15.2 58.7998 15 58.7998 14.9C58.7998 14.7 58.9998 14.6 59.1998 14.5C59.3998 14.5 59.5998 14.6 59.6998 14.7C60.2998 15.5 60.9998 16.2 61.5998 17C63.7998 19.7 65.9998 22.3 68.1998 25C68.6998 25.6 69.1998 26.3 69.6998 26.9C69.6998 27 69.7998 27 69.8998 27.1C69.8998 26.9 69.8998 26.8 69.8998 26.7C69.8998 25.7 69.9998 24.7 69.9998 23.6C70.0998 22.5 69.6998 21.6 68.9998 20.8C68.5998 20.4 68.2998 20 67.8998 19.5C67.1998 18.5 66.8998 17.3 66.8998 16.1C66.9998 13.9 67.6998 12.1 69.0998 10.4C69.2998 10.2 69.4998 9.99998 69.7998 9.79998C70.1998 9.49998 70.5998 9.49998 71.0998 9.79998C71.4998 10.1 71.7998 10.4 72.0998 10.8C73.2998 12.4 73.8998 14.1 73.9998 16.1C73.9998 17.6 73.5998 18.9 72.5998 20.1C72.2998 20.4 71.9998 20.8 71.6998 21.1C71.1998 21.7 70.8998 22.5 70.8998 23.3C70.8998 24.5 70.9998 25.7 70.9998 26.9C70.9998 26.9 70.9998 26.9 70.9998 27C70.9998 27 71.0998 27 71.0998 26.9C71.4998 26.4 71.9998 25.9 72.3998 25.4C72.9998 24.7 73.2998 23.9 73.4998 23C73.7998 21.5 74.3998 20.1 75.4998 19C77.0998 17.3 78.7998 15.6 80.3998 13.8C80.4998 13.7 80.5998 13.6 80.6998 13.5C80.6998 13.5 80.6998 13.5 80.7998 13.6C80.6998 13.7 80.6998 13.8 80.5998 13.9C79.7998 15 78.9998 16 78.1998 17.1C77.7998 17.7 77.2998 18.2 76.8998 18.8C76.7998 19 76.5998 19.2 76.4998 19.4C76.3998 19.5 76.3998 19.7 76.5998 19.8C76.6998 19.9 76.8998 19.8 76.8998 19.7C77.2998 19.3 77.6998 18.8 78.0998 18.3C79.0998 17.1 80.1998 15.9 81.1998 14.7C81.2998 14.5 81.4998 14.4 81.6998 14.2C81.6998 14.2 81.7998 14.2 81.7998 14.3C81.6998 14.4 81.6998 14.6 81.5998 14.7C81.2998 15.1 80.9998 15.6 80.6998 16C79.6998 17.2 78.6998 18.5 77.7998 19.7C77.6998 19.8 77.5998 20 77.4998 20.2C77.3998 20.3 77.3998 20.5 77.5998 20.6C77.7998 20.7 77.8998 20.6 77.9998 20.5C78.4998 19.9 78.8998 19.4 79.3998 18.8C80.2998 17.7 81.1998 16.6 82.1998 15.5C82.2998 15.3 82.4998 15.2 82.6998 15.1C82.6998 15.1 82.7998 15.1 82.8998 15.1C82.8998 15.2 82.8998 15.2 82.8998 15.3C82.7998 15.5 82.6998 15.7 82.5998 15.8C81.3998 17.4 80.1998 18.9 78.9998 20.4C78.8998 20.6 78.6998 20.8 78.5998 21C78.4998 21.1 78.4998 21.3 78.6998 21.4C78.8998 21.5 78.8998 21.4 78.9998 21.3C79.5998 20.6 80.2998 19.8 80.8998 19C81.6998 18.1 82.4998 17.2 83.1998 16.3C83.2998 16.2 83.4998 16 83.5998 15.9C83.5998 15.9 83.6998 15.8 83.7998 15.8C82.2998 15.6 82.1998 15.8 82.0998 16Z"/><path stroke="#fff" stroke-linecap="round" stroke-linejoin="round" stroke-miterlimit="10" stroke-width="1.247" d="M35.9998 32.4H1.2998"/><path stroke="#fff" stroke-linecap="round" stroke-linejoin="round" stroke-miterlimit="10" stroke-width="1.247" d="M36.3 28.6H6.5"/><path stroke="#fff" stroke-linecap="round" stroke-linejoin="round" stroke-miterlimit="10" stroke-width="1.247" d="M101.7 32.4H136.4"/><path stroke="#fff" stroke-linecap="round" stroke-linejoin="round" stroke-miterlimit="10" stroke-width="1.247" d="M101.4 28.6H131.3"/><rect width="151" height="32" x="-5" y="37" fill="#0B0E14"/><path fill="#fff" d="M12.8 50.7L11.6 51.8V58H9.5V51.8H3.4V58H1.2V51.8L0 50.7L1.2 49.6V43.3H3.3V49.6H9.4V43.3H11.5V49.6L12.8 50.7Z"/><path fill="#fff" d="M25.4999 58H16.5999V51.8L15.3999 50.7L16.5999 49.6V43.3H25.4999V45.4H18.7999V49.6H23.9999V51.7H18.7999V55.8H25.4999V58Z"/><path fill="#fff" d="M40.4998 58H38.2998L36.8998 54.3H30.8998L29.4998 58H27.2998L29.5998 51.8L28.5998 50.7L30.3998 49.8L32.7998 43.3H34.9998L40.4998 58ZM36.0998 52.2L33.8998 46.2L31.6998 52.2H36.0998Z"/><path fill="#fff" d="M52.4999 58H43.5999V51.8L42.3999 50.7L43.5999 49.6V43.3H45.6999V55.8H52.3999V58H52.4999Z"/><path fill="#fff" d="M65.0999 45.5H60.7999V49.7L61.9999 50.8L60.7999 51.9V58H58.6999V51.8L57.4999 50.7L58.6999 49.6V45.4H54.3999V43.3H65.0999V45.5Z"/><path fill="#fff" d="M79.9998 50.7L78.7998 51.8V58H76.6998V51.8H70.5998V58H68.4998V51.8L67.2998 50.7L68.4998 49.6V43.3H70.5998V49.6H76.6998V43.3H78.7998V49.6L79.9998 50.7Z"/><path fill="#fff" d="M92.6998 45.5H86.0998V49.7H91.2998V51.8H86.0998V58H83.9998V51.8L82.7998 50.7L83.9998 49.6V43.3H92.6998V45.5Z"/><path fill="#fff" d="M108.1 50.7L106.9 51.8V55.6L104.2 58H99L96.2 55.6V51.8L95 50.7L96.2 49.6V45.7L99 43.3H104.2L106.9 45.7V49.6L108.1 50.7ZM104.8 54.6V46.8L103.3 45.5H99.9L98.4 46.8V54.6L99.9 55.9H103.3L104.8 54.6Z"/><path fill="#fff" d="M123 50.7L121.8 51.8V55.6L119 58H113.8L111 55.6V51.8L109.8 50.7L111 49.6V45.7L113.8 43.3H119L121.7 45.7V49.6L123 50.7ZM119.6 54.6V46.8L118.1 45.5H114.7L113.2 46.8V54.6L114.7 55.9H118.1L119.6 54.6Z"/><path fill="#fff" d="M136.5 55.6L133.8 58H126.1V51.8L124.9 50.7L126.1 49.6V43.3H133.8L136.5 45.7V55.6ZM134.3 54.6V46.9L132.8 45.6H128.2V56H132.8L134.3 54.6Z"/></g></g><defs><clipPath id="clip0"><rect width="137.1" height="62.5" fill="#fff"/></clipPath></defs></svg>